{"accessors" : [{"bufferView" : 0, "byteOffset" : 0, "componentType" : 5123, "count" : 432, "type" : "SCALAR", "max" : [431], "min" : [0]}, {"bufferView" : 1, "byteOffset" : 0, "componentType" : 5126, "count" : 432, "type" : "VEC3", "max" : [0.12099999934434891, 0.3780297636985779, 0.12099999934434891], "min" : [-0.12099999934434891, -0.12099999934434891, -0.12099999934434891]}, {"bufferView" : 1, "byteOffset" : 12, "componentType" : 5126, "count" : 432, "type" : "VEC3", "max" : [1.0000044107437134, 1.0000044107437134, 1.0000044107437134], "min" : [-1.0000044107437134, -1.0000044107437134, -1.0000044107437134]}, {"bufferView" : 0, "byteOffset" : 864, "componentType" : 5123, "count" : 192, "type" : "SCALAR", "max" : [191], "min" : [0]}, {"bufferView" : 2, "byteOffset" : 0, "componentType" : 5126, "count" : 192, "type" : "VEC3", "max" : [0.12099999934434891, 0.3780297636985779, 0.12099999934434891], "min" : [-0.12099999934434891, 0.04612142592668533, -0.12099999934434891]}, {"bufferView" : 2, "byteOffset" : 12, "componentType" : 5126, "count" : 192, "type" : "VEC3", "max" : [1.0000044107437134, 0, 1.0000044107437134], "min" : [-1.0000044107437134, 0, -1.0000044107437134]}, {"bufferView" : 0, "byteOffset" : 1248, "componentType" : 5123, "count" : 276, "type" : "SCALAR", "max" : [275], "min" : [0]}, {"bufferView" : 3, "byteOffset" : 0, "componentType" : 5126, "count" : 276, "type" : "VEC3", "max" : [0.1359066367149353, 1.3071610927581787, 0.32456114888191223], "min" : [-0.12800683081150055, -0.4607025682926178, -0.22939318418502808]}, {"bufferView" : 3, "byteOffset" : 12, "componentType" : 5126, "count" : 276, "type" : "VEC3", "max" : [1.0000044107437134, 1.0000044107437134, 1.0000044107437134], "min" : [-1.0000044107437134, -1.0000044107437134, -1.0000044107437134]}, {"bufferView" : 0, "byteOffset" : 1800, "componentType" : 5123, "count" : 174, "type" : "SCALAR", "max" : [173], "min" : [0]}, {"bufferView" : 4, "byteOffset" : 0, "componentType" : 5126, "count" : 174, "type" : "VEC3", "max" : [0.8944249749183655, 0.8506399989128113, 1.6804988384246826], "min" : [-2.995419502258301, -2.161597967147827, -1.3806968927383423]}, {"bufferView" : 4, "byteOffset" : 12, "componentType" : 5126, "count" : 174, "type" : "VEC3", "max" : [0.9822503924369812, 0.9341756105422974, 0.9470134377479553], "min" : [-0.9822503924369812, -0.9341756105422974, -0.8037576675415039]}, {"bufferView" : 0, "byteOffset" : 2148, "componentType" : 5123, "count" : 174, "type" : "SCALAR", "max" : [173], "min" : [0]}, {"bufferView" : 5, "byteOffset" : 0, "componentType" : 5126, "count" : 174, "type" : "VEC3", "max" : [1.1634044647216797, 0.9434505701065063, 1.6804988384246826], "min" : [-2.4595632553100586, -2.0646393299102783, -1.3806968927383423]}, {"bufferView" : 5, "byteOffset" : 12, "componentType" : 5126, "count" : 174, "type" : "VEC3", "max" : [0.9359112977981567, 0.9813380837440491, 0.9470135569572449], "min" : [-0.9822503924369812, -0.9341756105422974, -0.8653518557548523]}, {"bufferView" : 0, "byteOffset" : 2496, "componentType" : 5123, "count" : 174, "type" : "SCALAR", "max" : [173], "min" : [0]}, {"bufferView" : 6, "byteOffset" : 0, "componentType" : 5126, "count" : 174, "type" : "VEC3", "max" : [1.1634044647216797, 0.9434505701065063, 1.6804988384246826], "min" : [-2.4595632553100586, -2.0646393299102783, -1.3806968927383423]}, {"bufferView" : 6, "byteOffset" : 12, "componentType" : 5126, "count" : 174, "type" : "VEC3", "max" : [0.9359112977981567, 0.9813380837440491, 0.9470135569572449], "min" : [-0.9822503924369812, -0.9341756105422974, -0.8653518557548523]}, {"bufferView" : 0, "byteOffset" : 2844, "componentType" : 5123, "count" : 174, "type" : "SCALAR", "max" : [173], "min" : [0]}, {"bufferView" : 7, "byteOffset" : 0, "componentType" : 5126, "count" : 174, "type" : "VEC3", "max" : [0.8944249749183655, 0.8506399989128113, 1.6804988384246826], "min" : [-2.995419502258301, -2.161597967147827, -1.3806968927383423]}, {"bufferView" : 7, "byteOffset" : 12, "componentType" : 5126, "count" : 174, "type" : "VEC3", "max" : [0.9822503924369812, 0.9341756105422974, 0.9470134377479553], "min" : [-0.9822503924369812, -0.9341756105422974, -0.8037576675415039]}, {"bufferView" : 0, "byteOffset" : 3192, "componentType" : 5123, "count" : 3414, "type" : "SCALAR", "max" : [3413], "min" : [0]}, {"bufferView" : 8, "byteOffset" : 0, "componentType" : 5126, "count" : 3414, "type" : "VEC3", "max" : [1.0118989944458008, 1.0542151927947998, 1.0138087272644043], "min" : [-0.9907025098800659, -0.9883021116256714, -0.9928650856018066]}, {"bufferView" : 8, "byteOffset" : 12, "componentType" : 5126, "count" : 3414, "type" : "VEC3", "max" : [0.9841675758361816, 0.9961656928062439, 1.0000044107437134], "min" : [-0.9805375933647156, -0.9843879342079163, -0.9995540380477905]}, {"bufferView" : 0, "byteOffset" : 10020, "componentType" : 5123, "count" : 2379, "type" : "SCALAR", "max" : [2378], "min" : [0]}, {"bufferView" : 9, "byteOffset" : 0, "componentType" : 5126, "count" : 2379, "type" : "VEC3", "max" : [1.0678813457489014, 1.046486258506775, 1.0478670597076416], "min" : [-1.0605437755584717, -1.0560027360916138, -1.0557670593261719]}, {"bufferView" : 9, "byteOffset" : 12, "componentType" : 5126, "count" : 2379, "type" : "VEC3", "max" : [0.9962570667266846, 0.9653416872024536, 0.9997214078903198], "min" : [-0.9959757924079895, -0.9961656928062439, -0.9998196363449097]}, {"bufferView" : 0, "byteOffset" : 14780, "componentType" : 5123, "count" : 417, "type" : "SCALAR", "max" : [416], "min" : [0]}, {"bufferView" : 10, "byteOffset" : 0, "componentType" : 5126, "count" : 417, "type" : "VEC3", "max" : [1.3478524684906006, 1.2499558925628662, 0.5471853613853455], "min" : [-0.2073155641555786, 0.2713589370250702, 0.006460190750658512]}, {"bufferView" : 10, "byteOffset" : 12, "componentType" : 5126, "count" : 417, "type" : "VEC3", "max" : [0.9841711521148682, 0.9961836338043213, 0.9998464584350586], "min" : [-0.903444230556488, -0.9955270290374756, -0.9984228014945984]}, {"bufferView" : 0, "byteOffset" : 15616, "componentType" : 5123, "count" : 72, "type" : "SCALAR", "max" : [71], "min" : [0]}, {"bufferView" : 11, "byteOffset" : 0, "componentType" : 5126, "count" : 72, "type" : "VEC3", "max" : [1.3092917203903198, 0.4189438223838806, 0.3103758692741394], "min" : [1.0067455768585205, 0.07900479435920715, -0.01077926903963089]}, {"bufferView" : 11, "byteOffset" : 12, "componentType" : 5126, "count" : 72, "type" : "VEC3", "max" : [0.6911560297012329, 0.941031813621521, 0.9634788036346436], "min" : [-0.02711547166109085, -0.7170541286468506, -0.8863455653190613]}, {"bufferView" : 0, "byteOffset" : 15760, "componentType" : 5123, "count" : 36, "type" : "SCALAR", "max" : [35], "min" : [0]}, {"bufferView" : 12, "byteOffset" : 0, "componentType" : 5126, "count" : 36, "type" : "VEC3", "max" : [1.0899264812469482, 0.43071410059928894, 0.3203938901424408], "min" : [0.9772019982337952, 0.0636613667011261, -0.02735525742173195]}, {"bufferView" : 12, "byteOffset" : 12, "componentType" : 5126, "count" : 36, "type" : "VEC3", "max" : [0.5405112504959106, 0.9137465953826904, 0.9531744718551636], "min" : [0.28535711765289307, -0.7191532850265503, -0.8456421494483948]}], "asset" : {"generator" : "Aspose.3D 20.7.1", "version" : "2.0"}, "buffers" : [{"uri" : "buffer.bin", "byteLength" : 205820}], "bufferViews" : [{"buffer" : 0, "byteOffset" : 0, "byteLength" : 15832, "target" : 34963}, {"buffer" : 0, "byteOffset" : 15836, "byteLength" : 10368, "byteStride" : 24, "target" : 34962}, {"buffer" : 0, "byteOffset" : 26208, "byteLength" : 4608, "byteStride" : 24, "target" : 34962}, {"buffer" : 0, "byteOffset" : 30820, "byteLength" : 6624, "byteStride" : 24, "target" : 34962}, {"buffer" : 0, "byteOffset" : 37448, "byteLength" : 4176, "byteStride" : 24, "target" : 34962}, {"buffer" : 0, "byteOffset" : 41628, "byteLength" : 4176, "byteStride" : 24, "target" : 34962}, {"buffer" : 0, "byteOffset" : 45808, "byteLength" : 4176, "byteStride" : 24, "target" : 34962}, {"buffer" : 0, "byteOffset" : 49988, "byteLength" : 4176, "byteStride" : 24, "target" : 34962}, {"buffer" : 0, "byteOffset" : 54168, "byteLength" : 81936, "byteStride" : 24, "target" : 34962}, {"buffer" : 0, "byteOffset" : 136108, "byteLength" : 57096, "byteStride" : 24, "target" : 34962}, {"buffer" : 0, "byteOffset" : 193208, "byteLength" : 10008, "byteStride" : 24, "target" : 34962}, {"buffer" : 0, "byteOffset" : 203220, "byteLength" : 1728, "byteStride" : 24, "target" : 34962}, {"buffer" : 0, "byteOffset" : 204952, "byteLength" : 864, "byteStride" : 24, "target" : 34962}], "cameras" : [{"perspective" : {"aspectRatio" : 1.777777777777778, "yfov" : 0.8575560450553893, "zfar" : 10000, "znear" : 10.000000149011612}, "type" : "perspective"}], "materials" : [{"pbrMetallicRoughness" : {"baseColorFactor" : [0, 0, 0, 1], "metallicFactor" : 0, "roughnessFactor" : 0}, "emissiveFactor" : [0, 0, 0], "alphaMode" : "OPAQUE", "doubleSided" : false}, {"pbrMetallicRoughness" : {"baseColorFactor" : [0, 0, 0, 1], "metallicFactor" : 0, "roughnessFactor" : 0}, "emissiveFactor" : [0, 0, 0], "alphaMode" : "OPAQUE", "doubleSided" : false}, {"pbrMetallicRoughness" : {"baseColorFactor" : [0, 0, 0, 1], "metallicFactor" : 0, "roughnessFactor" : 0}, "emissiveFactor" : [0, 0, 0], "alphaMode" : "OPAQUE", "doubleSided" : false}, {"pbrMetallicRoughness" : {"baseColorFactor" : [0, 0, 0, 1], "metallicFactor" : 0, "roughnessFactor" : 0}, "emissiveFactor" : [0, 0, 0], "alphaMode" : "OPAQUE", "doubleSided" : false}, {"pbrMetallicRoughness" : {"baseColorFactor" : [0, 0, 0, 1], "metallicFactor" : 0, "roughnessFactor" : 0}, "emissiveFactor" : [0, 0, 0], "alphaMode" : "OPAQUE", "doubleSided" : false}, {"pbrMetallicRoughness" : {"baseColorFactor" : [0, 0, 0, 1], "metallicFactor" : 0, "roughnessFactor" : 0}, "emissiveFactor" : [0, 0, 0], "alphaMode" : "OPAQUE", "doubleSided" : false}, {"pbrMetallicRoughness" : {"baseColorFactor" : [0, 0, 0, 1], "metallicFactor" : 0, "roughnessFactor" : 0}, "emissiveFactor" : [0, 0, 0], "alphaMode" : "OPAQUE", "doubleSided" : false}, {"pbrMetallicRoughness" : {"baseColorFactor" : [0, 0, 0, 1], "metallicFactor" : 0, "roughnessFactor" : 0}, "emissiveFactor" : [0, 0, 0], "alphaMode" : "OPAQUE", "doubleSided" : false}, {"pbrMetallicRoughness" : {"baseColorFactor" : [0, 0, 0, 1], "metallicFactor" : 0, "roughnessFactor" : 0}, "emissiveFactor" : [0, 0, 0], "alphaMode" : "OPAQUE", "doubleSided" : false}, {"pbrMetallicRoughness" : {"baseColorFactor" : [0, 0, 0, 1], "metallicFactor" : 0, "roughnessFactor" : 0}, "emissiveFactor" : [0, 0, 0], "alphaMode" : "OPAQUE", "doubleSided" : false}, {"pbrMetallicRoughness" : {"baseColorFactor" : [0, 0, 0, 1], "metallicFactor" : 0, "roughnessFactor" : 0}, "emissiveFactor" : [0, 0, 0], "alphaMode" : "OPAQUE", "doubleSided" : false}, {"pbrMetallicRoughness" : {"baseColorFactor" : [0, 0, 0, 1], "metallicFactor" : 0, "roughnessFactor" : 0}, "emissiveFactor" : [0, 0, 0], "alphaMode" : "OPAQUE", "doubleSided" : false}], "meshes" : [{"primitives" : [{"attributes" : {"POSITION" : 1, "NORMAL" : 2}, "indices" : 0, "material" : 0, "mode" : 4}, {"attributes" : {"POSITION" : 4, "NORMAL" : 5}, "indices" : 3, "material" : 1, "mode" : 4}]}, {"primitives" : [{"attributes" : {"POSITION" : 7, "NORMAL" : 8}, "indices" : 6, "material" : 2, "mode" : 4}]}, {"primitives" : [{"attributes" : {"POSITION" : 10, "NORMAL" : 11}, "indices" : 9, "material" : 3, "mode" : 4}]}, {"primitives" : [{"attributes" : {"POSITION" : 13, "NORMAL" : 14}, "indices" : 12, "material" : 4, "mode" : 4}]}, {"primitives" : [{"attributes" : {"POSITION" : 16, "NORMAL" : 17}, "indices" : 15, "material" : 5, "mode" : 4}]}, {"primitives" : [{"attributes" : {"POSITION" : 19, "NORMAL" : 20}, "indices" : 18, "material" : 6, "mode" : 4}]}, {"primitives" : [{"attributes" : {"POSITION" : 22, "NORMAL" : 23}, "indices" : 21, "material" : 7, "mode" : 4}, {"attributes" : {"POSITION" : 25, "NORMAL" : 26}, "indices" : 24, "material" : 8, "mode" : 4}, {"attributes" : {"POSITION" : 28, "NORMAL" : 29}, "indices" : 27, "material" : 9, "mode" : 4}, {"attributes" : {"POSITION" : 31, "NORMAL" : 32}, "indices" : 30, "material" : 10, "mode" : 4}, {"attributes" : {"POSITION" : 34, "NORMAL" : 35}, "indices" : 33, "material" : 11, "mode" : 4}]}], "nodes" : [{"matrix" : [44.72899125401566, 0, 29.133188461691056, 0, 29.133188461690672, -8.696707294792904E-06, -44.728991254015064, 0, 4.7463992035156E-06, 53.38001251220632, -7.287278168590189E-06, 0, 62.57468032836914, -9.734344482421875, -82.7437973022461, 1], "mesh" : 0, "name" : "Cube.001"}, {"matrix" : [-60.52383232398348, -10.470649311857567, 21.802440284519744, 0, 8.15400031621991, -4.381430078813817, 20.531414109032085, 0, -0.5135951667196686, 6.107249287968147, 1.5072678733485456, 0, 45.22353744506836, 62.18837356567383, -65.27828216552734, 1], "mesh" : 1, "name" : "Cube"}, {"matrix" : [-1.1264910398169812, -10.545175286970736, -3.29789236877318, 0, -3.98794454899252, -2.7034664227512026, 10.00666711398911, 0, 10.30403489650599, -2.1991697355219126, 3.5123121274916307, 0, -78.33969116210938, 45.5489501953125, -89.6061019897461, 1], "mesh" : 2, "name" : "Icosphere.004"}, {"matrix" : [-1.912770927512114, -10.619942975965763, 2.6275345328032036, 0, 1.94446746093443, 2.294903029998794, 10.691033663697569, 0, 10.76597094640064, -2.3013137526505663, -1.4641042932879702, 0, 54.746131896972656, -29.2215518951416, -120.71575927734375, 1], "mesh" : 3, "name" : "Icosphere.003"}, {"matrix" : [8.390560392799745, 0, -7.350857846582957, 0, -7.350857846582936, 8.421878339132327E-07, -8.39056039279972, 0, 5.549743758203748E-07, 11.15511703491208, 6.334697401965115E-07, 0, 124.75397491455078, 41.24062728881836, 35.541500091552734, 1], "mesh" : 4, "name" : "Icosphere.002"}, {"matrix" : [11.15511703491211, 0, 0, 0, 0, -1.8173992485002064E-06, -11.155117034911962, 0, 0, 11.155117034911962, -1.8173992485002064E-06, 0, -8.331847190856934, 99.28384399414062, 87.54617309570312, 1], "mesh" : 5, "name" : "Icosphere.001"}, {"matrix" : [100, 0, 0, 0, 0, 92.39728930703689, -38.2457762744186, 0, 0, 38.2457762744186, 92.39728930703689, 0, 0, 0, 0, 1], "mesh" : 6, "name" : "Icosphere"}, {"camera" : 0, "matrix" : [-99.34953678325446, 2.488703223089389, 11.111902237749963, 0, -1.8415961555750648, 92.78635184414811, -37.2464956076907, 0, -11.237285158246403, -37.208862896279044, -92.13699295135007, 0, 462.0977783203125, 233.16769409179688, -78.25311279296875, 1], "name" : "Camera"}], "scene" : 0, "scenes" : [{"nodes" : [0, 1, 2, 3, 4, 5, 6, 7]}]}