<?xml version="1.0" encoding="utf-8"?>
<!-- Generator: Adobe Illustrator 23.0.2, SVG Export Plug-In . SVG Version: 6.00 Build 0)  -->
<svg version="1.1" xmlns="http://www.w3.org/2000/svg" xmlns:xlink="http://www.w3.org/1999/xlink" x="0px" y="0px"
	 viewBox="0 0 250.55 224.05" style="enable-background:new 0 0 250.55 224.05;" xml:space="preserve">
<style type="text/css">
	.st0{fill:url(#SVGID_1_);}
	.st1{fill:url(#SVGID_2_);}
	.st2{fill:url(#SVGID_3_);}
	.st3{fill:url(#SVGID_4_);}
	.st4{fill:url(#SVGID_5_);}
	.st5{fill:url(#SVGID_6_);}
	.st6{fill:url(#SVGID_7_);}
	.st7{fill:url(#SVGID_8_);}
</style>
<g id="Background">
</g>
<g id="Objects">
	<g>
		
			<linearGradient id="SVGID_1_" gradientUnits="userSpaceOnUse" x1="58.2344" y1="179.6434" x2="225.3966" y2="179.6434" gradientTransform="matrix(0.8563 0.5164 -0.5164 0.8563 109.426 -120.4388)">
			<stop  offset="0" style="stop-color:#B5EE23"/>
			<stop  offset="1" style="stop-color:#6EA514"/>
		</linearGradient>
		<path class="st0" d="M92.39,135.34c0,0,3.33,1.72,1.35,6.93c0,0-0.73,0.73-1.85,3.55c-1.12,2.82-1.76,3.89-2.37,5.86
			c-0.6,1.97-1.55,2.56-1.55,2.56l0.94-0.6c0,0,0.64,0.39,0.04,2.35c-0.6,1.97-1.08,3.72-1.08,3.72c0.6,0.94,0.34,2.82,0.34,2.82
			l-0.05,2.01c0,0-0.38-0.81,1.37-1.79c1.76-0.98,2.05-0.51,3.34-1.19c1.29-0.68,1.29-0.68,1.29-0.68s1.27,1.18,1.3,2.87
			c0.03,1.69,0.02,2.74,0.14,4.28c0.12,1.54,0.49,0.92,0.7,2.31c0.21,1.38-0.1,1.2,0.52,2.61c0.61,1.42,0.61,1.42,0.61,1.42
			s-0.03,0.4,0.61,2.46c0.64,2.06,1.07,2.74,1.07,2.74s-0.49-0.92,0.53-1.57c1.02-0.64,1.39-1.26,2.03-1.29
			c0.65-0.03,0.86-0.74,0.86-0.74s0.49,0.92,1.35,2.28c0.86,1.36,1.29,2.03,2.55,3.42c1.26,1.39,0.95,1.2,1.84,2.16
			c0.89,0.95,1.63,1.82,1.63,1.82l0.5-1.17c0,0,0.16-0.95,0.95,0.16c0.8,1.11,0.83,1.76,1.69,3.11c0.86,1.36,0.83,0.71,1.93,2
			c1.1,1.29,1.07,1.69,2.18,2.99c1.1,1.29,2.3,2.43,2.3,2.43s-0.12-0.49-0.43-1.72c-0.31-1.23-0.7-1.26-0.36-3.57
			c0.34-2.31,0.28-1.51,0.25-3.2c-0.03-1.69-0.52-0.52-0.03-1.69c0.49-1.17-0.03-1.69-0.12-2.58c-0.09-0.89-0.09-0.89-0.36-2.52
			c-0.27-1.63-1.01-2.49-0.95-3.29c0.06-0.8,0.22-0.71,1.02-0.64c0.8,0.06,0.8,0.06,0.8,0.06s0.03,0.65-0.06-1.29
			c-0.09-1.94-0.24-2.03-1.07-4.83c-0.82-2.8-1.5-2.37-2.2-4.68c-0.7-2.31-1.5-2.37-1.47-3.82c0.03-1.44-0.06-1.29,0.19-2.4
			c0.25-1.11,0.28-2.55,0.28-2.55s2.03,0.8,2.89,1.11c0.86,0.31,1.63,0.77,3.01,1.61c1.38,0.83,2.09,1.05,3.29,2.19
			c1.2,1.14,0.36,1.48,1.87,2.8c1.51,1.33,1.72,0.62,2.7,2.46c0.98,1.85,0.46,2.37,1.5,3.42c1.04,1.05,1.69,2.06,1.69,2.06
			s-0.12-0.49,0.4-1.01c0.52-0.52,0.52-0.52,0.52-0.52s0.8,0.06,1.35,1.23c0.55,1.17,0.67,1.66,1.38,2.92
			c0.7,1.26,1.32,2.68,1.32,2.68l0.59-1.32c0,0,0.98,0.8,1.57,1.57c0.58,0.77,0.49,0.92,1.57,1.57c1.07,0.65,0.52,1.57,1.75,2.31
			c1.23,0.74,1.41,1.48,1.41,1.48s-0.68-0.62-0.64-2.06c0.03-1.45,0.1-3.29,0.47-3.9c0.37-0.62,0.34-0.22,0.56-1.97
			c0.22-1.75,0.13-1.6,0.29-3.6c0.16-2-0.33-1.88,0.07-2.89c0.4-1.01,0.22-1.75,0.22-1.75s0.15,0.09,1.17,0.49
			c1.01,0.4,2.12,0.65,2.12,0.65l-0.89-0.96c0,0,0.65-0.03,2.09,1.05c1.44,1.08,2.7,1.42,3.47,1.88c0.77,0.46,0.24,0.98,1.72,1.67
			c1.47,0.68,2.27,0.74,2.27,0.74l-1.01-1.45c0,0,0.65-0.03,2.18,0.9c1.53,0.93,2.4,1.23,3.26,1.54c0.86,0.31,0.98,0.8,2.24,1.14
			c1.26,0.34,1.97,0.56,1.97,0.56s-1.54-0.93-1.63-1.82c-0.09-0.89,0.19-1.35,0.19-2.4c0-1.05-0.12-2.58-0.12-2.58
			s0.55,0.12,2.06,0.4c1.51,0.28,3.11,0.41,4.06,0.56c0.95,0.15,3.01,0.56,4.12,0.81c1.11,0.25,2.46,0.44,2.46,0.44
			s-0.21-0.34-0.24-0.99c-0.03-0.65-0.03-0.65-0.03-0.65s-0.24-0.98,1.36-0.86c1.6,0.13,2.8,0.22,3.75,0.38
			c0.95,0.16,2.46,0.44,2.46,0.44l-0.98-0.8c0,0,1.2,0.1,2.31,0.34c1.11,0.25,1.66,0.37,4.06,0.56c2.4,0.19,2.8,0.22,4.67-0.11
			c1.88-0.33,2.49,0.04,3.32-0.3c0.83-0.33,1.66-0.67,1.66-0.67s-3.91-0.47-4.67-0.93c-0.77-0.46-3.56-1.73-4.27-1.95
			c-0.71-0.22-2.86-1.51-2.86-1.51l-0.89,0.09l0.43-1.41c0,0-0.92,0.49-1.69,0.03c-0.77-0.46-3.01-1.61-3.01-1.61l0.1-1.2l0.62-0.67
			c0,0-1.2-0.1-2.12-0.65c-0.92-0.56-2.49-1.08-3.72-1.82c-1.23-0.74-2.58-0.93-2.58-0.93l-1.97-0.56c0,0,0.18-0.31,0.96-1.94
			c0.77-1.63,1.45-2.06,1.45-2.06s0.12-0.56-0.89-0.96c-1.01-0.4-2.52-0.68-2.52-0.68l0.4-1.01c0,0-0.74,0.18-2.09,0
			c-1.35-0.19-3.14-0.01-3.14-0.01l1.3-1.1c0,0-0.96-0.16-2.15-0.25c-1.2-0.09-3.84-0.22-4.55-0.44c-0.71-0.22-3.23-0.9-3.23-0.9
			s0.92-0.49,1.33-1.5c0.4-1.01,0.74-2.27,1.36-2.95c0.62-0.68,1.73-1.47,1.73-1.47s-0.89,0.09-1.6-0.13
			c-0.71-0.22-1.48-0.68-2.27-0.74c-0.8-0.06-2.09-0.01-2.09-0.01c0.25-1.11,0.46-1.81,0.46-1.81l-2.77,0.42
			c0,0-2.18,0.15-2.65-0.13c-0.46-0.28-0.24-0.99-0.24-0.99s-1.35-0.19-2.34,0.06c-0.99,0.24-2.71,0.67-3.85,0.82
			c-1.14,0.15-2.12-0.65-3.72-0.78c-1.6-0.13-4.55-0.44-5.81-0.78c-1.26-0.34-2.24-1.14-3.07-1.85c-0.83-0.71-2.42-2.93-2.42-2.93
			s1.05-1.04,2.59-2.21c1.54-1.17,3.91-1.62,5.45-1.74c1.54-0.12,4.24,0.25,5.54,0.2c1.29-0.06,4.15,0.41,5.9,0.63
			c1.75,0.22,2.58,0.93,4.79,1.43c2.21,0.5,3.29,1.15,3.29,1.15l-0.86-1.36c0,0,1.66,0.37,2.67,0.78c1.01,0.4,1.01,0.4,2.28,0.74
			c1.26,0.34,2.46,0.44,2.46,0.44s-0.77-0.46-1.07-1.69c-0.3-1.23-0.4-2.12-0.42-2.77c-0.03-0.65-0.46-1.32-0.46-1.32
			s0.89-0.09,2.49,0.04c1.6,0.13,2.89,0.07,4.64,0.29c1.75,0.22,2.03,0.8,3.72,0.78c1.69-0.03,1.82,0.46,2.71,0.37
			c0.89-0.09,1.6,0.13,1.6,0.13s-1.23-0.74-1.32-1.63c-0.09-0.89-0.67-1.66-0.67-1.66s1.48-0.37,2.61-0.52
			c1.14-0.15,3.02-0.49,4.31-0.54c1.29-0.06,2.37-0.46,2.37-0.46l-0.83-0.71c0,0,1.6,0.13,3.32-0.3c1.72-0.43,2.62-0.52,3.88-1.22
			c1.26-0.7,3.36-1.74,3.36-1.74s-2.59,0.12-3.14-0.01c-0.55-0.12-1.38-0.83-2.34-0.99c-0.95-0.16-2.21-0.5-2.21-0.5
			s0.22-0.71-0.58-0.77c-0.8-0.06-1.6-0.13-2.61-0.53c-1.01-0.4-2.06-1.45-2.06-1.45l0.89-1.13c0,0-0.37-0.43-1.32-0.59
			c-0.95-0.16-2.09-1.05-3.1-1.45c-1.01-0.4-2.74-1.02-3.35-1.39c-0.61-0.37-3.41-1.64-3.41-1.64s0.81-0.99,2.07-1.69
			c1.26-0.7,2.68-1.32,4.49-1.9c1.82-0.58,3.6-0.76,4.03-1.13c0.43-0.37,0.37-0.61,1.63-1.32c1.26-0.7,3.29-0.95,3.29-0.95
			l-1.14-0.89c0,0,0.12-0.55,2.28-1.35c2.16-0.8,3.85-0.82,3.85-0.82l-1.14-0.9c0,0,2.4-0.86,3.14-1.04
			c0.74-0.18,1.91-0.73,2.55-0.76c0.65-0.03,1.63-0.27,1.63-0.27s-1.85-0.07-2.92-0.71c-1.08-0.65-3.16-1.7-4.79-2.47
			c-1.63-0.77-3.38-2.04-4.15-2.5c-0.77-0.46-1.38-0.83-1.38-0.83s1.57-1.57,2.44-2.3c0.86-0.74,1.97-1.53,3.42-2.55
			c1.45-1.01,1.85-2.02,3.33-2.39c1.48-0.37,3.97-1.38,3.97-1.38l1.45-1.01c0,0-2,0.89-3.08,0.24c-1.08-0.65-1.47-1.73-1.47-1.73
			s-0.43-0.68,0.19-1.35c0.62-0.67,2.44-2.3,3.79-3.16c1.36-0.86,3.45-1.9,3.88-2.27c0.43-0.37,1.57-1.56,1.57-1.56L201,68.64
			c0,0,1.14-1.2,2.16-1.84c1.02-0.64,3.76-2.76,5.21-3.77c1.45-1.01,3.98-2.42,5.67-3.49c1.69-1.07,4.4-2.79,4.4-2.79l1.11-0.8
			c0,0-6.31,1.43-7.97,2.1c-1.66,0.67-6.59,1.89-8.99,2.75c-2.4,0.86-5.05,1.77-6.03,2.02c-0.99,0.24-2.22,0.55-2.22,0.55l1.3-2.15
			c0,0-1.42,0.61-2.49,1.01c-1.08,0.4-3.32,1.35-3.76,1.71c-0.43,0.37-1.66,0.67-2.25-0.1c-0.58-0.77-0.73-1.91-1.01-2.49
			c-0.28-0.59-0.46-2.37-0.46-2.37s-1.11,0.8-2.16,1.84c-1.05,1.04-2.77,2.52-2.77,2.52s-1.85,0.98-3.54,2.05
			c-1.69,1.07-2.55,0.76-2.55,0.76s-0.73-1.91-1.29-3.08c-0.55-1.17-0.95-3.29-0.95-3.29l-0.06-2.34c0,0-1.24,2.4-2.44,3.35
			c-1.2,0.95-2.16,0.8-2.16,0.8s-0.99,1.29-1.73,2.52c-0.74,1.23-1.91,1.78-1.91,1.78l-0.98-0.8l-0.49-1.97c0,0-0.68,2.52-1.33,3.6
			c-0.65,1.08-2.62,4.7-4.1,6.11c-1.48,1.41-2.37,2.55-3.85,2.91c-1.48,0.37-1.35-0.19-1.78-0.87c-0.43-0.68-1.16-2.59-0.64-4.15
			c0.53-1.57,0.66-4.21,0.66-4.21l-0.09-1.94l-1.48,1.41c0,0-0.37-0.43,0.38-2.71c0.74-2.27,0.25-3.2,0.44-4.55
			c0.19-1.35,0.35-3.35,0.47-3.91c0.12-0.55,0.41-3.1,0.41-3.1s-1.6,1.96-2.62,3.65c-1.02,1.69-1.79,2.27-2.87,3.71
			c-1.08,1.44-2.06,1.69-2.06,1.69L143.35,59c0,0,0,2.09-0.87,3.87c-0.87,1.78-2.65,3.01-2.65,3.01s-1.32-0.59-1.94-0.96
			c-0.61-0.37-1.01-1.45-1.01-1.45s-0.96,2.98-1.27,4.89c-0.31,1.91-1.67,4.86-1.95,5.32c-0.28,0.46-1.48,1.41-1.48,1.41
			s-0.55-0.12-1.48-0.68c-0.92-0.56-2.31-0.34-2.31-0.34l-1.07-0.65c0,0-0.5,2.21-0.47,3.9c0.03,1.69-0.32,4-0.38,6.89
			c-0.07,2.89-1.83,8.95-2.05,9.66c-0.22,0.7-2.07,4.82-3.15,6.27c-1.08,1.44-3.39,2.15-4.71,2.6c-1.32,0.46-1.23-0.74-1.75-1.26
			c-0.52-0.52-1.19-2.19-0.76-3.6c0.43-1.41,1.39-4.39,2.97-5.96c1.57-1.56,3.51-3.74,3.88-4.36c0.37-0.61,0.65-2.12,0.93-2.58
			c0.28-0.46,1.08-2.49,1.58-3.66c0.49-1.17,0.41-3.11,0.41-3.11l1.24-3.44c0,0-2.19,0.15-3.48,0.21c-1.29,0.06-2.83-0.87-2.83-0.87
			s0-2.09,0.31-2.95c0.31-0.86,0.93-3.63,1.58-5.75c0.65-2.12,0.68-3.57,0.93-4.67c0.25-1.11,0.25-3.2,0.25-3.2
			s-0.93,1.54-2.03,1.29c-1.11-0.25-2-0.16-2-0.16s0.16-2,0.56-4.06c0.4-2.06,0.44-3.51,0.56-4.06c0.12-0.55,0.56-3.01,0.56-3.01
			s-0.83,1.38-1.2,0.95c-0.37-0.43-0.18-1.78-0.02-2.74c0.16-0.95-0.42-2.77-0.17-4.92c0.25-2.15,0.32-4,0.26-5.29
			c-0.06-1.29-0.92-3.69-0.92-3.69l-1.41-2.53c0,0,0.18,1.78-0.16,4.09c-0.34,2.31-0.77,2.67-1.46,5.2
			c-0.68,2.52-1.49,4.55-1.86,5.16c-0.37,0.61-0.37,0.61-0.37,0.61l-0.64-3.11c0,0-0.37,1.66-0.9,3.23
			c-0.53,1.57-1.33,2.55-1.55,3.26c-0.22,0.71-1.29,0.06-1.29,0.06l-0.77-1.51c0,0-0.25,0.06-0.71,1.87
			c-0.46,1.81-1.02,3.78-1.76,5.01c-0.74,1.23-2.44,3.35-2.44,3.35s-0.21-1.38-1.5-1.33c-1.29,0.06-2-1.2-2-1.2l-0.15-2.18
			c0,0-0.77,1.63-1.08,3.53c-0.31,1.91-0.59,3.41-0.69,4.61c-0.1,1.2-0.37,2.71-0.59,4.46c-0.22,1.75-0.81,4.12-1.18,4.73
			c-0.37,0.62-1.88,0.33-1.88,0.33s-3.07-0.81-3.41-1.64c-0.34-0.83-2.67-1.82-2.67-1.82l-1.17-1.54l-0.55-1.17
			c0,0-0.59,2.37-0.84,3.47c-0.25,1.11,0.48,3.01,0.48,3.01l-0.46,0.77c0,0,0.3,2.28,0.52,3.66c0.21,1.38,0.3,3.32,0.3,3.32
			l-1.63-0.77c0,0-0.03,0.4,0,1.05c0.03,0.64,0.79,3.2,1.31,4.77c0.52,1.57,1.22,2.83,1.25,4.52c0.03,1.69-0.35,3.35-0.44,4.55
			c-0.09,1.2-0.9,3.23-0.9,3.23s-3.13-2.1-3.96-2.81c-0.83-0.71-2.98-2.01-4.33-3.24c-1.35-1.23-3.5-2.53-3.5-2.53
			s-0.09,1.2,0.18,1.78c0.28,0.58-0.31-0.19-0.95-0.16c-0.65,0.03-3.04-2.25-4.3-3.64c-1.26-1.39-2.52-1.73-3.68-3.27
			c-1.17-1.54-2.95-3.45-2.95-3.45l-2.09-2.1c0,0-0.07,1.85,0.36,4.61c0.42,2.77,0.42,4.86,0.6,5.6c0.18,0.74,1.22,3.88,1.22,3.88
			s-0.68,0.43-1.38,0.21c-0.71-0.22-1.6-0.13-1.6-0.13s0.83,0.71,1.93,2c1.1,1.3,1.68,3.11,1.56,3.66
			c-0.12,0.55,1.66,2.47,1.75,3.36c0.09,0.89,0.92,2.65,0.92,2.65s-2,0.89-2.93,1.38c-0.92,0.49-2.65,0.92-2.65,0.92l-1.75-0.22
			c0,0,2.36,1.64,3.99,2.41c1.63,0.77,2.98,2.01,3.5,2.53c0.52,0.52,0.46,1.32,0.46,1.32l-1.35-0.19c0,0,2.89,2.16,4.67,3.03
			c1.78,0.87,3.47,2.93,3.84,3.36c0.37,0.43,0.92,1.6,0.92,1.6s-0.95-0.15-2.68,1.32c-1.73,1.47-2.13,1.44-2.71,1.72
			c-0.59,0.28-2.22,0.55-2.22,0.55s1.88,0.71,2.8,1.27c0.92,0.56,1.6,1.17,1.6,1.17s-1.11,0.8-0.52,0.52
			c0.58-0.28,3.26-0.55,3.26-0.55l1.93,0.96l-1.17,0.55c0,0,2.31,0.34,3.57,0.69c1.26,0.34,2.74,1.02,4.33,1.15
			c1.6,0.13,3.63,0.93,4.98,1.12c1.35,0.19,3.35,0.34,4.18,1.05c0.83,0.71,0.52,1.57,0.98,2.89
			C92.1,133.23,92.39,135.34,92.39,135.34z"/>
		
			<linearGradient id="SVGID_2_" gradientUnits="userSpaceOnUse" x1="211.9497" y1="237.8508" x2="128.3176" y2="207.5622" gradientTransform="matrix(0.8563 0.5164 -0.5164 0.8563 109.426 -120.4388)">
			<stop  offset="0.0424" style="stop-color:#DF951E"/>
			<stop  offset="1" style="stop-color:#F9B231"/>
		</linearGradient>
		<path class="st1" d="M197.12,168.51c0.83-0.33,1.66-0.67,1.66-0.67s-0.4-0.05-0.98-0.13c-1.25,0.27-2.79,0.52-3.89,0.41
			c-2.18-0.22-6.5-1.12-7.77-1.64c-1.27-0.52-7.17-2.62-8.17-2.98c-1-0.36-6.3-1.25-7.13-1.5c-0.82-0.25-4.89-1.37-6.23-1.57
			c-1.34-0.2-5.5-1.37-6.73-1.75c-1.23-0.38-6.32-2.34-7.15-2.11c-0.83,0.22-4.4-0.72-5.35-1.17c-0.95-0.45-4.43-1.33-6.37-2.14
			c-1.95-0.81-7.41-2.64-8.44-3.15c-1.03-0.5-9.05-3.15-10.37-3.58c-1.32-0.43-4.93-2.12-6.25-2.55c-1.32-0.43-6.21-1.8-6.75-2.12
			c-0.53-0.32-5.64-2.55-6.85-3.16c-1.21-0.61-3.26-2.46-3.78-2.4c-0.52,0.05-0.34,0.16-0.13,1.62c0.21,1.47,1.22,4.63,1.95,6.65
			c0.73,2.02,1.78,4.72,2.43,6.45c0.66,1.73,1.49,5.4,2.22,6.81c0.73,1.41,2.25,5.74,2.98,7.76c0.73,2.02,2.06,5.76,2.87,7.39
			c0.81,1.64,2.89,5.44,3.64,6.63c0.75,1.18,2.8,4.24,3.35,5.55c0.55,1.3,0.8,2.91,1.38,4.36c0.54,1.33,0.69,3.14,1.43,4.9
			c0.45,0.46,0.76,0.76,0.76,0.76s-0.12-0.49-0.43-1.72c-0.31-1.23-0.7-1.26-0.36-3.57c0.34-2.31,0.28-1.51,0.25-3.2
			c-0.03-1.69-0.52-0.52-0.03-1.69c0.49-1.17-0.03-1.69-0.12-2.58c-0.09-0.89-0.09-0.89-0.36-2.52c-0.27-1.63-1.01-2.49-0.95-3.29
			c0.06-0.8,0.22-0.71,1.02-0.64c0.8,0.06,0.8,0.06,0.8,0.06s0.03,0.65-0.06-1.29c-0.09-1.94-0.24-2.03-1.07-4.83
			c-0.82-2.8-1.5-2.37-2.2-4.68c-0.7-2.31-1.5-2.37-1.47-3.82c0.03-1.44-0.06-1.29,0.19-2.4c0.25-1.11,0.28-2.55,0.28-2.55
			s2.03,0.8,2.89,1.11c0.86,0.31,1.63,0.77,3.01,1.61c1.38,0.83,2.09,1.05,3.29,2.19c1.2,1.14,0.36,1.48,1.87,2.8
			c1.51,1.33,1.72,0.62,2.7,2.46c0.98,1.85,0.46,2.37,1.5,3.42c1.04,1.05,1.69,2.06,1.69,2.06s-0.12-0.49,0.4-1.01
			c0.52-0.52,0.52-0.52,0.52-0.52s0.8,0.06,1.35,1.23c0.55,1.17,0.67,1.66,1.38,2.92c0.7,1.26,1.32,2.68,1.32,2.68l0.59-1.32
			c0,0,0.98,0.8,1.57,1.57c0.58,0.77,0.49,0.92,1.57,1.57c1.07,0.65,0.52,1.57,1.75,2.31c0.48,0.29,0.79,0.57,1.01,0.82
			c-0.13-0.33-0.25-0.79-0.23-1.4c0.03-1.45,0.1-3.29,0.47-3.9c0.37-0.62,0.34-0.22,0.56-1.97c0.22-1.75,0.13-1.6,0.29-3.6
			c0.16-2-0.33-1.88,0.07-2.89c0.4-1.01,0.22-1.75,0.22-1.75s0.15,0.09,1.17,0.49c1.01,0.4,2.12,0.65,2.12,0.65l-0.89-0.96
			c0,0,0.65-0.03,2.09,1.05c1.44,1.08,2.7,1.42,3.47,1.88c0.77,0.46,0.24,0.98,1.72,1.67c1.47,0.68,2.27,0.74,2.27,0.74l-1.01-1.45
			c0,0,0.65-0.03,2.18,0.9c1.53,0.93,2.4,1.23,3.26,1.54c0.86,0.31,0.98,0.8,2.24,1.14c1.26,0.34,1.97,0.56,1.97,0.56
			s-1.54-0.93-1.63-1.82c-0.09-0.89,0.19-1.35,0.19-2.4c0-1.05-0.12-2.58-0.12-2.58s0.55,0.12,2.06,0.4
			c1.51,0.28,3.11,0.41,4.06,0.56c0.95,0.15,3.01,0.56,4.12,0.81c1.11,0.25,2.46,0.44,2.46,0.44s-0.21-0.34-0.24-0.99
			c-0.03-0.65-0.03-0.65-0.03-0.65s-0.24-0.98,1.36-0.86c1.6,0.13,2.8,0.22,3.75,0.38c0.95,0.16,2.46,0.44,2.46,0.44l-0.98-0.8
			c0,0,1.2,0.1,2.31,0.34c1.11,0.25,1.66,0.37,4.06,0.56c2.4,0.19,2.8,0.22,4.67-0.11C195.67,168.47,196.29,168.84,197.12,168.51z"
			/>
		
			<linearGradient id="SVGID_3_" gradientUnits="userSpaceOnUse" x1="160.0852" y1="163.3265" x2="79.6055" y2="134.1796" gradientTransform="matrix(0.8563 0.5164 -0.5164 0.8563 109.426 -120.4388)">
			<stop  offset="0.0424" style="stop-color:#DF951E"/>
			<stop  offset="1" style="stop-color:#F9B231"/>
		</linearGradient>
		<path class="st2" d="M154.84,95.09c1.16-0.77,5.77-4.14,7.74-5.62c1.97-1.47,6.15-4.65,7.28-5.43c1.13-0.78,6.88-4.52,8.1-5.44
			c1.21-0.92,2.3-1.58,3.53-2.65c1.22-1.07,1.88-1.26,3.5-2.36c1.63-1.1,5.45-3.03,7.06-3.98c1.61-0.95,3.37-1.63,4.75-2.38
			c1.38-0.75,5.83-2.96,6.99-3.6c1.16-0.65,2.89-1.41,4.21-2.2c1.32-0.78,3.18-1.51,4.54-2.35c1.35-0.84,1.96-1.09,2.8-1.51
			c0.83-0.42,0.51-0.27,1.06-0.55c0.35-0.18,1.54-0.58,2.6-0.95c-1.58,0.36-6.05,1.42-7.41,1.97c-1.66,0.67-6.59,1.89-8.99,2.75
			c-2.4,0.86-5.05,1.77-6.03,2.02c-0.99,0.24-2.22,0.55-2.22,0.55l1.3-2.15c0,0-1.42,0.61-2.49,1.01c-1.08,0.4-3.32,1.35-3.76,1.71
			c-0.43,0.37-1.66,0.67-2.25-0.1c-0.58-0.77-0.73-1.91-1.01-2.49c-0.28-0.59-0.46-2.37-0.46-2.37s-1.11,0.8-2.16,1.84
			c-1.05,1.04-2.77,2.52-2.77,2.52s-1.85,0.98-3.54,2.05c-1.69,1.07-2.55,0.76-2.55,0.76s-0.73-1.91-1.29-3.08
			c-0.55-1.17-0.95-3.29-0.95-3.29l-0.06-2.34c0,0-1.24,2.4-2.44,3.35c-1.2,0.95-2.16,0.8-2.16,0.8s-0.99,1.29-1.73,2.52
			c-0.74,1.23-1.91,1.78-1.91,1.78l-0.98-0.8l-0.49-1.97c0,0-0.68,2.52-1.33,3.6c-0.65,1.08-2.62,4.7-4.1,6.11
			c-1.48,1.41-2.37,2.55-3.85,2.91c-1.48,0.37-1.35-0.19-1.78-0.87c-0.43-0.68-1.16-2.59-0.64-4.15c0.53-1.57,0.66-4.21,0.66-4.21
			l-0.09-1.94l-1.48,1.41c0,0-0.37-0.43,0.38-2.71c0.74-2.27,0.25-3.2,0.44-4.55c0.19-1.35,0.35-3.35,0.47-3.91
			c0.12-0.55,0.41-3.1,0.41-3.1s-1.6,1.96-2.62,3.65c-1.02,1.69-1.79,2.27-2.87,3.71c-1.08,1.44-2.06,1.69-2.06,1.69L143.35,59
			c0,0,0,2.09-0.87,3.87c-0.87,1.78-2.65,3.01-2.65,3.01s-1.32-0.59-1.94-0.96c-0.61-0.37-1.01-1.45-1.01-1.45s-0.96,2.98-1.27,4.89
			c-0.31,1.91-1.67,4.86-1.95,5.32c-0.28,0.46-1.48,1.41-1.48,1.41s-0.55-0.12-1.48-0.68c-0.92-0.56-2.31-0.34-2.31-0.34l-1.07-0.65
			c0,0-0.5,2.21-0.47,3.9c0.03,1.69-0.32,4-0.38,6.89c-0.07,2.89-1.83,8.95-2.05,9.66c-0.22,0.7-2.07,4.82-3.15,6.27
			c-1.08,1.44-3.39,2.15-4.71,2.6c-1.32,0.46-1.23-0.74-1.75-1.26c-0.52-0.52-1.19-2.19-0.76-3.6c0.43-1.41,1.39-4.39,2.97-5.96
			c1.57-1.56,3.51-3.74,3.88-4.36c0.37-0.61,0.65-2.12,0.93-2.58c0.28-0.46,1.08-2.49,1.58-3.66c0.49-1.17,0.41-3.11,0.41-3.11
			l1.24-3.44c0,0-2.19,0.15-3.48,0.21c-1.29,0.06-2.83-0.87-2.83-0.87s0-2.09,0.31-2.95c0.31-0.86,0.93-3.63,1.58-5.75
			c0.65-2.12,0.68-3.57,0.93-4.67c0.25-1.11,0.25-3.2,0.25-3.2s-0.93,1.54-2.03,1.29c-1.11-0.25-2-0.16-2-0.16s0.16-2,0.56-4.06
			c0.4-2.06,0.44-3.51,0.56-4.06c0.12-0.55,0.56-3.01,0.56-3.01s-0.83,1.38-1.2,0.95c-0.37-0.43-0.18-1.78-0.02-2.74
			c0.16-0.95-0.42-2.77-0.17-4.92c0.25-2.15,0.32-4,0.26-5.29c-0.06-1.29-0.92-3.69-0.92-3.69l-1.41-2.53c0,0,0.03,0.25,0.04,0.69
			c0,0.01,0,0.01,0,0.02c0.13,0.62,0.07,0.27,0.28,1.01c0.21,0.74,0.15,0.51,0.37,1.61c0.22,1.1,0.43,0.82,0.29,2.11
			c-0.14,1.29-0.12,1.46-0.22,2.32c-0.1,0.87-0.09,2.09-0.46,3.05c-0.37,0.96-0.97,3.41-1.35,4.49c-0.38,1.08-0.63,2.51-1.32,4.29
			c-0.69,1.78-0.66,1.92-1.13,3.21c-0.47,1.29-0.62,1.86-0.9,2.96c-0.28,1.1-1.28,5.32-1.71,6.48c-0.43,1.16-1.36,4.61-1.89,6.14
			c-0.54,1.53-1.28,3.08-1.53,3.93c-0.24,0.85-0.71,2.65-1.09,3.73c-0.38,1.08-1.53,4.01-1.99,5.35c-0.46,1.34-0.83,3.23-1.33,4.82
			c-0.49,1.59-1.43,5.3-1.85,6.78c-0.43,1.48-0.91,3.11-1.28,4.62c-0.37,1.51-1.13,4.75-1.36,5.96c-0.23,1.21-1.09,5.2-1.4,6.67
			c-0.31,1.47-0.56,3.55-0.72,5.15c-0.16,1.6-0.87,6.87-1.07,8.41c-0.2,1.54-0.76,3.81-0.85,5.76c-0.1,1.95-0.24,4.29-0.08,4.54
			c0.16,0.25,0.7,0.57,3.35-1.14c2.65-1.71,5.23-2.93,7.98-4.67c2.74-1.73,6.01-2.81,9.86-5.49c3.85-2.68,6.08-3.69,8.03-4.94
			c1.95-1.25,5.86-3.78,7.82-5.56c1.96-1.78,6.16-4.03,7.73-5.09c1.56-1.06,6.71-4.16,9.46-6.43
			C150.44,97.83,153.68,95.85,154.84,95.09z"/>
		
			<linearGradient id="SVGID_4_" gradientUnits="userSpaceOnUse" x1="127.8147" y1="183.4628" x2="69.4166" y2="162.3131" gradientTransform="matrix(0.8563 0.5164 -0.5164 0.8563 109.426 -120.4388)">
			<stop  offset="0.0424" style="stop-color:#DF951E"/>
			<stop  offset="1" style="stop-color:#F9B231"/>
		</linearGradient>
		<path class="st3" d="M94.86,118.66c0.24-2.41,0.46-3.19,0.86-5.87c0.4-2.68,0.51-3.77,0.96-5.63c0.45-1.86,0.69-3.66,1.12-5.89
			c0.43-2.23,0.84-3.21,1.41-5.47c0.58-2.27,0.85-3.32,1.4-5.24c0.55-1.92,1.13-4.19,1.63-5.83c0.5-1.64,1.55-4.48,1.91-5.6
			c0.37-1.12,1.11-3.16,1.38-4.21c0.27-1.05,0.57-1.85,1.02-3.1c0.45-1.25,0.99-3.05,1.52-4.43c0.53-1.38,1.45-4.72,1.91-6.09
			c0.46-1.37,0.32-1.94,0.84-3.51c0.52-1.57,0.71-2.19,0.98-3.24c0.27-1.05,0.22-1.27,0.59-2.2c0.38-0.93,0.36-1,0.9-2.5
			c0.54-1.5,0.82-2.67,1.21-3.71c0.39-1.04,1.49-5,1.81-6.03c0.31-1.02,0.44-2.65,0.5-3.35c0.05-0.7,0.19-1.22,0.18-2.02
			c-0.01-0.79-0.09-0.96-0.17-1.74c-0.08-0.78-0.15-1.06-0.27-1.56c-0.12-0.5-0.36-1.13-0.43-1.71c-0.01-0.09-0.05-0.23-0.1-0.4
			l-0.01-0.02c0,0,0.18,1.78-0.16,4.09c-0.34,2.31-0.77,2.67-1.46,5.2c-0.68,2.52-1.49,4.55-1.86,5.16
			c-0.37,0.61-0.37,0.61-0.37,0.61l-0.64-3.11c0,0-0.37,1.66-0.9,3.23c-0.53,1.57-1.33,2.55-1.55,3.26
			c-0.22,0.71-1.29,0.06-1.29,0.06l-0.77-1.51c0,0-0.25,0.06-0.71,1.87c-0.46,1.81-1.02,3.78-1.76,5.01
			c-0.74,1.23-2.44,3.35-2.44,3.35s-0.21-1.38-1.5-1.33c-1.29,0.06-2-1.2-2-1.2l-0.15-2.18c0,0-0.77,1.63-1.08,3.53
			c-0.31,1.91-0.59,3.41-0.69,4.61c-0.1,1.2-0.37,2.71-0.59,4.46c-0.22,1.75-0.81,4.12-1.18,4.73c-0.37,0.62-1.88,0.33-1.88,0.33
			s-3.07-0.81-3.41-1.64c-0.34-0.83-2.67-1.82-2.67-1.82l-1.17-1.54l-0.55-1.17c0,0-0.59,2.37-0.84,3.47
			c-0.25,1.11,0.48,3.01,0.48,3.01l-0.46,0.77c0,0,0.3,2.28,0.52,3.66c0.21,1.38,0.3,3.32,0.3,3.32l-1.63-0.77c0,0-0.03,0.4,0,1.05
			c0.03,0.64,0.79,3.2,1.31,4.77c0.52,1.57,1.22,2.83,1.25,4.52c0.03,1.69-0.35,3.35-0.44,4.55c-0.09,1.2-0.9,3.23-0.9,3.23
			s-3.13-2.1-3.96-2.81c-0.83-0.71-2.98-2.01-4.33-3.24c-1.35-1.23-3.5-2.53-3.5-2.53s-0.09,1.2,0.18,1.78
			c0.28,0.58-0.31-0.19-0.95-0.16c-0.65,0.03-3.04-2.25-4.3-3.64c-1.26-1.39-2.52-1.73-3.68-3.27c-1.17-1.54-2.95-3.45-2.95-3.45
			l-2.09-2.1c0,0,0,0.12,0,0.33c0.07,0.36,0.12,0.17,0.3,0.85c0.19,0.73,0.37,1.25,0.61,1.75c0.23,0.5,0.65,1.67,0.95,3.07
			c0.31,1.4,1.69,2.54,2.05,3.86c0.36,1.31,2.88,4.29,3.2,5.28c0.32,0.98,3.35,5.24,3.67,5.56c0.32,0.32,2.58,3.44,2.79,4.11
			c0.2,0.67,5.47,8.17,6.07,8.89c0.6,0.72,4.71,6,4.71,6s6.6,8.72,7.01,9.15c0.41,0.43,2.01,2.92,2.44,3.11
			c0.43,0.2,0.93-0.23,1-1.65C94.12,124.42,94.62,121.07,94.86,118.66z"/>
		
			<linearGradient id="SVGID_5_" gradientUnits="userSpaceOnUse" x1="229.7239" y1="188.773" x2="142.4447" y2="157.1635" gradientTransform="matrix(0.8563 0.5164 -0.5164 0.8563 109.426 -120.4388)">
			<stop  offset="0.0424" style="stop-color:#DF951E"/>
			<stop  offset="1" style="stop-color:#F9B231"/>
		</linearGradient>
		<path class="st4" d="M189.84,164.95c-0.71-0.22-2.86-1.51-2.86-1.51l-0.89,0.09l0.43-1.41c0,0-0.92,0.49-1.69,0.03
			c-0.77-0.46-3.01-1.61-3.01-1.61l0.1-1.2l0.62-0.67c0,0-1.2-0.1-2.12-0.65c-0.92-0.56-2.49-1.08-3.72-1.82
			c-1.23-0.74-2.58-0.93-2.58-0.93l-1.97-0.56c0,0,0.18-0.31,0.96-1.94c0.77-1.63,1.45-2.06,1.45-2.06s0.12-0.56-0.89-0.96
			c-1.01-0.4-2.52-0.68-2.52-0.68l0.4-1.01c0,0-0.74,0.18-2.09,0c-1.35-0.19-3.14-0.01-3.14-0.01l1.3-1.1c0,0-0.96-0.16-2.15-0.25
			c-1.2-0.09-3.84-0.22-4.55-0.44c-0.71-0.22-3.23-0.9-3.23-0.9s0.92-0.49,1.33-1.5c0.4-1.01,0.74-2.27,1.36-2.95
			c0.62-0.68,1.73-1.47,1.73-1.47s-0.89,0.09-1.6-0.13c-0.71-0.22-1.48-0.68-2.27-0.74c-0.8-0.06-2.09-0.01-2.09-0.01
			c0.25-1.11,0.46-1.81,0.46-1.81l-2.77,0.42c0,0-2.18,0.15-2.65-0.13c-0.46-0.28-0.24-0.99-0.24-0.99s-1.35-0.19-2.34,0.06
			c-0.99,0.24-2.71,0.67-3.85,0.82c-1.14,0.15-2.12-0.65-3.72-0.78c-1.6-0.13-4.55-0.44-5.81-0.78c-1.26-0.34-2.24-1.14-3.07-1.85
			c-0.83-0.71-2.42-2.93-2.42-2.93s1.05-1.04,2.59-2.21c1.54-1.17,3.91-1.62,5.45-1.74c1.54-0.12,4.24,0.25,5.54,0.2
			c1.29-0.06,4.15,0.41,5.9,0.63c1.75,0.22,2.58,0.93,4.79,1.43c2.21,0.5,3.29,1.15,3.29,1.15l-0.86-1.36c0,0,1.66,0.37,2.67,0.78
			c1.01,0.4,1.01,0.4,2.28,0.74c1.26,0.34,2.46,0.44,2.46,0.44s-0.77-0.46-1.07-1.69c-0.3-1.23-0.4-2.12-0.42-2.77
			c-0.03-0.65-0.46-1.32-0.46-1.32s0.89-0.09,2.49,0.04c1.6,0.13,2.89,0.07,4.64,0.29c1.75,0.22,2.03,0.8,3.72,0.78
			c1.69-0.03,1.82,0.46,2.71,0.37c0.89-0.09,1.6,0.13,1.6,0.13s-1.23-0.74-1.32-1.63c-0.09-0.89-0.67-1.66-0.67-1.66
			s1.48-0.37,2.61-0.52c1.14-0.15,3.02-0.49,4.31-0.54c1.29-0.06,2.37-0.46,2.37-0.46l-0.83-0.71c0,0,1.6,0.13,3.32-0.3
			c1.72-0.43,2.62-0.52,3.88-1.22c1.26-0.7,3.36-1.74,3.36-1.74s-2.59,0.12-3.14-0.01c-0.55-0.12-1.38-0.83-2.34-0.99
			c-0.95-0.16-2.21-0.5-2.21-0.5s0.22-0.71-0.58-0.77c-0.8-0.06-1.6-0.13-2.61-0.53c-1.01-0.4-2.06-1.45-2.06-1.45l0.89-1.13
			c0,0-0.37-0.43-1.32-0.59c-0.95-0.16-2.09-1.05-3.1-1.45c-1.01-0.4-2.74-1.02-3.35-1.39c-0.61-0.37-3.41-1.64-3.41-1.64
			s0.81-0.99,2.07-1.69c1.26-0.7,2.68-1.32,4.49-1.9c1.82-0.58,3.6-0.76,4.03-1.13c0.43-0.37,0.37-0.61,1.63-1.32
			c1.26-0.7,3.29-0.95,3.29-0.95l-1.14-0.89c0,0,0.12-0.55,2.28-1.35c2.16-0.8,3.85-0.82,3.85-0.82l-1.14-0.9
			c0,0,2.4-0.86,3.14-1.04c0.74-0.18,1.91-0.73,2.55-0.76c0.65-0.03,1.63-0.27,1.63-0.27s-1.85-0.07-2.92-0.71
			c-1.08-0.65-3.16-1.7-4.79-2.47c-1.63-0.77-3.38-2.04-4.15-2.5c-0.77-0.46-1.38-0.83-1.38-0.83s1.57-1.57,2.44-2.3
			c0.86-0.74,1.97-1.53,3.42-2.55c1.45-1.01,1.85-2.02,3.33-2.39c1.48-0.37,3.97-1.38,3.97-1.38l1.45-1.01c0,0-2,0.89-3.08,0.24
			c-1.08-0.65-1.47-1.73-1.47-1.73s-0.43-0.68,0.19-1.35c0.62-0.67,2.44-2.3,3.79-3.16c1.36-0.86,3.45-1.9,3.88-2.27
			c0.43-0.37,1.57-1.56,1.57-1.56L201,68.64c0,0,1.14-1.2,2.16-1.84c1.02-0.64,3.76-2.76,5.21-3.77c1.45-1.01,3.98-2.42,5.67-3.49
			c1.69-1.07,4.4-2.79,4.4-2.79l1.11-0.8c0,0-0.86,0.19-2.02,0.47c-1.09,0.46-2.36,1.05-3.5,1.7c-2.79,1.6-13.25,6.85-15.45,8.08
			c-2.2,1.23-8.46,4.75-10.64,5.75c-2.18,1-4.44,2.66-6.45,4.01c-2.01,1.35-5.41,3.56-7.4,5.04c-1.99,1.48-4.26,3.03-6.3,4.59
			c-2.04,1.57-5.56,3.58-7.51,5.2c0,0-3.67,2.74-5.43,4.31c-1.76,1.57-4.71,3.56-7.15,5.01c-2.43,1.45-7.6,4.78-9.09,5.83
			c-1.49,1.05-4.74,3.22-6.57,4.43c-1.83,1.21-3.42,2.44-5.46,4.01c-2.04,1.57-3.15,1.99-4.78,3.08c-1.63,1.09-6.32,4.22-7.44,4.88
			c-1.13,0.66-5.68,2.75-9.57,5.28c-3.9,2.53-4.88,2.55-7.47,4.02c-2.59,1.48-3.65,1.81-4.2,2.33c-0.55,0.52,0.34,0.45,1.53,1.29
			c1.19,0.84,3.8,2.78,5.71,3.44c1.91,0.66,5.44,2.67,6.85,3.16c1.41,0.49,4.6,2.05,6.12,2.36c1.52,0.31,8.34,2.72,9.19,3.11
			c0.86,0.4,7.19,2.89,8.25,3.1c1.06,0.21,6.7,2.15,8.24,2.83c1.54,0.68,7.23,3.03,8.13,3.21c0.9,0.17,4.69,0.75,5.83,1.08
			c1.14,0.32,5.39,1.55,6.18,1.66c0.79,0.11,4.53,1.15,5.96,1.41c1.43,0.25,5.46,1.23,6.78,1.66c1.32,0.43,4.02,0.6,5.21,0.83
			c1.2,0.23,3.77,1.42,4.59,1.67c0.82,0.25,4.35,1.65,5.32,1.87c0.96,0.22,4.02,0.6,5.3,0.89c1.29,0.29,2.48,0.52,3.55,0.56
			c0.63,0.02,1.51,0.06,2.36-0.03c0.32-0.13,0.54-0.22,0.54-0.22s-3.91-0.47-4.67-0.93C193.34,166.44,190.54,165.17,189.84,164.95z"
			/>
		
			<linearGradient id="SVGID_6_" gradientUnits="userSpaceOnUse" x1="116.2725" y1="227.323" x2="54.2061" y2="204.8447" gradientTransform="matrix(0.8563 0.5164 -0.5164 0.8563 109.426 -120.4388)">
			<stop  offset="0.0424" style="stop-color:#DF951E"/>
			<stop  offset="1" style="stop-color:#F9B231"/>
		</linearGradient>
		<path class="st5" d="M93.7,128.48c0.07-0.87-0.64-0.75-1.14-1.42c-0.5-0.67-1.2-2.08-1.7-2.75c-0.5-0.67-1.8-1.99-2.52-3.06
			c-0.72-1.07-2.34-2.59-2.9-3.48c-0.56-0.88-2.61-3.66-3.18-4.37c-0.57-0.71-2.22-2.79-2.41-3.09c-0.19-0.29-2.26-2.73-2.78-3.68
			c-0.52-0.95-2.36-3.33-2.79-3.96c-0.44-0.63-1.14-1.87-1.58-2.5c-0.44-0.63-1.6-2.33-2.03-2.96c-0.44-0.63-1.26-1.67-1.41-2.03
			c-0.15-0.36-1.24-1.57-1.73-2.86c-0.49-1.3-1.86-2.94-2.87-4.73c-1.01-1.79-1.94-3.26-2.67-4.61c-0.73-1.35-1.31-3.25-1.8-4.54
			c-0.49-1.3-0.58-1.44-0.76-2.36c-0.03-0.17-0.07-0.35-0.12-0.54l-0.03-0.03c0,0-0.07,1.85,0.36,4.61c0.42,2.77,0.42,4.86,0.6,5.6
			c0.18,0.74,1.22,3.88,1.22,3.88s-0.68,0.43-1.38,0.21c-0.71-0.22-1.6-0.13-1.6-0.13s0.83,0.71,1.93,2c1.1,1.3,1.68,3.11,1.56,3.66
			c-0.12,0.55,1.66,2.47,1.75,3.36c0.09,0.89,0.92,2.65,0.92,2.65s-2,0.89-2.93,1.38c-0.92,0.49-2.65,0.92-2.65,0.92l-1.75-0.22
			c0,0,2.36,1.64,3.99,2.41c1.63,0.77,2.98,2.01,3.5,2.53c0.52,0.52,0.46,1.32,0.46,1.32l-1.35-0.19c0,0,2.89,2.16,4.67,3.03
			c1.78,0.87,3.47,2.93,3.84,3.36c0.37,0.43,0.92,1.6,0.92,1.6s-0.95-0.15-2.68,1.32c-1.73,1.47-2.13,1.44-2.71,1.72
			c-0.59,0.28-2.22,0.55-2.22,0.55s1.88,0.71,2.8,1.27c0.92,0.56,1.6,1.17,1.6,1.17s-1.11,0.8-0.52,0.52
			c0.58-0.28,3.26-0.55,3.26-0.55l1.93,0.96l-1.17,0.55c0,0,2.31,0.34,3.57,0.69c1.26,0.34,2.74,1.02,4.33,1.15
			c1.6,0.13,3.63,0.93,4.98,1.12c1.35,0.19,3.35,0.34,4.18,1.05c0.83,0.71,0.52,1.57,0.98,2.89c0.2,0.57,0.36,1.29,0.49,1.93
			c0.52-0.4,0.98-1.14,1.25-1.81C93.77,131.07,93.63,129.35,93.7,128.48z"/>
		
			<linearGradient id="SVGID_7_" gradientUnits="userSpaceOnUse" x1="173.7638" y1="259.1106" x2="113.7484" y2="237.3751" gradientTransform="matrix(0.8563 0.5164 -0.5164 0.8563 109.426 -120.4388)">
			<stop  offset="0.0424" style="stop-color:#DF951E"/>
			<stop  offset="1" style="stop-color:#F9B231"/>
		</linearGradient>
		<path class="st6" d="M93.74,142.27c0,0-0.73,0.73-1.85,3.55c-1.12,2.82-1.76,3.89-2.37,5.86c-0.6,1.97-1.55,2.56-1.55,2.56
			l0.94-0.6c0,0,0.64,0.39,0.04,2.35c-0.6,1.97-1.08,3.72-1.08,3.72c0.6,0.94,0.34,2.82,0.34,2.82l-0.04,1.55
			c0.1-0.33,0.42-0.8,1.36-1.33c1.76-0.98,2.05-0.51,3.34-1.19c1.29-0.68,1.29-0.68,1.29-0.68s1.27,1.18,1.3,2.87
			c0.03,1.69,0.02,2.74,0.14,4.28c0.12,1.54,0.49,0.92,0.7,2.31c0.21,1.38-0.1,1.2,0.52,2.61c0.61,1.42,0.61,1.42,0.61,1.42
			s-0.03,0.4,0.61,2.46c0.64,2.06,1.07,2.74,1.07,2.74s-0.49-0.92,0.53-1.57c1.02-0.64,1.39-1.26,2.03-1.29
			c0.65-0.03,0.86-0.74,0.86-0.74s0.49,0.92,1.35,2.28c0.86,1.36,1.29,2.03,2.55,3.42c1.26,1.39,0.95,1.2,1.84,2.16
			c0.89,0.95,1.63,1.82,1.63,1.82l0.5-1.17c0,0,0.16-0.95,0.95,0.16c0.8,1.11,0.83,1.76,1.69,3.11c0.86,1.36,0.83,0.71,1.93,2
			c1.1,1.29,1.07,1.69,2.18,2.99c1.1,1.29,2.3,2.43,2.3,2.43s-0.02-0.08-0.06-0.26c-0.31-0.63-0.66-1.26-0.96-1.9
			c-0.48-1.02-0.09-1.27-0.89-2.97c-0.8-1.7-0.82-2.68-1.54-4.1c-0.73-1.41-1.53-3.11-2.17-4.47c-0.64-1.36-1.33-2.63-2.12-3.95
			c-0.78-1.32-1.69-2.24-2.19-3.63c-0.5-1.39-1.12-2.99-1.53-4.33c-0.41-1.34-0.92-2.5-1.49-3.58c-0.57-1.07-1.63-3.54-2.33-4.81
			c-0.69-1.27-0.71-2.86-1.13-3.97c-0.43-1.11-1.4-4.74-2.09-6.61c-0.69-1.88-1.78-4.11-2.22-5.6c-0.44-1.48-1.56-4.47-1.83-5.85
			c-0.26-1.38-0.53-2.15-1.12-2.98c-0.59-0.84-1.84-1.59-2.19-1.81c-0.36-0.21-1.31,0.55-1.2,0.96
			C92.39,135.34,95.72,137.06,93.74,142.27z"/>
		
			<linearGradient id="SVGID_8_" gradientUnits="userSpaceOnUse" x1="59.1032" y1="197.8447" x2="223.4277" y2="197.8447" gradientTransform="matrix(0.8563 0.5164 -0.5164 0.8563 109.426 -120.4388)">
			<stop  offset="0.0424" style="stop-color:#DF951E"/>
			<stop  offset="1" style="stop-color:#F9B231"/>
		</linearGradient>
		<path class="st7" d="M46.14,189.62c0,0,2.63,2.64,4.33,2.61c1.7-0.03,1.05-1.05,1.52-1.82c0.47-0.77,2.18-5.01,4.57-8.63
			c2.39-3.62,9.45-16.02,14.17-22.44c4.72-6.43,11.89-14.12,15.55-17.4c3.66-3.27,5.59-6.12,6.73-6.27c0,0,0.58-0.13,1.2,0.24
			c0.62,0.38,1.01,0.55,1.31,0.85c0.3,0.3,0.5,0.48,0.57,0.77c0.07,0.29,0.12,0.5,0.32,1.29c0.19,0.79,0.37,1.8,0.37,1.8
			s-1.21,1.1-1.57,1.61c-0.37,0.51-1.27,1.91-1.49,2.27c-0.21,0.36-0.74,1.13-0.74,1.13s0.82-0.85,1.11-1.34
			c0.3-0.49,0.96-1.49,1.29-1.84c0.33-0.35,1.08-0.99,1.32-1.09c0.24-0.1,0.34-0.16,0.46,0.34c0.12,0.5,0.38,1.39,0.57,1.98
			c0.19,0.6,0.53,1.54,0.53,1.54l0.1,0.54c0,0-0.57,1.05-1,1.77c-0.43,0.71-2.08,3.55-2.46,4.18c-0.38,0.62-1.6,2.75-2.1,3.48
			c-0.5,0.73-1.32,2.19-1.83,3.03c-0.51,0.85-1.74,3.09-1.74,3.09s1.46-2.22,2.04-3.09c0.58-0.87,2.15-3.57,2.66-4.42
			c0.51-0.85,2.18-3.31,2.72-4.2c0.54-0.89,1.57-2.4,1.73-2.67c0.16-0.27,0.4-0.06,0.4-0.06s0.8,1.4,1.15,2.33
			c0.35,0.94,0.74,2.4,0.99,3.09c0.25,0.7,0.51,1.28,0.76,2.16c0.26,0.88,0.35,1.13,0.35,1.13s-0.04-0.33-0.79,0.5
			c-0.74,0.83-1.63,1.69-2.31,2.62c-0.68,0.93-0.87,1.24-1.26,2.28c-0.39,1.04-0.65,1.98-0.71,2.79c-0.06,0.81-0.18,2.51-0.18,2.51
			s0.18-2.02,0.44-2.96c0.26-0.94,0.57-2.46,1.2-3.41c0.64-0.95,1.59-2.02,2.12-2.61c0.54-0.59,1.57-1.3,1.57-1.3
			s0.15,0.15,0.29,0.72c0.14,0.57,0.5,1.39,0.71,1.95c0.21,0.55,0.42,1.53,0.42,1.53s-0.38,0.44-1,1.95
			c-0.61,1.52-1.84,3.76-2.18,4.83c-0.34,1.07-0.93,2.85-1.28,4.03c-0.35,1.19-0.56,4.46-0.24,5.94c0,0,0.1-1.58,0.23-2.6
			c0.13-1.02-0.06-1.92,0.36-3.31c0.41-1.39,0.76-2.77,1.38-4.21c0.63-1.44,0.99-2.45,1.75-3.81c0.76-1.36,1.18-1.96,1.18-1.96
			s0.92,1.71,1.1,2.31c0.19,0.6,1.25,2.58,1.56,3.37c0.31,0.79,0.72,1.83,0.72,1.83s-0.05,0.09-0.55,1.01
			c-0.49,0.92-1.05,1.74-1.61,2.87c-0.56,1.12-1.28,3.12-1.28,3.12s0.57-1.24,1.4-2.62c0.83-1.38,1.6-2.75,1.86-3.08
			c0.26-0.33,0.26-0.33,0.26-0.33s0.53,0.44,0.83,1.35c0.3,0.91,0.42,1.23,0.82,2.07c0.4,0.85,0.71,1.65,0.71,1.65
			s0.2-0.13-0.14,0.64c-0.34,0.77-0.72,2-1.04,3.14c-0.32,1.14-0.56,2.04-0.55,2.53c0.01,0.49,0.11,1.22,0.11,1.22
			s0.06-1.3,0.19-1.83c0.14-0.53,0.5-2.13,0.85-3.02c0.35-0.88,0.92-2.12,0.92-2.12s0.31,0.49,0.59,1.15
			c0.28,0.65,1.17,1.49,1.51,2.24c0.34,0.75,1.33,2.33,1.88,3.44c0.54,1.12,0.94,1.66,1.65,3.31c0.71,1.65,0.84,2.33,1.33,3.54
			c0.49,1.21,0.9,2.74,0.99,3.09c0.09,0.36,0.67,1.62,0.67,1.62s-1.19-4.98-2.14-7.25c-0.94-2.27-3.12-6.32-3.55-7.13
			c-0.43-0.81-1.87-3.26-2.34-4.09c-0.47-0.83-1.38-2.96-1.86-4.28c-0.48-1.32-1.29-3.21-1.29-3.51c0-0.3,0.04-0.16,0.63-0.04
			c0.6,0.12,1.29,0.48,2.27,0.88c0.97,0.4,2.52,1.46,3.82,2.24c1.29,0.78,2.02,1.59,3,2.48c0.98,0.9,1.62,2.26,1.62,2.26
			s-0.08-1.99-3.73-4.5c-3.66-2.51-5.37-3.3-6.4-3.61c-1.03-0.32-1.48-0.47-1.48-0.47s-1.62-3.17-1.79-3.69
			c-0.17-0.53-0.94-1.66-1.12-2.38c-0.18-0.71-0.59-1.45-0.73-2.32c-0.14-0.88-0.81-2.49-0.81-2.49s-0.84-2.75-1.11-3.71
			c-0.27-0.96-0.54-2.03-0.54-2.03s-0.12-0.31,1.21-0.18c1.32,0.13,2.02,0.18,2.81,0.48c0.79,0.3,1.54,0.57,2.44,0.8
			c0.89,0.23,2.19,1.01,2.19,1.01s-1.16-1-2.29-1.44c-1.13-0.44-1.89-0.59-2.58-0.77c-0.69-0.17-1.3-0.36-2.04-0.44
			c-0.74-0.08-1.62,0.06-1.87-0.03c-0.25-0.09-0.39-0.36-0.64-1.06c-0.25-0.7-1.15-2.82-1.47-3.92c-0.31-1.1-0.98-2.9-1.25-3.98
			c-0.27-1.07-0.6-1.82-0.66-2.34c-0.05-0.52-0.1-0.85,0.18-0.8c0.28,0.05,0.62,0.38,1.29,0.78c0.67,0.4,2.76,1.48,4.24,2.25
			c1.48,0.77,3.11,1.39,4.41,1.87c1.29,0.48,2.65,1.05,3.63,1.34c0.98,0.29,2.62,0.91,2.44,0.99c-0.17,0.08-0.07,0.32-0.24,1.62
			c-0.17,1.3-0.19,3.05-0.24,3.93c-0.05,0.88,0.1,1.65,0.2,2.8c0.1,1.15,0.47,1.74,0.86,2.41c0.39,0.66,0.79,1.21,0.79,1.21
			s-0.65-1.24-1.01-2.25c-0.36-1.01-0.48-1.93-0.55-2.82c-0.07-0.89,0.04-2.29,0.18-3.12c0.14-0.83,0.1-2.19,0.2-2.55
			c0.1-0.37,0.25-1.13,0.25-1.13s0.88,0.16,1.51,0.42c0.63,0.26,1.72,0.67,1.97,0.76c0.25,0.09,0.78,0.53,0.78,0.53
			s0.48,0.41,0.67,1.31c0.19,0.9,0.62,2.2,1.15,3.13c0.53,0.93,0.83,1.35,1.56,2.46c0.73,1.11,1.14,2.75,2.05,3.97
			c0.91,1.22,1.63,2.14,2.21,3.1c0.58,0.96,1.92,3.17,1.92,3.17s-1.13-2.57-1.87-3.56c-0.74-0.99-1.76-2.52-2.14-3.11
			c-0.37-0.59-1.08-2.05-1.41-2.61c-0.33-0.56-0.52-1.16-0.96-1.73c-0.45-0.57-0.85-1.31-1.14-2.15c-0.28-0.84-0.84-1.54-0.86-2.4
			c-0.03-0.87,0.12-1.21,0.12-1.21s0.67,0.1,1.76,0.51c1.09,0.41,3.28,1.12,3.76,1.23c0.48,0.11,2.34,0.86,2.34,0.86
			s0.41,0.13,0.59,0.54c0.18,0.41,1.31,3.28,1.88,4.24c0.58,0.96,1.88,3.75,2.56,4.83c0.69,1.08,1.6,2.79,2.3,3.94
			c0.7,1.15,1.84,3.3,2.49,4.54c0.65,1.24,1.88,3.93,2.26,4.83c0.37,0.89,1.68,3.87,2.07,4.84c0.39,0.97,1.4,3.52,1.4,3.52
			s-0.48-2.23-1.64-4.64c-1.16-2.41-2.69-6.73-3.83-8.88c-1.14-2.15-3.33-6.39-4.68-8.78c-1.35-2.4-2.21-3.89-2.57-4.71
			c-0.36-0.82-0.81-2.19-1.02-2.74c-0.21-0.55-0.39-0.97-0.16-0.95c0.23,0.02,1.46,0.4,2.2,0.6c0.73,0.2,3.31,1.27,4.35,1.65
			c1.04,0.39,2.81,1.09,3.44,1.35c0.63,0.26,2.5,0.9,2.5,0.9s0.17,1.13,0.27,2.17c0.11,1.04,0.59,2.36,0.96,3.56
			c0.37,1.2,1.11,2.8,1.53,4.02c0.42,1.23,0.64,2.27,0.64,2.27s0.15-1.55-0.36-2.53c-0.51-0.98-1.18-3.08-1.36-3.8
			c-0.18-0.71-0.61-2.62-0.74-3.12c-0.12-0.5-0.35-0.94-0.37-1.5c-0.03-0.56-0.04-0.94,0.21-0.85c0.25,0.09,1.58,0.41,2.36,0.82
			c0.79,0.41,2.39,0.77,2.93,1.1c0.54,0.32,1.24,0.57,1.24,0.57s-0.04-0.14,0.56,0.89c0.6,1.03,1.39,2.54,2,3.34
			c0.62,0.8,1.32,2.25,2.2,2.91c0.88,0.65,1.76,1.43,2.47,2.16c0.71,0.73,1.99,1.75,2.6,2.54c0.61,0.8,1.94,2.02,2.71,2.97
			c0.77,0.95,1.68,2.05,2.67,2.34c0,0-0.96-0.82-2.39-2.6c-1.43-1.77-2.53-2.86-2.99-3.2c-0.46-0.34-1.86-1.85-2.36-2.34
			c-0.5-0.48-1.84-1.78-2.24-2.14c-0.39-0.36-1.23-1.29-1.93-2.44c-0.7-1.15-1.45-2.03-1.76-2.83c-0.31-0.8-1.06-1.07-0.7-1.46
			c0.36-0.39,0.55-0.1,1.46,0.09c0.92,0.19,2.94,0.68,4.34,0.97c1.4,0.3,3.46,1.12,4.5,1.31c1.04,0.2,1.88,0.52,1.88,0.52
			s0.1,0.24,0.34,1.24c0.25,1,0.32,1.89,1.13,2.87c0.81,0.98,1.31,1.76,1.88,2.23c0.57,0.47,1.16,1.31,3,1.99
			c0,0-1.95-1.3-2.71-2.06c-0.76-0.76-1.08-1.44-1.54-2.08c-0.46-0.65-0.83-1.35-1.08-2.24c-0.26-0.88-0.35-1.85-0.35-1.85
			s1.39,0.11,2.14,0.38c0.75,0.27,3.12,0.67,3.44,0.86c0.31,0.19,1.04,0.39,1.04,0.39s0.04,0.14,0.69,1.57
			c0.66,1.43,1.51,2.43,2.19,3.33c0.68,0.89,1.83,1.71,2.3,2.24c0.47,0.53,1.74,1.05,1.74,1.05s-1.45-1.12-2.26-1.91
			c-0.8-0.79-1.83-2.01-2.32-2.61c-0.49-0.6-0.94-1.48-1.21-2.13c-0.27-0.65-0.6-1.52-0.6-1.52s1.52,0.31,2.04,0.44
			c0.53,0.14,1.7,0.41,3.49,0.77c1.79,0.35,3.97,0.87,5.49,1.49c1.52,0.61,3.95,1.22,5.42,1.81c1.47,0.58,4.36,1.23,5.69,1.55
			c1.33,0.32,4.96,0.25,4.96,0.25s-4.55-0.62-5.33-0.84s-3.37-0.76-4.83-1.27c-1.46-0.51-5.31-1.68-6.83-2.29
			c-1.52-0.61-4.18-1.24-7.12-1.8c-2.95-0.56-3.67-1.18-6.04-1.58c-2.37-0.4-4.13-0.61-6.14-1.21c-2.01-0.6-6.38-2.02-6.38-2.02
			l-1.12-0.37c0,0,2-1.1,2.81-1.53c0.8-0.43,3.03-1.39,5.07-2.05c2.04-0.66,2.29-0.87,4.72-1.17c2.43-0.3,2.88-0.15,4.92-0.5
			c2.04-0.35,3.6-0.63,3.6-0.63s-4.7,0.33-6.33,0.5c-1.63,0.18-4.16,0.65-6,1.07c-1.83,0.42-3.81,1.17-5.13,1.65
			c-1.32,0.48-2.91,1.29-3.94,2c-1.04,0.71-1.23,0.53-1.51,0.49c-0.28-0.05-2.35-0.44-3.13-0.67c-0.78-0.23-1.77-0.4-2.41-0.85
			c-0.64-0.45-1.55-0.75-1.55-0.75s0.54-1.19,1.85-2.35c1.31-1.16,1.89-1.42,3.66-2.23c1.77-0.82,3.72-1.23,5.45-1.58
			c1.73-0.35,3.33-0.49,4.31-0.69c0.97-0.2,2.73-0.3,2.73-0.3s-2.83,0.06-3.66,0.22c-0.83,0.17-3.11,0.31-3.78,0.52
			c-0.67,0.2-2.82,0.55-4.17,1.07c-1.35,0.52-2.64,0.84-3.67,1.56c-1.04,0.71-1.92,1.76-2.56,2.53c-0.64,0.77-1.11,1.03-1.11,1.03
			s-2.23-0.74-2.95-1.05c-0.72-0.31-6.4-2.4-6.98-2.75c-0.58-0.35-1.81-0.42-1.81-0.73c0-0.3,1.79-1.35,2.76-2.05
			c0.97-0.69,2.92-1.71,4.44-2.13c1.53-0.42,1.17-0.02,3.85-1.14c2.68-1.12,3.5-1.48,5.83-1.9c2.32-0.42,3.83-0.3,5.87-0.66
			c2.04-0.35,2.89-0.75,4.15-1.03c1.26-0.27,2.91-0.8,2.91-0.8s-2.21,0.43-3.18,0.64c-0.97,0.2-2.86,0.71-4.21,0.93
			c-1.35,0.22-3.22,0.19-4.21,0.32c-0.99,0.13-2.92,0.31-3.84,0.72c-0.92,0.42-3.04,0.91-4.37,1.5c-1.33,0.6-2.49,0.81-3.5,1.17
			c-1.01,0.36-1.93,0.48-3.63,1.58c-1.7,1.1-2.86,1.92-3.23,2.13c-0.37,0.2-0.94,0.35-1.13,0.35c-0.19,0.01-6.29-2.27-8.58-2.92
			c-2.28-0.65-4.47-1.66-4.91-1.74c-0.44-0.08-0.86-0.4-0.86-0.4s2.31-2.01,3.93-3.89c1.62-1.88,2.2-2.75,2.8-3.84
			c0.6-1.1,1.42-3.16,1.42-3.16s-1.53,2.85-2.32,3.95c-0.79,1.11-0.97,1.61-2.78,3.5c-1.81,1.89-3.42,3.05-3.42,3.05
			s-0.54-0.02-1.09-0.11c-0.55-0.09-3.9-1.2-5.2-1.86c-1.3-0.66-4.57-1.9-5.06-2.2c-0.49-0.3-4.4-2.29-4.84-2.56
			c-0.45-0.27-2.92-2.01-3.6-2.29c-0.68-0.29-1.2-0.23,0.1-0.97c1.3-0.74,4.29-2.28,5.98-3.26c1.69-0.99,3.29-1.73,4.67-2.6
			c1.38-0.87,4.85-2.91,5.71-3.31c0.85-0.4,2.66-1.38,2.66-1.38s0.61,0.61,1.11,0.98c0.51,0.37,1.36,1.18,2.79,1.62
			c1.44,0.44,2.09,0.77,3.2,1.26c1.11,0.48,2.25,1.11,3.47,1.61c1.22,0.49,3.62,0.96,3.62,0.96s-2.9-1.14-3.36-1.29
			c-0.46-0.15-2.03-0.67-2.45-0.99c-0.42-0.31-2.51-1.09-3.23-1.4c-0.72-0.32-1.63-0.62-2.2-1.09c-0.57-0.47-1.43-1.16-1.72-1.59
			c-0.29-0.42-0.16-0.34,0.37-0.81c0.53-0.47,5.09-3.5,6.77-4.67c1.68-1.18,3.9-2.33,4.29-2.58c0.39-0.25,1.19-0.56,1.4-0.61
			c0.21-0.05,1,0.36,2.43,0.61c1.43,0.25,4.93,0.6,6.3,0.76c1.37,0.15,6.43,0.84,7.59,0.93c1.16,0.09,1.5,0.24,1.5,0.24
			s-0.01,0.42,0.85,1.91c0.86,1.49,1.24,1.78,2.82,2.98c1.59,1.2,3.17,2.21,4.44,2.92c1.28,0.71,2.74,1.41,3.81,2.05
			c1.07,0.64,2.56,1.6,2.89,1.86c0.33,0.26,1.51,1.03,1.51,1.03s-1.41-1.09-2.59-2.05c-1.19-0.96-2.12-1.22-2.9-1.75
			c-0.78-0.53-2.74-1.41-3.44-1.96c-0.7-0.55-2.5-1.81-3.11-2.3c-0.61-0.49-2.02-1.4-2.32-2.01c-0.3-0.61-1.03-1.72-1.11-2.19
			c-0.08-0.47-0.03-0.75,0.13-0.71c0.16,0.03,2.21,0.36,3.87,0.14c1.65-0.22,4.65-0.05,6.75,0c2.1,0.05,4.2,0.1,5.17,0.2
			c0.97,0.1,1.67,0.16,1.67,0.16s0.21-0.05,0.72,0.62c0.51,0.67,1.88,2.23,2.57,2.89c0.69,0.66,1.92,1.95,2.58,2.28
			c0.65,0.33,1.77,1,2.67,1.43c0.9,0.42,2.35,1.05,2.35,1.05s-1.72-0.98-2.48-1.43c-0.76-0.46-2.73-1.22-3.27-1.85
			c-0.53-0.63-1.95-1.91-2.61-2.73c-0.66-0.82-1.08-1.74-1.27-1.92c-0.2-0.18-0.39-0.36,0.01-0.42c0.4-0.06,2.07,0.09,4.34,0.06
			c2.27-0.03,4.78,0.45,6.84,0.66c2.06,0.21,4.79,0.64,6.8,0.82c2.02,0.18,3.47,0.2,4.85,0.13c1.39-0.08,2-0.19,2.23-0.17
			c0.23,0.02,1.15-0.4,1.15-0.4s-2.76,0.34-4.14,0.3c-1.38-0.04-5.26-0.25-6.09-0.39c-0.83-0.14-4.29-0.64-5.22-0.72
			c-0.93-0.07-5.59-0.82-6.6-0.75c-1.01,0.06-4.66-0.14-5.65-0.12c-0.98,0.02-3.67-0.27-5.12-0.29c-1.45-0.02-5.99-0.15-7.02-0.16
			c-1.03-0.01-3.74,0.05-5.36,0.11c-1.62,0.06-5.44-0.36-6.31-0.52c-0.88-0.16-3.49-0.16-5.12-0.59c-1.62-0.43-3.77-1-4.81-1.2
			c-1.04-0.2-2.11,0.07-1.4-0.6c0.71-0.67,3.29-2.64,5.32-4.09c2.03-1.45,4.44-2.73,6.48-4.18c2.03-1.45,3.65-2.12,5.41-3.43
			c1.76-1.31,3.29-2.33,3.29-2.33s0.68,0.59,1.85,1.17c1.17,0.58,2.96,1.54,4.42,2.05c1.45,0.51,2.94,1.17,4.53,1.76
			c1.59,0.59,4.44,1.71,6.32,1.93c1.87,0.22,3.84,0.49,3.84,0.49s-2.74-0.8-4.03-0.97c-1.29-0.17-5.23-1.51-5.7-1.74
			c-0.47-0.22-3.4-1.32-4.3-1.74c-0.9-0.42-3.92-1.57-4.46-2.08c-0.54-0.51-1.54-1.17-1.54-1.17s-0.45,0.03,0.39-0.74
			c0.83-0.78,2.3-1.59,2.92-2.01c0.62-0.42,1.14-0.77,1.14-0.77s1.18,0.47,2.3,0.72c1.13,0.25,4.64,0.48,6.77,0.37
			c2.13-0.11,4.67-0.28,6.51-0.21c1.84,0.07,2.3,0.11,4.6-0.27c2.3-0.38,6.36-0.97,8.53-1.24c2.17-0.27,3.5-0.26,5.67-0.53
			c2.17-0.27,5.33-0.37,5.33-0.37s-3.85-0.07-6.04,0.13c-2.19,0.2-4.87,0.41-6.67,0.66c-1.8,0.25-4.36,0.47-6.14,0.8
			c-1.78,0.33-2.09,0.44-4.26,0.41c-2.17-0.03-2.74-0.19-5.27-0.14c-2.53,0.06-3.36,0.22-4.97,0.17c-1.61-0.06-2.62,0-3.83-0.3
			c-1.21-0.31-1.78-0.58-1.7-0.72c0.08-0.13,1.83-1.51,3.36-2.65c1.54-1.14,5.65-4.13,6.95-5.18c1.3-1.04,3.72-2.74,3.72-2.74
			s0.8,0.48,1.74,1.05c0.94,0.56,3.07,1.36,4.7,1.68c1.63,0.32,3.23,0.49,4.58,0.57c1.35,0.08,2.79-0.08,2.79-0.08
			s-2.3-0.23-3.41-0.29c-1.12-0.07-3.6-0.59-4.77-0.87c-1.17-0.28-2.61-0.91-3.28-1.31c-0.67-0.4-1.76-1.12-1.76-1.12
			s0.8-0.31,2.47-1.67c1.67-1.36,4.26-3.03,4.88-3.45c0.62-0.42,0.97-0.09,1.66,0.27c0.7,0.36,1.57,0.52,2.39,0.77
			c0.82,0.25,1.74,0.44,3,0.47c1.26,0.03,1.96,0.08,2.76-0.04c0.8-0.12,1.5-0.37,2.06-0.4c0.56-0.03,2.93-0.73,3.36-0.83
			c0.43-0.11,2.2-0.32,2.2-0.32s-2.63,0.12-3.3,0.32c-0.67,0.2-3.25,0.96-3.98,0.95c-0.72-0.01-3.11,0.01-3.73-0.06
			c-0.62-0.07-2.48-0.52-3.1-0.71c-0.62-0.19-2.08-0.89-2.08-0.89s0.14-0.22,0.72-0.78c0.58-0.56,2.55-2.11,4.06-3.21
			c1.51-1.09,3.61-1.96,4.99-2.83c1.38-0.87,3.5-1.97,5.79-3.26c2.3-1.29,5.11-2.52,6.97-3.58c1.86-1.07,4.25-2,6.5-3.32
			c2.25-1.32,4.24-2.19,4.68-2.41c0.44-0.22,3.29-2.03,3.29-2.03s-3.83,1.82-6.12,3c-2.29,1.17-5.23,2.93-6.86,3.71
			c-1.63,0.78-4.04,2.06-6.23,3.18c-2.19,1.11-5.55,2.85-6.65,3.47c-1.1,0.61-3.68,1.86-5.06,2.85c-1.39,0.99-2.88,1.55-2.88,1.55
			l-0.05-2.64c0,0,0-1.82,0.49-3.84c0.49-2.02,0.71-2.79,1.22-4.25c0.51-1.46,1.53-4.25,1.45-4.11c-0.08,0.13-1.18,2.15-1.55,3.38
			c-0.38,1.23-1.19,2.99-1.53,4.55c-0.33,1.56-0.35,1.79-0.56,3.55c-0.21,1.76-0.16,2.58-0.13,2.84c0.03,0.26-0.13,1.02-0.28,1.17
			c-0.15,0.15-1.25,1.37-2.11,1.89c-0.86,0.52-3.73,2.56-3.93,2.68c-0.2,0.12-0.6,0.19-0.6,0.19s-0.08-2.48-0.23-3.36
			c-0.14-0.87,0.05-3.92,0.17-4.82c0.12-0.9,0.42-2.61,0.57-3.37c0.15-0.76,0.46-1.67,0.46-1.67s-0.86,2.03-1.09,3.42
			c-0.23,1.38-0.44,2.84-0.48,4.33c-0.05,1.49-0.07,2.03-0.05,3.62c0.01,1.59,0.17,1.74,0.08,1.88c-0.08,0.13-0.15,0.45-0.88,1.05
			c-0.73,0.6-3.65,2.42-4.9,3.49c-1.25,1.07-2.85,2.11-3.9,2.94c-1.05,0.83-2.42,1.7-3.43,2.37c-1.01,0.67-1.93,1.39-1.93,1.39
			s-0.47-1.14-0.13-2.51c0.34-1.38,0.76-3.38,1.64-5.64c0.88-2.27,2.34-5.09,3.17-6.67c0.83-1.57,2.9-5,3.63-6.93
			c0.74-1.93,1.54-3.87,2.26-5.57c0.72-1.7,1.33-2.91,1.52-3.22c0.19-0.31,0.79-1.71,0.79-1.71s-0.75,1.25-1.32,2.19
			c-0.56,0.94-1.45,3.32-1.98,4.28c-0.52,0.96-1.05,2.95-1.72,4.37c-0.67,1.42-1.72,3.16-2.3,4.33c-0.58,1.17-1.97,3.37-2.64,4.67
			c-0.66,1.3-1.32,2.79-1.93,4.31c-0.61,1.52-0.36,1.3-1.01,3.59c-0.65,2.29-0.53,2.6-0.61,3.34c-0.08,0.74-0.1,1.58-0.1,1.58
			s-0.19,0.31-0.69,0.74c-0.5,0.43-2.38,1.73-2.91,2.2c-0.53,0.47-1.15,0.7-1.15,0.7s-0.55-2.52-0.54-3.55
			c0.01-1.03-0.45-3.49-0.41-5.48c0.04-1.98-0.51-3.9-0.77-5.27c-0.27-1.38-0.5-2.31-1.19-3.58c-0.69-1.27-0.96-1.74-1.15-2.94
			c-0.19-1.21-0.36-2.53-0.33-3.18c0.03-0.65,0.56-3.86,0.56-3.86s-0.84,2.6-0.85,3.93c-0.01,1.33,0.2,2.49,0.54,4.04
			c0.35,1.55,0.93,1.48,1.4,2.92c0.47,1.44,0.69,1.88,0.9,3.65c0.21,1.77,0.46,3.38,0.57,4.6c0.11,1.22,0.17,2.54,0.28,4.49
			c0.1,1.95,0.32,3.3,0.34,3.67c0.02,0.38,0.1,1.04-0.05,1.19c-0.15,0.15-1.38,0.87-2.74,1.82c-1.36,0.94-3.52,2.31-3.52,2.31
			s-0.15-1.97-0.27-3.39c-0.12-1.41-0.31-2.31-0.38-4.31c-0.08-1.99-0.04-4.16-0.04-4.16s-0.41,2.49-0.29,3.71
			c0.11,1.22,0.11,2.74,0.29,3.95c0.18,1.21,0.22,2.26,0.24,3.13c0.02,0.87-0.17,1.48-0.17,1.48s-1.37,0.76-2.61,1.71
			c-1.24,0.95-4.27,2.65-5.45,3.59c-1.17,0.94-2.61,1.41-3.49,2.15c-0.88,0.75-1.82,1.21-2.17,1.37c-0.34,0.16-0.4-0.55-0.34-0.75
			c0.06-0.21,0.88-5.19,1.26-6.42c0.38-1.23,1.65-6.06,2.08-7.68c0.43-1.63,0.9-3.11,0.9-3.11s1.65,0.08,2.68,0.1
			c1.03,0.01,3.37-0.04,3.99-0.27c0.63-0.23,1.6-1.04,1.6-1.04s-2.4,0.86-2.88,0.94c-0.47,0.08-1.58,0.2-2.18,0.08
			c-0.6-0.12-1.99-0.23-2.22-0.24c-0.23-0.02-0.79,0.01-0.65-0.33c0.14-0.34,0.57-1.85,1.41-3.95c0.84-2.11,2.2-6.27,2.6-7.43
			c0.4-1.16,1.35-3.75,1.99-5.31c0.64-1.56,1.41-3.65,1.62-4.19c0.21-0.54,0.95-1.37,1.55-3.08c0.6-1.7,1.76-4.23,2.61-6.15
			c0.85-1.92,1.83-4.25,2.09-4.88c0.26-0.63,1.04-2.84,1.04-2.84s-1,1.95-1.45,3.02c-0.46,1.06-1.5,3.6-2.11,4.81
			c-0.61,1.21-1.27,3.31-1.6,3.96c-0.33,0.65-0.22,0.66-0.73,1.81c-0.51,1.15-0.58,0.87-1.54,2.96c-0.96,2.1-0.86,2.03-1.55,3.69
			c-0.69,1.65-1.1,2.44-1.1,2.44s-0.22-0.13-0.77-1.25c-0.54-1.12-1.06-1.67-1.55-3.18c-0.49-1.51-0.97-2.83-1.15-3.74
			c-0.19-0.9-0.6-2.43-0.6-2.43s0.18,1.81,0.45,2.89c0.27,1.07,0.47,2.35,1.05,3.61c0.58,1.26,0.89,2.06,1.39,3.15
			c0.5,1.09,0.85,1.61,0.85,1.61s0.19,0.29-0.04,0.77c-0.22,0.47-0.48,1.11-0.87,2.15c-0.39,1.04-0.6,1.71-0.6,1.71
			s-0.75-0.57-1.63-1.53c-0.88-0.96-1.47-0.89-1.85-2.58c-0.38-1.69-0.59-2.24-0.58-3.88c0.01-1.63,0.19-2.93,0.19-2.93
			s-0.37,2.03-0.44,3.14c-0.06,1.12-0.18,2.32,0.29,3.46c0.47,1.14,0.51,1.77,1.31,2.37c0.79,0.6,0.94,0.87,1.48,1.38
			c0.54,0.51,0.89,1.15,0.89,1.15s-0.4,1.46-0.67,2.21c-0.27,0.75-0.88,1.96-1.45,3.81c-0.57,1.85-1.09,3.42-1.09,3.42
			s-1.37-0.95-1.71-1.4c-0.34-0.45-1.89-1.81-2.39-2.9c-0.5-1.09-0.89-1.45-1.1-3.52c-0.21-2.07-0.27-2.17-0.69-4.31
			c-0.42-2.14-1.01-2.56-1.27-3.14c-0.26-0.58-1.17-1.49-1.17-1.49s0.69,1.57,1.15,2.33c0.45,0.76,0.71,1.95,0.9,3.04
			c0.19,1.09,0.45,1.67,0.69,3.4c0.24,1.72,0.01,1.89,0.63,3.3c0.61,1.4,0.79,1.81,1.71,2.61c0.92,0.8,1.68,1.56,2.15,2.08
			c0.47,0.53,0.69,0.78,0.6,1.03c-0.09,0.25-0.59,2.08-0.88,3.18c-0.3,1.1-0.75,2.35-1.26,4.11c-0.51,1.76-0.93,4.06-1.24,5.28
			c-0.31,1.21-0.2,1.34-0.61,3.04c-0.41,1.7-0.33,2.05-0.38,2.45c-0.06,0.39,0.3,0-0.28,0.56c-0.58,0.56-2.56,2.23-2.56,2.23
			s0.51-0.54-0.32,0.23c-0.83,0.78-2.04,1.26-3.11,2.14c-1.07,0.87-2.93,1.64-4.08,2.53c-1.14,0.89-2.64,1.45-3.63,2.19
			c-0.99,0.74-1.53,1.02-1.53,1.02s-0.28-2.06-0.2-4.62c0.09-2.56-0.11-3.05,0.07-5.07c0.18-2.02-0.15-1.97,0.27-3.37
			c0.41-1.39,0.85-3.93,0.85-3.93s-0.45,1.25-0.77,2.58c-0.31,1.33-0.62,1.94-0.67,2.82c-0.05,0.88-0.16,1.67-0.2,2.74
			c-0.04,1.07,0.17,2.05,0.13,3.42c-0.04,1.38-0.06,1.61-0.02,3.27c0.03,1.66,0.03,2.57-0.05,2.71c-0.08,0.13-1.53,0.72-2.92,1.71
			c-1.39,0.99-2.25,1.01-4.07,2.11c-1.81,1.09-3.51,1.59-5.38,2.96c-1.86,1.37-3.67,1.74-5.11,2.63c-1.45,0.89-2.5,1.53-3.06,1.74
			c-0.55,0.21-0.7-0.06-0.29-3.15c0.41-3.1,0.66-6.84,1-8.82c0.34-1.98,0.43-4.54,0.64-5.7c0.21-1.15,0.41-2.19,0.41-2.19
			s0.32,0.07,1.44-0.17c1.12-0.24,3.3-0.63,4.68-1.01c1.39-0.38,1.6-0.43,3.12-1.34c1.52-0.91,2.5-1.72,2.72-1.89
			c0.22-0.17-2.04,1.26-2.75,1.63c-0.71,0.36-2.13,0.91-3.11,1.23c-0.98,0.32-0.55,0.21-2.59,0.57c-2.04,0.35-2.26,0.52-2.8,0.5
			c-0.54-0.02-0.7-0.06-0.64-0.45c0.05-0.39,0.35-2.89,0.91-5.35c0.57-2.46,0.89-4.7,1.35-6.48c0.47-1.79,0.61-2.43,0.61-2.43
			s0.13-0.22,1.48-0.63c1.34-0.41,3.34-1.51,4.8-2.52c1.46-1.01,3.34-2.61,4.43-3.41c1.09-0.8,2.34-1.57,3.79-3.06
			c1.45-1.5,3.62-3.78,4.52-4.88c0.91-1.1,2.53-3.28,3.38-4.29c0.85-1.01,2.91-3.72,2.87-3.56c-0.04,0.16-2.29,2.39-2.89,3.18
			c-0.6,0.79-2.43,2.92-3.56,4.3c-1.14,1.38-2.45,2.66-3.4,3.73c-0.95,1.07-1.23,1.33-3,2.75c-1.77,1.43-2.14,1.63-3.59,2.82
			c-1.45,1.19-1.9,1.23-3.03,2c-1.14,0.77-1.9,1.04-2.85,1.5c-0.95,0.46-1.53,0.72-2.05,0.77c-0.52,0.05-0.69,0.13-0.45-0.57
			c0.24-0.71,1.36-5.08,2-7.25c0.64-2.17,1.62-6.02,2.23-7.53c0.61-1.52,0.59-1.89,0.87-1.85c0.28,0.05,1.22-0.11,2.75-0.53
			c1.53-0.42,2.72-0.67,4.27-1.44c1.56-0.77,2.15-0.83,3.17-1.62c1.02-0.78,2.69-2.45,2.69-2.45s-2.24,2-3.86,2.78
			c-1.63,0.78-1.9,1.04-3.39,1.48c-1.48,0.44-1.83,0.42-3.19,0.75c-1.36,0.34-2.21,0.43-2.21,0.43s-0.29,0.37,0.19-1.22
			c0.48-1.6,1.13-3.88,1.46-4.84c0.33-0.95,0.55-1.61,0.55-1.61s-0.09,0.25,1.81-0.49c1.9-0.74,3.14-1.27,4.48-2.29
			c1.34-1.01,2.48-2.09,3.48-2.95c1-0.86,1.99-2.09,2.7-3.06c0.71-0.97,1.83-3.03,1.83-3.03s-1.33,1.69-2.09,2.76
			c-0.76,1.06-1.73,2.06-3.04,3.33c-1.32,1.27-2.05,1.68-3.13,2.67c-1.08,0.99-1.58,0.81-2.61,1.41c-1.03,0.6-1.08,0.38-1.85,0.65
			c-0.77,0.27-1.16,0.21-1.16,0.21s1.43-4.79,2.02-6.57c0.58-1.78,1.37-4.89,1.85-6.6c0.49-1.71,0.3-0.79,0.3-0.79
			s0.79-0.8,1.18-1.05c0.39-0.25,1.38-0.87,2.21-1.65s1.09-1.1,1.66-1.74c0.56-0.63,1.32-1.88,1.32-1.88s-0.64,0.65-1.18,1.35
			c-0.55,0.7-0.88,1.05-1.63,1.69c-0.75,0.64-1.15,1.01-1.85,1.56c-0.7,0.55-1.45,0.89-1.45,0.89s-0.11-1.34,0.86-3.44
			c0.96-2.1,1.67-5.19,2.19-6.65c0.51-1.45,1.32-4.31,1.56-5.32c0.24-1.01,0.44-3.14,0.57-4.28c0.14-1.13-0.16-2.35-0.19-2.91
			c-0.03-0.56-0.43-1.9-0.43-1.9s0.15,1.97,0.27,2.47c0.12,0.5,0.38,2.3-0.26,5.07c-0.64,2.78-0.97,3.73-1.41,5.36
			c-0.43,1.63-1.04,3.45-1.18,3.97c-0.14,0.53-0.35,0.88-0.35,0.88s-0.19,0.62-0.76,2.28c-0.58,1.66-0.81,2.86-1.22,3.94
			c-0.41,1.09-0.44,1.44-0.69,2.26c-0.25,0.82-0.39,1.35-0.39,1.35s-1.02-1.65-1.58-2.83c-0.56-1.19-0.92-1.71-1.21-3.04
			c-0.29-1.33-0.4-2.37-0.47-2.96c-0.07-0.59,0.01-1.94,0.01-1.94s-0.5,1.95-0.19,3.23c0.32,1.29,0.31,2.31,0.66,3.14
			c0.36,0.82,0.64,1.66,1,2.37c0.36,0.71,0.74,0.99,1.08,1.74c0.34,0.75,0.45,1.37,0.45,1.37s-0.11,0.48-0.4,1.46
			c-0.29,0.98-0.6,1.7-1.09,3.42c-0.49,1.71-0.22,0.66-0.85,2.71c-0.63,2.05-0.75,1.55-1.31,3.59c-0.56,2.04-0.91,2.92-0.97,3.12
			c-0.06,0.21-0.11,0.79-0.11,0.79s-1.14-1.24-1.92-2.37c-0.77-1.14-1.33-2.33-1.56-3.25c-0.23-0.93-1.07-3.26-1.44-4.88
			c-0.36-1.62-0.98-3.63-1.12-4.81c-0.14-1.18-0.74-2.7-0.83-3.36c-0.09-0.66-0.46-1.86-0.46-1.86s0.36,2.83,0.58,3.57
			c0.22,0.74,0.31,2.31,0.62,3.41c0.31,1.1,0.77,2.96,1.04,4.03c0.27,1.07,0.65,2.46,1.04,3.42c0.39,0.97,0.4,1.46,0.94,2.57
			c0.54,1.12,1.25,1.85,1.64,2.63c0.38,0.78,1.14,1.54,1.14,1.54s-0.32,1.14-0.68,2.14c-0.36,1-1.23,3.15-1.57,4.22
			c-0.34,1.07-0.93,3.15-1.22,4.13c-0.29,0.98-0.73,2.11-1.1,3.84c-0.37,1.72-0.25,1.13-0.9,3.41c-0.65,2.29-1.12,3.28-1.15,3.62
			c-0.03,0.35-0.26,0.63-0.46,0.45c-0.2-0.18-1.26-1.55-1.98-2.77c-0.72-1.22-1.59-2.91-2.2-4.73c-0.6-1.82-1.29-3.21-1.85-5.01
			c-0.56-1.8-1.47-4.42-1.72-5.72c-0.25-1.31-1.29-3.82-1.53-4.51c-0.25-0.7-0.86-1.49-1.48-3.39c-0.62-1.9-1.42-3.59-1.46-4.04
			c-0.04-0.45-0.44-2.09-0.44-2.09s-0.17,1.3,0.27,2.47c0.44,1.18,0.72,3.05,1.24,4.09c0.52,1.05,1.23,2.5,1.57,3.56
			c0.34,1.05,0.78,1.93,1.31,3.47c0.53,1.54,0.35,2.04,1.07,3.87c0.72,1.83,1.04,3.73,1.49,4.79c0.45,1.06,0.49,1.81,1.1,3.22
			c0.61,1.4,1.79,4.3,2.59,5.39c0.8,1.09,1.56,2.16,1.56,2.16s0.31,1.1,0.25,1.8c-0.06,0.7-0.11,0.48-0.44,2.04
			c-0.33,1.56-0.27,1.66-0.75,3.87c-0.48,2.21-0.6,2.8-0.79,4.03c-0.19,1.22-0.21,1.76-0.21,1.76s-0.78-0.72-2.64-2.69
			c-1.85-1.97-3.06-3.49-3.69-4.78c-0.62-1.29-1.59-2.3-2.69-4.11c-1.09-1.82-2.09-4.3-2.09-4.3s0.69,2.48,1.29,3.51
			c0.6,1.03,1.21,2.13,2.07,3.32c0.86,1.19,1.06,1.98,1.89,3.02c0.83,1.05,1.53,2.2,2.41,3.16c0.88,0.96,1.49,1.87,2.18,2.53
			c0.7,0.66,1.04,1.3,0.97,1.62c-0.07,0.32-0.54,3.32-0.75,5.08c-0.21,1.76-0.25,2.04-0.61,4.74c-0.35,2.7-0.35,3.5-0.48,4.03
			c-0.14,0.53-0.43,0.41-0.71,0.06c-0.28-0.35-3.1-3.94-3.82-4.86c-0.72-0.92-5.86-7.43-6.45-8.27c-0.59-0.84-2.74-3.42-3.5-4.48
			c-0.76-1.07-3.37-4.71-4.34-6.02c-0.97-1.31-1.81-3.04-3.09-4.66c-1.27-1.62-0.96-1.43-0.96-1.43s-0.23-0.02-0.19-2.3
			c0.04-2.29-0.14-2.39,0.02-3.76c0.15-1.37-0.05-3.55-0.05-3.55s-0.11,0.79-0.11,2.61c0,1.82-0.12,1.51-0.11,3.4
			c0.01,1.89-0.24,3.02-0.24,3.02s-1.93-3.05-2.61-4.25c-0.68-1.2-2.43-3.84-3.25-5.3c-0.82-1.47-1.87-3.26-2.16-3.98
			c-0.29-0.72-0.95-2.15-1.39-3.15c-0.44-0.99-1.08-2.84-1.08-2.84s0.67,2.41,1.1,3.52c0.43,1.11,0.45,1.37,1.55,3.49
			c1.09,2.12,1.11,2.49,2.2,4.31c1.09,1.82,1.59,2.11,2.4,3.69c0.81,1.58,1.05,1.79,1.64,2.63c0.59,0.84,0.75,1.18,0.75,1.18
			s0.39,0.36,0.83,1.05c0.44,0.69,1.59,2.3,1.8,2.67c0.2,0.37,0.45,1.06,0.45,1.06s-1.26,0.58-2.37,0.4
			c-1.11-0.18-2.71-0.54-3.51-1.14c-0.79-0.6-1.56-1.55-2.11-1.94c-0.55-0.39-1.44-1.54-1.44-1.54s0.88,1.26,1.58,1.92
			c0.7,0.66,1.23,1.59,2.02,2c0.78,0.41,1.99,0.84,2.43,0.92c0.44,0.08,1.4,0.3,2.24,0.32c0.84,0.02,1.7-0.19,1.7-0.19
			s0.17-0.38,0.72,0.62c0.55,1,1.21,1.83,1.73,2.68c0.52,0.86,0.74,1.3,1.62,2.56c0.88,1.26,1.04,1.9,1.99,2.85
			c0.95,0.94,0.95,0.94,0.95,0.94s-1.99-0.23-3.7-0.83c-1.71-0.6-4.75-1.4-5.53-1.82c-0.79-0.41-4.23-1.76-4.91-2.05
			c-0.68-0.29-3.95-1.41-4.16-1.47c-0.2-0.06-1.65-0.39-1.65-0.39s1.56,0.64,2.63,0.98c1.07,0.34,2.63,0.98,3.43,1.27
			c0.79,0.3,2.07,1.01,2.93,1.4c0.86,0.4,2.07,1.01,3.35,1.41c1.28,0.4,2.73,0.92,3.57,1.24c0.84,0.32,1.84,0.38,2.75,0.68
			c0.91,0.31,1.95,0.51,1.95,0.51s1.38,1.74,2.24,2.93c0.86,1.19,3.03,3.96,3.63,4.68c0.6,0.72,1.61,2.37,2.48,3.44
			c0.87,1.07,1.2,1.03,1.91,2.37c0.71,1.34,1.06,1.67,1.57,2.65c0.51,0.97,0.74-0.53,0.67,1.32c-0.08,1.84-0.13,2.23-0.51,3.16
			c-0.38,0.93,0.25-0.21-1.18,1.35c-1.43,1.57-8.09,7.3-10.24,10.06c-2.15,2.76-8.09,8.58-10.84,12.6
			c-2.75,4.02-8.72,11.77-10.63,14.67c-1.91,2.9-8.1,11.01-9.08,13.18c-0.98,2.17-2.03,3.64-2.7,4.21
			C47.1,188.82,46.3,188.83,46.14,189.62z"/>
	</g>
</g>
</svg>
