<?xml version="1.0" encoding="utf-8"?>
<!-- Generator: Adobe Illustrator 23.0.2, SVG Export Plug-In . SVG Version: 6.00 Build 0)  -->
<svg version="1.1" xmlns="http://www.w3.org/2000/svg" xmlns:xlink="http://www.w3.org/1999/xlink" x="0px" y="0px"
	 viewBox="0 0 250.55 224.05" style="enable-background:new 0 0 250.55 224.05;" xml:space="preserve">
<style type="text/css">
	.st0{fill:url(#SVGID_1_);}
	.st1{fill:url(#SVGID_2_);}
	.st2{fill:#E49000;}
</style>
<g id="Background">
</g>
<g id="Objects">
	<g>
		
			<radialGradient id="SVGID_1_" cx="698.9855" cy="294.0638" r="93.4756" gradientTransform="matrix(-0.3507 -0.9366 0.9366 -0.3507 124.7581 900.6848)" gradientUnits="userSpaceOnUse">
			<stop  offset="0.1191" style="stop-color:#CC070C"/>
			<stop  offset="0.9939" style="stop-color:#760700"/>
		</radialGradient>
		<path class="st0" d="M234.96,191.28c0,0,0.58-0.55-0.04-1.9c0,0-12.22-3.85-15.83-5.08c-3.61-1.23-17.62-6.88-31.53-16.72
			c-13.91-9.84-31.21-25.15-32.77-26.93c0,0-2.54,2.52-1.1,3.67c1.44,1.14,7.17,5.06,9.38,7.04c2.2,1.98,19.29,16.14,25.04,19.49
			c5.75,3.35,21.28,13.04,34.96,16.9C223.08,187.76,232.96,191.36,234.96,191.28z"/>
		
			<radialGradient id="SVGID_2_" cx="713.6915" cy="283.6489" r="86.8879" gradientTransform="matrix(-0.3507 -0.9366 0.9366 -0.3507 124.7581 900.6848)" gradientUnits="userSpaceOnUse">
			<stop  offset="0" style="stop-color:#E2000B"/>
			<stop  offset="0.2048" style="stop-color:#DC010A"/>
			<stop  offset="0.4719" style="stop-color:#CC0308"/>
			<stop  offset="0.7721" style="stop-color:#B10604"/>
			<stop  offset="0.9818" style="stop-color:#9A0900"/>
		</radialGradient>
		<path class="st1" d="M155.24,142.74c0,0,1.97,2.86,1.36,11.73c0,0-0.21,4.24,0.56,7.2c0.77,2.97,1.15,7.88-1.39,12.2
			c0,0,0.14-2.64-0.63-3.48c-0.76-0.84-1.87-0.2-2.2,2.51c-0.33,2.71-0.07,9.13-3.28,12.24c0,0,0.68-2.39-0.34-3.01
			c-1.02-0.63-2.34,3.35-3.18,5.01c-0.84,1.66-1.05,4.1-2.31,6.14c-1.26,2.04-2.92,4.8-3.84,6.27c-0.91,1.46-1.86,3.73-4.26,5.41
			c0,0,0.81-2.33,0.88-4.26c0.06-1.93,1.48-7.74,1.62-10.38c0.14-2.63-0.09-9.52,0.35-12.26c0.43-2.75,1.02-6.56,0.62-8.55
			c-0.41-1.98-0.71-3.1-0.22-4.18c0,0-3.76,1.97-6.17,4.22c-2.41,2.25-4.85,2.94-6.23,4.36c-1.38,1.41-4.72,7.5-7.31,10.49
			c-2.58,2.99-4.11,5.81-6.1,8.01c-1.98,2.21-2.31,3.12-3.21,4.91c0,0-0.5-1.04,0.01-3.26c0.52-2.22,0.6-6.18,0.97-9.12
			c0.35-2.95-0.02-4.26-0.27-5.52c0,0-2.59,1.19-5.97,2.35c-3.39,1.15-5.93,2.44-8.69,4.38c-2.76,1.93-3.68,3.06-6.44,3.2
			c0,0,1.05-0.5,1.67-1.86c0.62-1.35-0.25-3.05,0.93-4.73c0,0-2.91,0.64-4.85,2.04c-1.94,1.4-5.31,3.22-8.26,3.43
			c0,0,1.49-1.12,1.99-2.77c0,0-2.02,0.31-3.83,0.87c-1.81,0.56-2.6,0.86-4.88,1.38c-2.27,0.52-10.28,3.74-15.69,1.27
			c0,0,7.34-3.2,9.97-4.86c2.63-1.66,8.52-8.13,12.93-10.46c0,0-0.79-1.5-3.08-1.32c0,0,1.4-1.65,5.36-2.79
			c3.95-1.14,10.5-3.14,10.85-4.62c0.35-1.48-2.15-2.45-4.09-1.61c0,0,1.36-2.98,7.61-4.88c6.25-1.89,17.96-5.71,23.64-14.24
			c0,0-0.04-0.99-1.97-1.96c-1.93-0.96-7.74-3.28-9.82-3.74c-2.08-0.46-6.46-0.16-12.85,1.67c-6.39,1.83-9.9,3.26-13.57,3.96
			c0,0,1.75-1.33,1.78-2.13c0,0-0.8-0.04-2.18,0.47c-1.38,0.52-16.37,5.79-20.94,6.16c0,0,1.43-0.98,3.65-3.17
			c2.22-2.18,4.73-5.37,8.03-7.95c3.3-2.58,5.35-7.62,7.61-9.37c0,0-3.17-2.75-6.09-3.67c-2.92-0.93-13.23,0.35-19.63-2.65
			c0,0,6.98-2.95,6.69-5.53c-0.29-2.59-5.46-2.9-6.94-3.25c-1.48-0.34-6.27-1.13-9.09-2.66c0,0,3.99-1.04,3.36-2.72
			c-0.63-1.67-2.25-1.51-3.97-2.22c-1.73-0.7-6.61-1.46-9.54-2.38c0,0,3.25-0.32,2.99-1.01c-0.26-0.69-5.3-1.27-8.26-2.86
			c-2.95-1.59-10.63-6.8-13.76-6.75c0,0,2.79-0.93,7.94,0.51c5.14,1.44,8.87,1.51,11.96,1.36c3.09-0.15,4.21,0.45,6.58,0.79
			c2.38,0.35,3.26-1.78-0.08-3.23c0,0,1.29-1.04,5.23,0.18c3.94,1.22,9.39,1.09,11.5,2.21c0,0,0.32-5.73-2.13-8.97
			c0,0,2.41,0.45,6.36,2.9c3.95,2.46,8.76,5.71,10.84,6.16c2.08,0.45,5.15,0.54,7.24,1.33c0,0,0.22-13.22-4.95-22.52
			c0,0,5.92,2.61,12.16,9.38c6.24,6.76,11.48,12.66,15.66,15.14c4.18,2.47,20.97,9.22,25.38,12.29c0,0-0.54-3.84-0.49-6.11
			c0.05-2.27,0.4-6.44-3.93-15.6c-4.33-9.16-10.23-9.31-9.85-16.42c0,0,4.61,3.33,5.4,1.23c0.79-2.09-7.81-15.16-6.69-21.76
			c0,0,2.19,3.45,2.97,1.92c0.78-1.52-6.14-21.51,0.35-34.16c0,0,5.4,23.14,8.83,22.98c0,0,2.17,0.09,1.48-2.35
			c0,0,3.14,0.29,7.23,15.71c0,0,4.39-2.09,4.91-5.77c0,0,1.37,3.64,1.82,9.65c0.45,6.01,3.41,13.32,5.34,14.85
			c1.92,1.53,3.16-0.85,4.55-2.26c1.38-1.42,1.87-3.4,4.31-4.98c2.44-1.59,3.75-2.87,4.15-4.81c0,0,0.48,4.87-0.3,7.3
			c-0.78,2.43-1.21,10.56-1.83,12.82c-0.62,2.25-1.93,13.75,1.89,22.43c0,0,6.72-6.34,9.76-8.71c3.04-2.38,8.13-6.19,10.85-8.22
			c2.72-2.03,7.37-5.23,8.99-7.19c0,0-2.33,7.27-5.04,10.54c-2.71,3.26-4.55,6.76-5.04,8.74c-0.49,1.98-3.09,4.64-4.18,5.94
			c-1.08,1.31-1.74,4.36-0.18,3.44c1.57-0.92,2.14-1.48,2.4-2.58c0,0-0.44,5.11-4.04,8.7c-3.6,3.59-4.88,5.87-5.63,8.06
			c-0.75,2.19-5.51,7.79-7.14,10.64c-1.63,2.86-3.39,6.54-4.32,7.35C154.69,142.16,154.73,142.25,155.24,142.74z"/>
		<path class="st2" d="M137.89,200.78c0,0,0.84-3.46,2.17-6.2c1.33-2.74,2.83-8.03,3.66-11.82c0.83-3.79,2.46-10.24,3.24-13.23
			c0.79-3,2.84-7.13,3.2-10.97c0.36-3.84,0.75-7.58,1.86-10.02c1.11-2.44,2.11-5.17,2.59-5.68c0,0,0.58-1.45,0.63-2.82
			c0.05-1.37-0.79-4.2-0.6-5.5c0,0,3.34-6.08,5.1-10.67c1.76-4.59,3.07-6.21,4.26-8.11c1.2-1.91,2.54-6.12,3.94-8.67
			c1.4-2.55,8.04-12.44,12.51-16.7c0,0-8.21,7.45-13.72,17.04c0,0-2.25,4.77-3.38,6.88c-1.12,2.1-4.79,7.3-5.58,10.29
			c-0.79,2.99-3.5,7.15-3.85,7.73c0,0-3.28-9.67-4.01-12.2c-0.72-2.54-1.22-4.15-1.12-5.09l-0.04-1c0,0,4.06-3.54,5.36-7.28
			c1.3-3.74,1.62-9.48,1.48-14.37c0,0-0.49,9.5-2.15,14.06c-1.66,4.55-3.53,5.26-5.12,6.42c0,0-2.51-6.7-3.24-9.57
			c0,0,3.51-3.23,4.29-6.55c0.78-3.32,4.25-22.26,8.04-28.62c0,0-3.67,4.29-5.48,12.95c-1.82,8.65-2.98,14.25-3.47,15.34
			c-0.5,1.08-2.2,4.31-4.05,5.67c0,0-0.9-1.8-1.79-3.26c-0.88-1.46-3.61-6.96-5.05-11.69l-0.82-2.5c0,0,5.11-2.25,6.29-7.19
			c0,0-2.54,5.22-6.7,6.1c0,0-2.48-7.84-2.64-8.56c-0.16-0.73-0.16-0.73-0.16-0.73s5.74-5.97,5.24-19.6c0,0-0.68,14.08-6.01,18.43
			c0,0-1.16-2.49-1.97-4.66c-0.81-2.17-2.06-4.28-2.5-6.37c-0.44-2.08-2.24-6.58-3.2-9.13c-0.96-2.57-6.42-17.14-8.1-25.83
			c0,0,1.61,9.39,3.9,16.73c2.3,7.34,4.63,12.98,4.98,14.2c0,0-0.56,0.32-1.79-0.57c-1.23-0.89-3.34-2.91-5.13-3.81
			c0,0,0.95,1.33,2.44,2.9c1.49,1.58,3.63,2.8,4.6,3c0,0,3.48,8.7,5.15,12.56c1.67,3.87,4.3,12.09,4.5,12.92
			c0.2,0.82,0.49,1.61,0.49,1.61s-0.86,1-2.67-0.24c-1.81-1.23-7.33-5.79-9.7-7.6c-2.36-1.81-3.2-1.95-5.01-3.18
			c0,0,1.32,1.42,2.99,2.58c1.67,1.17,5.24,4.1,7.06,5.67c1.82,1.56,5.13,4.7,7.41,4.19c0,0,4.17,10.23,6,13.03
			c1.83,2.79,3.54,8.56,4.29,10.86c0.75,2.3,1.98,8.58,2.98,11.57c1.01,2.99,2.65,8.89,3.28,10.57c0.63,1.68,1.67,6.56,0.16,6.12
			c0,0-5.4-3.03-7.08-4.2c-1.67-1.17-12.2-6.21-17.45-8.51c-5.24-2.31-11.98-4.39-14.18-5.47c-2.2-1.09-5.86-2.75-6.73-2.98
			c0,0-1-3.56-3.54-7.66c-2.54-4.1-11.17-14.24-13.1-17c-1.93-2.76-9.03-13.02-10.8-15.95c0,0,7.17,12.25,10.32,16.46
			c3.15,4.21,10.95,14.55,12.77,17.01c1.82,2.46,2.42,5.27,2.73,6.39c0,0-1.48,0.55-4.32-0.74c-2.84-1.29-9.65-2.67-13.74-4.29
			c-4.09-1.62-8.19-2.67-10.52-3.81c-2.34-1.15-4.65-1.63-4.65-1.63s-3.28-9.67-11.28-17.23c0,0,7.27,8.62,10.09,16.44
			c0,0-7.9-2.21-9.99-3c-2.09-0.79-9.71-2.54-12.28-3.38c-2.56-0.84-6.51-1.49-9.17-2.3c-2.66-0.8-8.31-1.49-10.64-2.3
			c0,0-1.19,0.11-3.53-1.04c-2.34-1.15-3.1-1.08-3.97-1.32c0,0,2.9,1.16,4.33,1.97c1.43,0.82,3.87,1.03,6.12,1.64
			c2.25,0.62,11.28,2.52,13.06,3.08c1.79,0.57,13.69,3.86,14.46,4.13c0,0-4.1,5.24-11.24,5.67c0,0,5.38,1.47,11.96-5.26
			c0,0,10.07,3.19,13.23,4.14c3.16,0.95,6.55,2.49,7.73,2.95c1.18,0.45,0.49,0.71,0.49,0.71s-9.99,7.22-22.46,8.41
			c0,0,9.7,0.41,23.25-7.81c0,0,0.49-0.18,1.46,0.01c0.97,0.2,12.6,4.27,14.72,4.82c2.12,0.56,4.04,1.19,5.61,1.5
			c1.58,0.3,2.82,0.63,3.73,0.96c0.91,0.33,5.93,2.94,7.85,3.58c1.92,0.63,0.25,0.36-0.31,0.68c-0.56,0.32-12.5,5.01-15.33,5.85
			c-2.83,0.84-15.39,4.19-20.05,6.16c-4.65,1.97-13.22,6.97-15.92,9.67c0,0,8.32-6.26,16.18-8.98c7.85-2.72,21.14-6.23,28.47-8.86
			c7.33-2.63,8.89-3.55,9.42-3.64c0.53-0.08,2.05,0.69,3.04,1.22c0.98,0.53,9.22,3.62,10.2,4.16c0,0,0.05,0.43-1.08,1.3
			c-1.13,0.87-5.96,7.17-17.56,5c0,0,8.69,3.71,18.11-4.42c0,0,0.77-0.63,1.27-0.81c0.49-0.18,4.27,1.21,5.74,2.12
			c1.46,0.91,7.52,4.49,8.81,5.24c1.29,0.75,3.57,2.03,4.55,2.56c0.99,0.53,1,0.86,0.72,1.3c-0.28,0.44-3.78,1.3-4.67,1.63
			c-0.89,0.34-8.66,4.48-11.43,6.08c-2.77,1.6-8.53,6-11.88,7.26c-3.35,1.25-6.5,3.33-8.3,4.23c-1.8,0.9-2.86,1.97-3.72,2.06
			c-0.86,0.09-8.81-6.14-19.65-2.41c0,0,11.95-2.57,18.25,3.16c0,0-0.86,0.99-2.53,1.96c-1.66,0.96-2.99,1.9-4.69,2.76
			c-1.7,0.86-5.07,2.35-6.19,2.66c0,0-6.55-4.29-17.73-0.55c0,0,12.84-2.9,16.48,1.13c0,0-4.83,1.81-6.7,2.51
			c-1.87,0.7-7.26,3.39-9.59,4.38c-2.33,0.98-8.87,4.22-9.71,4.65c-0.85,0.43-4.87,3.17-8.82,3.75c0,0,4.37-0.63,9.17-3.1
			c4.8-2.48,13.61-6.55,15.54-7.39c1.93-0.84,7.39-2.77,9.49-3.44c2.11-0.68,4.49-1.8,6.43-2.63c0,0-0.84,5.26-5,9.74
			c-4.16,4.48-3.74,4.1-4.83,5.4c0,0,2.93-2.67,4.63-4.43c1.7-1.76,5.17-6.88,6.11-10.37c0,0-0.28-0.46,0.92-1.13
			c1.21-0.68,4.3-2.62,6.12-3.75c1.82-1.13,5.74-3.27,8.22-4.76c2.47-1.49,5.77-3.17,5.77-3.17s0.11,4.79-1.46,8.4
			c-1.56,3.62-5.14,8.78-6.16,12.64c-1.03,3.87-3.87,9.76-5.15,12.94c0,0,1.91-3.29,3.04-5.97c1.14-2.67,2.82-7.46,3.81-9.63
			c0.99-2.17,3.49-6.58,4.48-8.75c0.99-2.16,1.84-5.29,2.32-7.61c0.48-2.32,0.41-2.51,1.61-3.18c1.21-0.68,3.42-2.29,5.53-3.53
			c2.12-1.24,6.11-3.18,8.32-4.46c2.22-1.28,3.89-2.8,6.35-3.73c2.46-0.92,4.43-1.66,5.16-1.82c0.73-0.16,0.42,0.52-0.2,1.87
			c-0.62,1.35-2.53,7.34-2.94,11.66c-0.41,4.31-2.79,10.25-3.27,12.57c-0.48,2.31-2.45,10.57-2.6,11.65
			c-0.16,1.07-1.82,6.85-2.05,7.73c-0.23,0.88-3.32,9.44-3.14,11.4"/>
	</g>
</g>
</svg>
