<?xml version="1.0" encoding="utf-8"?>
<!-- Generator: Adobe Illustrator 23.0.2, SVG Export Plug-In . SVG Version: 6.00 Build 0)  -->
<svg version="1.1" xmlns="http://www.w3.org/2000/svg" xmlns:xlink="http://www.w3.org/1999/xlink" x="0px" y="0px"
	 viewBox="0 0 250.55 224.05" style="enable-background:new 0 0 250.55 224.05;" xml:space="preserve">
<style type="text/css">
	.st0{fill:url(#SVGID_1_);}
	.st1{fill:url(#SVGID_2_);}
	.st2{fill:url(#SVGID_3_);}
	.st3{fill:url(#SVGID_4_);}
	.st4{fill:url(#SVGID_5_);}
	.st5{fill:url(#SVGID_6_);}
	.st6{fill:url(#SVGID_7_);}
	.st7{fill:url(#SVGID_8_);}
	.st8{fill:url(#SVGID_9_);}
	.st9{fill:url(#SVGID_10_);}
	.st10{fill:url(#SVGID_11_);}
	.st11{fill:url(#SVGID_12_);}
	.st12{fill:url(#SVGID_13_);}
	.st13{fill:url(#SVGID_14_);}
	.st14{fill:url(#SVGID_15_);}
	.st15{fill:url(#SVGID_16_);}
</style>
<g id="Background">
</g>
<g id="Objects">
	<g>
		
			<linearGradient id="SVGID_1_" gradientUnits="userSpaceOnUse" x1="29.9226" y1="-4.6871" x2="147.6395" y2="-4.6871" gradientTransform="matrix(0.9752 -0.2213 0.2213 0.9752 20.3382 121.4534)">
			<stop  offset="0" style="stop-color:#B5EE23"/>
			<stop  offset="1" style="stop-color:#6EA514"/>
		</linearGradient>
		<path class="st0" d="M132.73,167.36c0.89,0.66,4.32,2.72,4.6,2.29c0.27-0.43,0.47-1.22,0.72-2.27c0.26-1.05,1-2.7,1.89-4.75
			c0.89-2.06,2.15-3.58,4.09-6.49c1.93-2.91,2.74-4.82,3.76-6.29c1.03-1.47,1.76-1.51,1.76-1.51s0,0-0.78-0.19
			c-0.78-0.19-2.48-0.05-3.46-0.57c-0.98-0.52-0.59-0.98-0.63-2.21c-0.03-1.23,1.54-2.45,2.3-3.48c0.75-1.04,3.61-2.06,5.01-4.6
			c1.4-2.54,3.52-4.63,4.14-6.25c0.62-1.62,2.31-2.87,3.67-3.43c1.36-0.56,3.38-0.89,3.38-0.89s-5.61-0.21-7.19-0.1
			c-1.58,0.11-7.58,0.36-8.83,0.28c-1.26-0.09-1.57-0.39-1.78-1.33c-0.21-0.94,0.03-1.49,0.75-3.75c0.72-2.26,1.63-2.59,3.23-4.81
			c1.6-2.21,3.77-5.18,4.7-6.5c0.93-1.32,2.84-4.35,3.9-5.7c1.05-1.35,2.9-1.89,2.94-2.27c0.04-0.38-1.16-0.23-1.69-0.36
			c-0.52-0.13-0.64-0.1-0.44-1.38c0.2-1.28,1.62-3.21,2.62-4.8c1-1.58,0.96-2.32,0.96-2.32s-0.74,0.54-0.42-0.77
			c0.32-1.31,2.48-3.77,2.48-3.77s-3.34,1.62-4.2,2.19c-0.86,0.57-3.96,2.14-5.73,2.54c-1.76,0.4-6.56,3.22-9.53,4.26
			c-2.98,1.04-4.66,0.69-5.38,0.23c-0.72-0.45-0.61-1.59-0.85-2.65c-0.24-1.06,0.57-1.86,1.05-4.07c0.49-2.21,2.14-4.19,3.68-7.75
			c1.54-3.56,1.94-4.52,2.73-7.54c0.8-3.02,1.46-3.91,2.45-6.11c0.98-2.2,2.21-4.95,2.21-4.95s-1.17,1.38-1.52,1.46
			c-0.35,0.08-1.24,0.53-1.63-0.12c-0.4-0.65-0.43-1.88-0.2-4.16c0.23-2.27,1.51-4.79,1.8-6.21c0.29-1.43,1.04-3.57,1.04-3.57
			s-1.33,1.79-1.86,2.15c-0.53,0.37-1.83,2.27-3.43,3.38c-1.6,1.1-4.31,3.33-6.33,4.77c-2.02,1.45-5.72,3.65-6.83,4.76
			c-1.11,1.12-2.77,2.48-4,2.51c-1.23,0.03-1.61-1.12-1.92-1.91c-0.3-0.79-0.21-3.66-0.06-5.17c0.15-1.52-0.2-3.05-0.17-4.04
			c0.02-0.99,0.94-4.04,1.27-4.74c0.34-0.69,2.43-5.62,2.43-5.62s-1.75,1.01-2.44,0.68c-0.69-0.34-1.03-1.25-0.98-2.12
			c0.05-0.88-0.25-3.28-0.09-5.29c0.16-2.02,1.81-5.11,1.81-5.11l-1.34,1.17c0,0-2.09,2.21-2.94,3.39
			c-0.84,1.18-4.28,4.55-4.79,5.04c-0.51,0.49-4.96,4.83-5.82,5.4c-0.86,0.57-3.15,2.44-4.38,2.48c-1.23,0.03-1.87-0.07-3.04-1.41
			c-1.17-1.34-1.81-2.55-2.82-4.79c-1-2.24-0.78-2.91-1.28-4.53c-0.49-1.62-0.69-1.94-1.02-2.86c-0.33-0.91-0.77-2.3-0.66-3.43
			c0.11-1.14,0.42-3.06,0.42-3.06s-1.21,1.76-1.54,2.45c-0.34,0.69-0.91,1.44-1.39,2.04c-0.48,0.6-1.09,0.62-2.64,0.35
			c-1.54-0.27-1.39-0.67-2.12-1.74c-0.74-1.07-2.1-2.74-2.75-3.95c-0.65-1.21-0.99-2.74-0.99-2.74l-0.45,0.72
			c0,0-0.86,0.56-2.18-0.37c-1.33-0.94-1.51-1.76-2.25-2.83c-0.74-1.07-1.24-2.19-1.24-2.19l-0.61,1.13c0,0-1.01-0.64-1.34-1.55
			c-0.33-0.91-1.07-1.98-1.07-1.98s-0.1,3.36,0.02,4.44c0.12,1.08-0.36,1.69-0.67,1.39c-0.31-0.3-0.9-1.77-0.9-1.77
			s0.24,3.77,0.4,4.48c0.16,0.7,0.68,3.55,0.89,4.49c0.21,0.94,0.07,3.57-0.16,4.73c-0.23,1.16-0.77,1.53-1.15,1.99
			c-0.39,0.46-2.69,0.12-3.56-0.43c-0.86-0.54-3.03-1.91-3.03-1.91s2.03,1.89,2.55,2.51c0.51,0.63,0.87,1.65,1.37,2.78
			c0.5,1.12,0.92,3.5,1.38,5c0.46,1.5,1.26,3.91,1.82,6.38c0.56,2.47,0.68,2.44,0.29,4.01c-0.38,1.57-2.45,2.28-3.12,2.56
			c-0.68,0.28-2.86,1.02-5.2,1.05c-2.34,0.04-3.86-0.11-5.66-0.44c-1.81-0.33-3.74-1.25-5-1.34c-1.25-0.08-1.82,0.17-3.41-0.34
			c-1.6-0.5-2.46-1.05-2.46-1.05s1.48,1.64,2.02,2.38c0.54,0.74,1.11,1.6,1.11,1.6l-0.88-0.05c0,0,1.45,2.02,2.16,2.97
			c0.71,0.95,1.93,2.53,2.98,3.89c1.05,1.37,1.01,1.75,0.51,2.23c-0.51,0.48-3.06-0.42-3.06-0.42s2.11,1.13,2.97,1.67
			c0.87,0.55,3.39,2.94,5.65,4.77c2.27,1.83,4.55,3.17,6.35,5.11c1.8,1.94,2.36,2.8,3.48,3.9c1.12,1.11,0.82,1.42,0.12,2.69
			c-0.7,1.27-1.73,1.63-3.27,2.47c-1.54,0.84-3.59,1.06-5.85,1.45c-2.26,0.39-2.72,0-4.81,0.6c-2.09,0.6-3.57,0.07-4.62-0.19
			c-1.04-0.26-1.48-0.53-1.56-0.88c-0.08-0.35,0.86,1.04,0.4,1.76c-0.45,0.72-1.5,0.46-2.82,0.64c-1.32,0.18-2.72,0-4.5-0.21
			c-1.78-0.21-4.9-1.98-4.9-1.98s2.25,1.72,3.02,2.4c0.77,0.69,2.16,1.36,2.82,2.08c0.66,0.72,1.55,1.38,0.61,1.59
			c-0.94,0.21-2.1-0.02-2.1-0.02s1.88,0.68,2.29,0.84c0.41,0.15,1.39,0.67,3,1.79c1.61,1.12,2.7,2.11,3.85,2.83
			c1.15,0.73,1,1.13,0.77,2.3c-0.23,1.16-2.58,1.7-2.58,1.7s2.06-0.71,3.28-0.25c1.22,0.46,3.92,0.96,5.54,2.08
			c1.61,1.12,5.09,1.19,6.41,2.13c1.32,0.93,5.85,1.27,6.83,1.79c0.98,0.52,3.1,1.15,5.42,2.1c2.32,0.96,1.18,0.85,2.02,2.38
			c0.84,1.54,0.06,1.35-0.67,2.5c-0.73,1.15-3.88,3.6-5.42,4.44c-1.54,0.84-5.16,3.39-5.63,3.5c-0.47,0.11-0.75,1.03-2.17,1.85
			c-1.42,0.82-4.54,3.38-4.54,3.38s2.39-0.91,3.5-0.92c1.11-0.01,3.71,0.02,5.31,0.52c1.6,0.5,1.23,1.08,1.23,1.08l-1.51,0.96
			c0,0,3.87-0.38,5.06-0.04c1.19,0.35,4.01-0.29,5.26,0.29c1.24,0.58,4.08,0.55,5.45,0.62c1.37,0.06,4.47,0.1,6.26,0.92
			c1.8,0.83,4.71,1.16,5.89,2c1.18,0.84,1.5,1.14,2.02,2.38c0.53,1.24,0.31,1.91-0.27,3.15c-0.58,1.24-2,2.06-3.28,2.97
			c-1.28,0.91-2.09,0.6-2.09,0.6s0.63,0.23,2.83,1.21c2.2,0.98,2.34,1.61,4.66,2.4c2.32,0.79,4.88,1.2,6.96,2.37
			c2.08,1.18,3.59,1.32,6.37,2.67c2.78,1.35,3.39,1.87,6.2,3.37C130.8,166.11,132.73,167.36,132.73,167.36z"/>
		
			<linearGradient id="SVGID_2_" gradientUnits="userSpaceOnUse" x1="101.52" y1="54.5979" x2="138.0227" y2="54.5979" gradientTransform="matrix(0.9752 -0.2213 0.2213 0.9752 20.3382 121.4534)">
			<stop  offset="0" style="stop-color:#F9B231"/>
			<stop  offset="0.1727" style="stop-color:#F8A82D"/>
			<stop  offset="0.4618" style="stop-color:#F48F21"/>
			<stop  offset="0.8296" style="stop-color:#EE650F"/>
			<stop  offset="1" style="stop-color:#EB4F05"/>
		</linearGradient>
		<path class="st1" d="M160.75,126.85c-1.1,0.06-2.09,0.6-2.86,0.71c-0.78,0.11-1.48,0.58-2.11,0.79c-0.63,0.21-2.28,1.13-3.07,1.44
			c-0.8,0.3-3.7,2.2-4.4,2.67c-0.7,0.47-2.95,1.97-4.18,2.8c-1.23,0.84-2.81,2.86-3.6,3.72c-0.79,0.86-2.83,3.05-3.53,4.32
			c-0.7,1.27-1.8,2.69-2.44,4.2c-0.65,1.51-1.41,4.15-1.66,5.2c-0.26,1.05-0.81,2.41-0.81,2.41s0.36,1.34,0.69,2.5
			c0.33,1.16,2.29,7.08,2.73,8.21c0.26,0.67,0.89,2.42,1.41,3.85c0.22,0.06,0.37,0.07,0.42-0.01c0.27-0.43,0.47-1.22,0.72-2.27
			c0.26-1.05,1-2.7,1.89-4.75c0.89-2.06,2.15-3.58,4.09-6.49c1.93-2.91,2.74-4.82,3.76-6.29c1.03-1.47,1.76-1.51,1.76-1.51
			s0,0-0.78-0.19c-0.78-0.19-2.48-0.05-3.46-0.57c-0.98-0.52-0.59-0.98-0.63-2.21c-0.03-1.23,1.54-2.45,2.3-3.48
			c0.75-1.04,3.61-2.06,5.01-4.6c1.4-2.54,3.52-4.63,4.14-6.25c0.62-1.62,2.31-2.87,3.67-3.43c1.18-0.48,2.87-0.8,3.28-0.88
			C162.44,126.75,161.52,126.8,160.75,126.85z"/>
		
			<linearGradient id="SVGID_3_" gradientUnits="userSpaceOnUse" x1="99.7291" y1="28.9933" x2="147.5158" y2="28.9933" gradientTransform="matrix(0.9752 -0.2213 0.2213 0.9752 20.3382 121.4534)">
			<stop  offset="0" style="stop-color:#F9B231"/>
			<stop  offset="0.1727" style="stop-color:#F8A82D"/>
			<stop  offset="0.4618" style="stop-color:#F48F21"/>
			<stop  offset="0.8296" style="stop-color:#EE650F"/>
			<stop  offset="1" style="stop-color:#EB4F05"/>
		</linearGradient>
		<path class="st2" d="M147.14,126.9c-1.26-0.09-1.57-0.39-1.78-1.33c-0.21-0.94,0.03-1.49,0.75-3.75c0.72-2.26,1.63-2.59,3.23-4.81
			c1.6-2.21,3.77-5.18,4.7-6.5c0.93-1.32,2.84-4.35,3.9-5.7c1.05-1.35,2.9-1.89,2.94-2.27c0.04-0.38-1.16-0.23-1.69-0.36
			c-0.52-0.13-0.64-0.1-0.44-1.38c0.2-1.28,1.62-3.21,2.62-4.8c1-1.58,0.96-2.32,0.96-2.32s-0.74,0.54-0.42-0.77
			c0.28-1.14,1.96-3.16,2.38-3.66c-0.96,0.78-2.2,1.91-3.56,3.51c0,0-1.43,1.32-1.88,1.79c-0.45,0.47-2.63,2.57-3.15,3
			c-0.52,0.43-2.88,2.57-3.27,3.03c-0.39,0.46-2.93,2.89-3.63,3.6c-0.7,0.72-1.69,1.8-2.37,2.64c-0.68,0.83-1.4,1.74-1.88,2.34
			c-0.48,0.6-1.78,2.5-2.29,3.24c-0.51,0.73-2.82,3.91-3.5,4.99c-0.68,1.08-3.34,5.14-4.03,6.47c-0.69,1.33-2.26,3.91-2.57,5.28
			c-0.31,1.37-1.48,4.35-1.79,5.72c-0.31,1.37-1.12,3.22-1.37,4.02c-0.25,0.8-1.23,2.19-1.23,2.19c-0.29,0.62-0.78,0.36-0.37,1.38
			c0.42,1.02,1.3,4.09,2.03,5.96c0.73,1.87,0.97,3.73,1.43,4.68c0.46,0.94,1.2,2.01,1.2,2.01s0.37-0.83,0.67-1.7
			c0.3-0.87,1.16-4.15,1.67-5.14c0.52-0.98,1.44-3.17,1.93-4.02c0.49-0.85,1.72-2.49,2.29-3.24c0.57-0.75,2.05-2.38,2.55-2.92
			c0.49-0.54,1.98-2.18,2.67-2.65c0.7-0.47,2.46-1.67,2.92-2.08c0.46-0.41,2.59-1.64,3.11-1.82c0.52-0.18,1.33-0.67,2.2-1.18
			c0.88-0.51,2.65-1.4,3.09-1.63c0.44-0.22,1.86-0.79,2.42-1.04c0.56-0.25,1.78-0.59,2.31-0.71c0.53-0.12,0.97-0.1,1.63-0.18
			c0.66-0.09,0.91-0.11,1.63-0.07c0,0-5.61-0.21-7.19-0.1C154.4,126.73,148.4,126.98,147.14,126.9z"/>
		
			<linearGradient id="SVGID_4_" gradientUnits="userSpaceOnUse" x1="96.157" y1="2.6815" x2="147.6395" y2="2.6815" gradientTransform="matrix(0.9752 -0.2213 0.2213 0.9752 20.3382 121.4534)">
			<stop  offset="0" style="stop-color:#F9B231"/>
			<stop  offset="0.1727" style="stop-color:#F8A82D"/>
			<stop  offset="0.4618" style="stop-color:#F48F21"/>
			<stop  offset="0.8296" style="stop-color:#EE650F"/>
			<stop  offset="1" style="stop-color:#EB4F05"/>
		</linearGradient>
		<path class="st3" d="M160.2,91.32c-0.86,0.57-3.96,2.14-5.73,2.54c-1.76,0.4-6.56,3.22-9.53,4.26c-2.98,1.04-4.66,0.69-5.38,0.23
			c-0.72-0.45-0.61-1.59-0.85-2.65c-0.24-1.06,0.57-1.86,1.05-4.07c0.49-2.21,2.14-4.19,3.68-7.75c1.54-3.56,1.94-4.52,2.73-7.54
			c0.8-3.02,1.46-3.91,2.45-6.11c0.98-2.2,2.21-4.95,2.21-4.95s-1.17,1.38-1.52,1.46c-0.35,0.08-1.24,0.53-1.63-0.12
			c-0.4-0.65-0.43-1.88-0.2-4.16c0.23-2.27,1.51-4.79,1.8-6.21c0.29-1.43,1.04-3.57,1.04-3.57s-0.07,0.09-0.17,0.22
			c-0.11,0.27-0.22,0.55-0.31,0.83c-0.3,0.87-0.6,1.43-1,2.05c-0.4,0.62-0.94,1.36-1.27,1.8c-0.33,0.45-1.91,2.47-2.32,3.12
			c-0.41,0.65-1.42,2.18-1.67,2.73c-0.24,0.55-1.23,1.94-1.52,2.57c-0.29,0.62-1.84,3.07-2.35,3.81c-0.51,0.73-1.2,2.06-1.67,2.97
			c-0.47,0.91-2.15,4.13-2.49,4.83c-0.34,0.7-2.04,4.35-2.56,5.34c-0.52,0.98-2.96,5.49-3.35,6.19c-0.4,0.71-2.22,4.64-2.66,5.98
			c-0.44,1.33-1.63,3.71-1.99,4.59c-0.35,0.88-0.98,3.31-1.18,4.04c-0.21,0.73-0.31,2.97-0.58,4.77c-0.27,1.79-0.63,4.28-0.95,6.15
			c-0.32,1.86-1.04,4.68-1.33,5.3c-0.29,0.62-1.79,2.44-1.79,2.44s0.59,1.78,0.8,2.72c0.22,0.94,2.95,6.44,4.08,9.52
			c1.13,3.08,3.22,7.36,3.22,7.36s0.82-1.3,1.64-2.84c0.82-1.55,1.42-3.29,1.78-4.67c0.37-1.38,1.45-4.78,2.12-6.16
			c0.67-1.39,1.39-3.16,1.95-4.46c0.57-1.3,3.15-4.92,3.72-5.91c0.58-1,3.5-5.24,4.32-6.29c0.81-1.05,2.91-4.06,3.66-4.84
			c0.75-0.79,1.35-1.67,1.94-2.35c0.58-0.69,3.39-3.3,4.06-3.89c0.67-0.58,3.66-3.49,4.27-4.06c0.61-0.57,3.31-3.1,3.82-3.58
			c0.51-0.49,1.78-1.7,2.21-2.23c0.16-0.2,0.77-0.74,1.46-1.33c0.12-0.14,0.2-0.23,0.2-0.23S161.06,90.75,160.2,91.32z"/>
		
			<linearGradient id="SVGID_5_" gradientUnits="userSpaceOnUse" x1="90.9719" y1="-17.7106" x2="141.9771" y2="-17.7106" gradientTransform="matrix(0.9752 -0.2213 0.2213 0.9752 20.3382 121.4534)">
			<stop  offset="0" style="stop-color:#F9B231"/>
			<stop  offset="0.1727" style="stop-color:#F8A82D"/>
			<stop  offset="0.4618" style="stop-color:#F48F21"/>
			<stop  offset="0.8296" style="stop-color:#EE650F"/>
			<stop  offset="1" style="stop-color:#EB4F05"/>
		</linearGradient>
		<path class="st4" d="M123.2,107.82c0.11-0.89,0.71-4.48,0.99-5.42c0.28-0.93,1.15-3.35,1.65-4.7c0.5-1.35,1.61-3.52,1.97-4.4
			c0.35-0.88,1.39-2.85,2.02-4.41c0.63-1.57,2.41-4.62,3.26-6.3c0.85-1.68,2.89-6.03,3.29-6.74c0.4-0.71,1.61-3.52,2.35-4.61
			c0.74-1.09,1.2-2.31,1.9-3.09c0.69-0.77,0.98-1.64,1.42-2.18c0.44-0.53,1.46-2.55,1.96-3.35c0.5-0.8,1.53-2.26,1.95-2.85
			c0.42-0.59,1.58-2.02,1.99-2.67c0.41-0.65,0.68-1.08,1.15-1.74c0.34-0.49,0.59-0.95,0.79-1.41c0.23-0.73,0.42-1.29,0.42-1.29
			s-1.33,1.79-1.86,2.15c-0.53,0.37-1.83,2.27-3.43,3.38c-1.6,1.1-4.31,3.33-6.33,4.77c-2.02,1.45-5.72,3.65-6.83,4.76
			c-1.11,1.12-2.77,2.48-4,2.51c-1.23,0.03-1.61-1.12-1.92-1.91c-0.3-0.79-0.21-3.66-0.06-5.17c0.15-1.52-0.2-3.05-0.17-4.04
			c0.02-0.99,0.94-4.04,1.27-4.74c0.34-0.69,2.43-5.62,2.43-5.62s-1.75,1.01-2.44,0.68c-0.69-0.34-1.03-1.25-0.98-2.12
			c0.05-0.88-0.25-3.28-0.09-5.29c0.16-2.02,1.81-5.11,1.81-5.11l-0.3,0.26c-0.13,0.14-0.25,0.28-0.33,0.39
			c-0.42,0.59-1.7,3.11-2.07,3.68c-0.36,0.58-1.68,3.47-1.87,4.01c-0.19,0.54-0.83,2.6-1.5,3.99c-0.67,1.39-1.92,4.08-2.29,4.9
			c-0.37,0.82-1.9,4.94-2.27,6.08c-0.36,1.13-1.81,6.71-2.09,7.95c-0.28,1.24-1.19,6.2-1.41,7.12c-0.22,0.92-1.14,7.24-1.4,8.53
			c-0.26,1.29-0.91,5.77-1.04,7.65c-0.13,1.88-0.8,5.43-0.89,6.69c-0.09,1.26-0.54,1.17-0.64,2.06c-0.11,0.89-0.34,2.3-0.23,2.52
			c0.11,0.22,2.11,5.21,2.74,6.36c0.63,1.15,1.83,3.72,3.28,6.3c1.45,2.57,2.37,4.71,2.64,5.39c0.28,0.68,1.33,2.05,1.33,2.05
			s0.94-1.32,1.2-2.06c0,0,0.16-0.65,0.54-1.73c0.37-1.07,1.15-4.46,1.23-5.47C122.42,112.56,123.09,108.71,123.2,107.82z"/>
		
			<linearGradient id="SVGID_6_" gradientUnits="userSpaceOnUse" x1="86.9394" y1="-29.07" x2="123.3335" y2="-29.07" gradientTransform="matrix(0.9752 -0.2213 0.2213 0.9752 20.3382 121.4534)">
			<stop  offset="0" style="stop-color:#F9B231"/>
			<stop  offset="0.1727" style="stop-color:#F8A82D"/>
			<stop  offset="0.4618" style="stop-color:#F48F21"/>
			<stop  offset="0.8296" style="stop-color:#EE650F"/>
			<stop  offset="1" style="stop-color:#EB4F05"/>
		</linearGradient>
		<path class="st5" d="M117.15,59.95c0.26-0.74,1.98-5.14,2.2-5.81c0.22-0.67,1.79-4.11,2.29-5.15c0.5-1.04,1.27-3.38,1.79-4.36
			c0.52-0.98,1.24-2.69,1.58-3.39c0.34-0.69,0.99-1.89,1.31-2.4c0.32-0.5,0.83-1.24,1.16-1.68c0.04-0.05,0.09-0.11,0.15-0.18
			l-1.27,1.1c0,0-2.09,2.21-2.94,3.39c-0.84,1.18-4.28,4.55-4.79,5.04c-0.51,0.49-4.96,4.83-5.82,5.4
			c-0.86,0.57-3.15,2.44-4.38,2.48c-0.68,0.02-1.18-0.01-1.69-0.26c-0.17,1.32-0.43,3.08-0.58,4c-0.27,1.54-1.04,5.24-1.59,7.16
			c-0.55,1.92-1.23,4.11-1.76,5.59c-0.53,1.48-1.5,3.43-1.9,4.14c-0.4,0.71-1.47,2.25-1.47,2.25s0.97,3.18,1.82,5.58
			c0.85,2.4,7.55,19.71,7.83,18.97c0.2-0.53,0.4-1.12,0.5-1.59c0.24-1.11,0.68-4.91,1.01-6.71c0.33-1.81,0.9-6.38,1.24-8.44
			c0.34-2.05,1.03-6.1,1.24-7.32c0.22-1.22,1-5.66,1.23-6.83c0.23-1.17,0.92-4.1,1.16-4.96C115.73,65.1,116.89,60.69,117.15,59.95z"
			/>
		
			<linearGradient id="SVGID_7_" gradientUnits="userSpaceOnUse" x1="85.7308" y1="-46.0554" x2="99.1817" y2="-46.0554" gradientTransform="matrix(0.9752 -0.2213 0.2213 0.9752 20.3382 121.4534)">
			<stop  offset="0" style="stop-color:#F9B231"/>
			<stop  offset="0.1727" style="stop-color:#F8A82D"/>
			<stop  offset="0.4618" style="stop-color:#F48F21"/>
			<stop  offset="0.8296" style="stop-color:#EE650F"/>
			<stop  offset="1" style="stop-color:#EB4F05"/>
		</linearGradient>
		<path class="st6" d="M105.41,52.97c-1.17-1.34-1.81-2.55-2.82-4.79c-1-2.24-0.78-2.91-1.28-4.53c-0.49-1.62-0.69-1.94-1.02-2.86
			c-0.33-0.91-0.77-2.3-0.66-3.43c0.11-1.14,0.42-3.06,0.42-3.06s-0.09,0.13-0.23,0.33c-0.33,1.11-0.7,2.3-0.8,2.63
			c-0.22,0.67-0.61,4.65-0.78,5.55c-0.17,0.9-0.58,6.43-0.78,7.71c-0.2,1.28-0.32,5.39-0.54,6.61c-0.22,1.22-0.56,5.44-0.68,7.07
			c-0.12,1.64-0.42,2.75-0.33,2.91c0.1,0.16,1.64,4.51,1.95,5.3c0.3,0.8,1.57,4.22,1.69,4.44c0.11,0.22,0.56,1.11,0.56,1.11
			s0.33-2.11,0.81-2.96c0.49-0.85,1.79-3.56,2.28-4.91c0.5-1.35,1.48-4.66,1.75-5.89c0.28-1.24,0.91-4.16,1.08-5.31
			c0.17-1.15,0.49-3.01,0.63-4.04c0.03-0.22,0.06-0.48,0.09-0.74C106.35,53.91,105.93,53.57,105.41,52.97z"/>
		
			<linearGradient id="SVGID_8_" gradientUnits="userSpaceOnUse" x1="83.0243" y1="-52.4629" x2="96.924" y2="-52.4629" gradientTransform="matrix(0.9752 -0.2213 0.2213 0.9752 20.3382 121.4534)">
			<stop  offset="0" style="stop-color:#F9B231"/>
			<stop  offset="0.1727" style="stop-color:#F8A82D"/>
			<stop  offset="0.4618" style="stop-color:#F48F21"/>
			<stop  offset="0.8296" style="stop-color:#EE650F"/>
			<stop  offset="1" style="stop-color:#EB4F05"/>
		</linearGradient>
		<path class="st7" d="M99.98,34.42c-0.27,0.4-1.17,1.74-1.46,2.33c-0.34,0.69-0.91,1.44-1.39,2.04c-0.48,0.6-1.09,0.62-2.64,0.35
			c-1.54-0.27-1.39-0.67-2.12-1.74c-0.44-0.63-1.1-1.48-1.69-2.32c0.27,0.81,0.5,1.58,0.51,1.8c0,0.5,0.36,0.28,0.51,0.68
			c0.15,0.4,0.5,1.37,0.7,2.25c0.2,0.88,0.16,1.51,0.06,2.46c-0.09,0.95-0.46,2.33-0.69,2.94c-0.23,0.61-0.35,1.19-0.53,1.71
			c-0.17,0.52-0.96,1.53-1.13,1.63c-0.16,0.1-0.88,1.31-0.88,1.31s0.71,2.56,1,3.29c0.29,0.74,2.19,5.31,2.46,5.93
			c0.26,0.62,1.5,3.06,2.15,4.58c0.65,1.52,1.09,3.46,1.09,3.46s0.37-0.58,0.52-1.54c0.15-0.96,0.3-4.4,0.5-6.2
			c0.2-1.81,0.18-5.51,0.31-7.39c0.13-1.88,0.56-5.69,0.66-6.88c0.1-1.2,0.62-4.9,0.84-5.81c0.22-0.92,0.71-3.13,0.99-4.06
			C99.81,35.05,99.89,34.76,99.98,34.42z"/>
		
			<linearGradient id="SVGID_9_" gradientUnits="userSpaceOnUse" x1="79.2342" y1="-68.4355" x2="88.3376" y2="-68.4355" gradientTransform="matrix(0.9752 -0.2213 0.2213 0.9752 20.3382 121.4534)">
			<stop  offset="0" style="stop-color:#F9B231"/>
			<stop  offset="0.1727" style="stop-color:#F8A82D"/>
			<stop  offset="0.4618" style="stop-color:#F48F21"/>
			<stop  offset="0.8296" style="stop-color:#EE650F"/>
			<stop  offset="1" style="stop-color:#EB4F05"/>
		</linearGradient>
		<path class="st8" d="M91.95,44.42c0.22-0.67,0.52-1.54,0.5-2.71c-0.02-1.17-0.12-2.44-0.41-3.43c-0.25-0.87-0.64-1.51-1.02-2.72
			c-0.54-0.73-1.07-1.48-1.4-2.11c-0.65-1.21-0.99-2.74-0.99-2.74l-0.45,0.72c0,0-0.86,0.56-2.18-0.37
			c-1.33-0.94-1.51-1.76-2.25-2.83c-0.74-1.07-1.24-2.19-1.24-2.19l-0.61,1.13c0,0-1.01-0.64-1.34-1.55
			c-0.33-0.91-1.07-1.98-1.07-1.98s-0.01,0.14-0.01,0.36c0.36,1.05,0.73,2.11,0.89,2.6c0.37,1.09,1.75,4.42,2.52,6.47
			c0.77,2.05,2.11,5.76,2.79,7.95c0.68,2.19,1.9,5.13,2.55,6.59c0.64,1.46,1,2.24,1,2.24s0.69-1.72,1.17-2.25
			C90.88,47.07,91.73,45.09,91.95,44.42z"/>
		
			<linearGradient id="SVGID_10_" gradientUnits="userSpaceOnUse" x1="71.7615" y1="60.3638" x2="102.5563" y2="60.3638" gradientTransform="matrix(0.9752 -0.2213 0.2213 0.9752 20.3382 121.4534)">
			<stop  offset="0" style="stop-color:#F9B231"/>
			<stop  offset="0.1727" style="stop-color:#F8A82D"/>
			<stop  offset="0.4618" style="stop-color:#F48F21"/>
			<stop  offset="0.8296" style="stop-color:#EE650F"/>
			<stop  offset="1" style="stop-color:#EB4F05"/>
		</linearGradient>
		<path class="st9" d="M135.21,164.58c-0.54-1.85-2.48-6.05-2.48-6.05s-1.29-1.07-3.28-1.66c-1.99-0.6-3.78-1.68-5.41-2.36
			c-1.64-0.68-3.68-1.51-5.08-2c-1.41-0.48-3.22-0.57-4.92-0.74c-1.71-0.17-3.9-0.04-4.59-0.07c-0.69-0.03-3.2,0.6-4.06,0.61
			c-0.86,0.01-2.82,0.39-3.63,0.33c-0.11-0.01-0.23-0.02-0.38-0.03c-0.18,0-0.3-0.02-0.36-0.03c0,0-0.01,0-0.01,0
			c0.15,0.06,0.88,0.34,2.8,1.2c2.2,0.98,2.34,1.61,4.66,2.4c2.32,0.79,4.88,1.2,6.96,2.37c2.08,1.18,3.59,1.32,6.37,2.67
			c2.78,1.35,3.39,1.87,6.2,3.37c2.81,1.51,4.74,2.75,4.74,2.75c0.63,0.47,2.51,1.63,3.67,2.12
			C136.1,168.34,135.7,166.24,135.21,164.58z"/>
		
			<linearGradient id="SVGID_11_" gradientUnits="userSpaceOnUse" x1="42.936" y1="43.1402" x2="101.4058" y2="43.1402" gradientTransform="matrix(0.9752 -0.2213 0.2213 0.9752 20.3382 121.4534)">
			<stop  offset="0" style="stop-color:#F9B231"/>
			<stop  offset="0.1727" style="stop-color:#F8A82D"/>
			<stop  offset="0.4618" style="stop-color:#F48F21"/>
			<stop  offset="0.8296" style="stop-color:#EE650F"/>
			<stop  offset="1" style="stop-color:#EB4F05"/>
		</linearGradient>
		<path class="st10" d="M129.44,148.4c-0.97-2.37-2.08-5.09-2.08-5.09s-1.95-0.98-3.81-1.54c-1.86-0.57-3.2-1.56-5.16-2.6
			c-1.96-1.04-4.59-2.54-6.59-3.45c-2-0.91-3.67-1.76-5.09-2.3c-1.42-0.54-5.2-0.86-6.44-0.89c-1.24-0.03-4.35-0.12-5.33-0.09
			c-0.98,0.04-3.95,0.03-5.48,0.07c-1.53,0.04-5.13,0.54-6.08,0.7c-0.95,0.15-5.09,0.97-5.86,1.14c-0.76,0.17-3.88,1.13-4.34,1.29
			c-0.46,0.17-1.37,0.5-1.94,0.69c-0.57,0.19-1.91,1.11-2.53,1.38c-0.13,0.06-0.31,0.14-0.49,0.24c-0.05,0.04-0.09,0.07-0.09,0.07
			s2.39-0.91,3.5-0.92c1.11-0.01,3.71,0.02,5.31,0.52c1.6,0.5,1.23,1.08,1.23,1.08l-1.51,0.96c0,0,3.87-0.38,5.06-0.04
			c1.19,0.35,4.01-0.29,5.26,0.29c1.24,0.58,4.08,0.55,5.45,0.62c1.37,0.06,4.47,0.1,6.26,0.92c1.8,0.83,4.71,1.16,5.89,2
			c1.18,0.84,1.5,1.14,2.02,2.38c0.53,1.24,0.31,1.91-0.27,3.15c-0.58,1.24-2,2.06-3.28,2.97c-1.28,0.91-2.09,0.6-2.09,0.6
			s0.15,0.06,0.55,0.22c0.32-0.06,0.65-0.12,0.98-0.13c0.61-0.02,0.88-0.2,1.31-0.24c0.42-0.03,1.86,0.01,2.27-0.08
			c0.41-0.09,3.02-0.56,3.61-0.7c0.59-0.13,3.31-0.13,4.3-0.11c0.99,0.02,3.62,0.42,4.31,0.75c0.69,0.34,4.57,1.37,5.19,1.66
			c0.62,0.29,4.21,1.7,5.18,2.41c0.96,0.71,4.08,2.16,4.08,2.16s-0.3-1.6-0.92-3.25C131.18,153.63,130.41,150.78,129.44,148.4z"/>
		
			<linearGradient id="SVGID_12_" gradientUnits="userSpaceOnUse" x1="29.9226" y1="13.3438" x2="99.7231" y2="13.3438" gradientTransform="matrix(0.9752 -0.2213 0.2213 0.9752 20.3382 121.4534)">
			<stop  offset="0" style="stop-color:#F9B231"/>
			<stop  offset="0.1727" style="stop-color:#F8A82D"/>
			<stop  offset="0.4618" style="stop-color:#F48F21"/>
			<stop  offset="0.8296" style="stop-color:#EE650F"/>
			<stop  offset="1" style="stop-color:#EB4F05"/>
		</linearGradient>
		<path class="st11" d="M51.22,101.1c0.66,0.72,1.55,1.38,0.61,1.59c-0.94,0.21-2.1-0.02-2.1-0.02s1.88,0.68,2.29,0.84
			c0.41,0.15,1.39,0.67,3,1.79c1.61,1.12,2.7,2.11,3.85,2.83c1.15,0.73,1,1.13,0.77,2.3c-0.16,0.8-1.32,1.3-2.03,1.54
			c0.7-0.18,1.9-0.41,2.73-0.09c1.22,0.46,3.92,0.96,5.54,2.08c1.61,1.12,5.09,1.19,6.41,2.13c1.32,0.93,5.85,1.27,6.83,1.79
			c0.98,0.52,3.1,1.15,5.42,2.1c2.32,0.96,1.18,0.85,2.02,2.38c0.84,1.54,0.06,1.35-0.67,2.5c-0.73,1.15-3.88,3.6-5.42,4.44
			c-1.54,0.84-5.16,3.39-5.63,3.5c-0.47,0.11-0.75,1.03-2.17,1.85c-1.42,0.82-4.54,3.38-4.54,3.38s0.45-0.17,1.05-0.37
			c0.59-0.37,1.26-0.78,1.41-0.86c0.22-0.11,1.42-0.57,1.63-0.74c0.21-0.17,2.18-0.74,2.93-0.97c0.75-0.23,2.92-0.73,3.44-0.9
			c0.51-0.18,4.31-0.85,5.31-1.08c1-0.23,5.68-0.55,6.9-0.64c1.21-0.09,6.99,0.02,7.83-0.05c0.85-0.07,4.64,0.31,5.6,0.46
			c0.96,0.15,3.72,1.14,4.7,1.65c0.98,0.52,3.86,1.78,4.54,2.06c0.68,0.28,4.43,2.08,5.25,2.7c0.82,0.62,4.6,2.29,5.55,2.94
			c0.95,0.65,3.11,1.46,3.11,1.46s-0.16-1.26-0.14-1.7c0.02-0.44-1.76-4.23-3.43-7.75c-1.66-3.51-3.22-7.67-3.87-9.13
			c-0.64-1.46-1.02-1.5-1.92-1.91c-0.9-0.41-3.53-1.67-5.46-2.84c-1.93-1.17-5.14-3.59-6.29-4.32c-1.15-0.72-4.19-2.14-5.38-2.73
			c-1.19-0.6-4.55-1.81-5.87-2.44c-1.32-0.63-4.12-1.53-5.45-1.97c-1.33-0.44-5.6-1.26-6.4-1.51c-0.8-0.25-4.25-1.02-6.33-1.47
			c-2.08-0.46-5.24-1.04-6.49-1.37c-1.25-0.33-4.71-0.6-5.49-0.79c-0.78-0.19-2.94-0.45-3.8-0.68c-0.86-0.24-2.81-0.66-3.79-0.93
			c-0.99-0.27-3.96-1.39-4.64-1.67c-0.68-0.28-2.58-1.02-3.57-1.57c-1-0.54-2.24-1.19-3.69-2.29c0,0,2.25,1.72,3.02,2.4
			C49.18,99.71,50.57,100.38,51.22,101.1z"/>
		
			<linearGradient id="SVGID_13_" gradientUnits="userSpaceOnUse" x1="29.9226" y1="-13.1934" x2="96.0979" y2="-13.1934" gradientTransform="matrix(0.9752 -0.2213 0.2213 0.9752 20.3382 121.4534)">
			<stop  offset="0" style="stop-color:#F9B231"/>
			<stop  offset="0.1727" style="stop-color:#F8A82D"/>
			<stop  offset="0.4618" style="stop-color:#F48F21"/>
			<stop  offset="0.8296" style="stop-color:#EE650F"/>
			<stop  offset="1" style="stop-color:#EB4F05"/>
		</linearGradient>
		<path class="st12" d="M115.98,116.87c-0.91-1.28-3.07-6.72-4.41-9.38c-1.34-2.66-2.2-4.5-3.17-6.63c-0.98-2.13-1.95-3.7-2.84-4.36
			c-0.89-0.66-4.51-3.55-5.64-4.46c-1.14-0.92-6.37-5.72-8.26-7.27c-1.89-1.55-4.71-3.63-6.4-4.54c-1.69-0.91-2.64-1.56-4.46-2.76
			c-1.81-1.19-5.5-3.26-6.52-3.71c-1.03-0.45-4.26-2.18-5.19-2.72c-0.92-0.53-3.81-1.54-4.86-2.11c-1.05-0.56-1.98-1.1-3.32-1.84
			c-1.34-0.75-2.6-1.39-3.29-1.97c-0.69-0.58-0.64-0.31-1.32-0.88c-0.41-0.34-1.3-1.2-2.09-1.88c-0.2-0.11-0.31-0.17-0.31-0.17
			s1.48,1.64,2.02,2.38c0.54,0.74,1.11,1.6,1.11,1.6l-0.88-0.05c0,0,1.45,2.02,2.16,2.97c0.71,0.95,1.93,2.53,2.98,3.89
			c1.05,1.37,1.01,1.75,0.51,2.23c-0.51,0.48-3.06-0.42-3.06-0.42s2.11,1.13,2.97,1.67c0.87,0.55,3.39,2.94,5.65,4.77
			c2.27,1.83,4.55,3.17,6.35,5.11c1.8,1.94,2.36,2.8,3.48,3.9c1.12,1.11,0.82,1.42,0.12,2.69c-0.7,1.27-1.73,1.63-3.27,2.47
			c-1.54,0.84-3.59,1.06-5.85,1.45c-2.26,0.39-2.72,0-4.81,0.6c-2.09,0.6-3.57,0.07-4.62-0.19c-0.61-0.15-1.01-0.31-1.26-0.48
			c0.18,0.4,0.34,0.97,0.1,1.36c-0.45,0.72-1.5,0.46-2.82,0.64c-1.32,0.18-2.72,0-4.5-0.21c-1.78-0.21-4.9-1.98-4.9-1.98
			s0.16,0.12,0.41,0.31c0.5,0.37,0.99,0.72,1.33,0.97c0.96,0.71,1.26,0.64,2.31,1.21c1.06,0.56,2.48,1.11,3.58,1.6
			c1.1,0.49,1.97,1.04,3.59,1.41c1.63,0.37,2.1,0.51,3.64,0.78c1.54,0.27,1.84,0.2,3.14,0.52c1.31,0.32,2.62,0.39,3.79,0.62
			c1.16,0.23,3.15,0.27,4.51,0.83c1.36,0.56,4.08,0.81,5.66,1.25c1.58,0.44,4.6,0.93,5.85,1.27c1.25,0.33,3.64,0.53,5.57,1.14
			c1.93,0.61,3.8,1.24,5.64,1.99c1.84,0.76,3.97,1.45,5.95,2.54c1.98,1.09,3.88,1.84,5.72,3.15c1.84,1.31,4.66,2.84,6.13,3.86
			c1.47,1.03,2.66,1.93,4.15,2.52c1.49,0.59,3,0.99,3,0.99S116.89,118.14,115.98,116.87z"/>
		
			<linearGradient id="SVGID_14_" gradientUnits="userSpaceOnUse" x1="45.8284" y1="-35.3925" x2="89.3505" y2="-35.3925" gradientTransform="matrix(0.9752 -0.2213 0.2213 0.9752 20.3382 121.4534)">
			<stop  offset="0" style="stop-color:#F9B231"/>
			<stop  offset="0.1727" style="stop-color:#F8A82D"/>
			<stop  offset="0.4618" style="stop-color:#F48F21"/>
			<stop  offset="0.8296" style="stop-color:#EE650F"/>
			<stop  offset="1" style="stop-color:#EB4F05"/>
		</linearGradient>
		<path class="st13" d="M106.66,98.1l-0.95-2.01c0,0-2.24-6.59-2.94-9.15c-0.7-2.56-3.12-9.92-4.76-14.18
			c-1.65-4.26-3.09-7.64-3.47-9.28c-0.37-1.64-1.28-2.37-1.48-2.44c-0.2-0.08-2.09-1.07-3.48-1.99c-1.38-0.92-2.98-2.23-4.56-3.78
			c-1.59-1.55-3.19-3.17-4.3-4.28c-1.12-1.11-2.27-2.64-3.59-4.13c-1.33-1.49-1.81-2.25-2.8-3.35c-0.98-1.08-1.78-1.46-2.48-2.13
			c-0.3-0.19-0.51-0.32-0.51-0.32s2.03,1.89,2.55,2.51c0.51,0.63,0.87,1.65,1.37,2.78c0.5,1.12,0.92,3.5,1.38,5
			c0.46,1.5,1.26,3.91,1.82,6.38c0.56,2.47,0.68,2.44,0.29,4.01c-0.38,1.57-2.45,2.28-3.12,2.56c-0.68,0.28-2.86,1.02-5.2,1.05
			c-2.34,0.04-3.86-0.11-5.66-0.44c-1.81-0.33-3.74-1.25-5-1.34c-1.25-0.08-1.82,0.17-3.41-0.34c-1.6-0.5-2.46-1.05-2.46-1.05
			s0.23,0.25,0.53,0.6c0.61,0.47,1.24,1.12,2.06,1.73c0.89,0.66,1,0.58,1.76,0.96c0.77,0.38,2.61,1.69,3.68,2.07
			c1.07,0.38,3.53,1.67,5.04,2.63c1.51,0.95,4.89,2.23,6.41,3.18c1.51,0.95,3.96,1.94,5.34,2.86c1.38,0.92,5.12,2.98,6.13,3.61
			c1.01,0.64,4.34,2.78,5.9,4.22c1.56,1.44,4.09,3.33,5.35,4.53c1.26,1.2,5.14,4.7,6.79,6.24C104.53,96.36,106.66,98.1,106.66,98.1z
			"/>
		
			<linearGradient id="SVGID_15_" gradientUnits="userSpaceOnUse" x1="67.9355" y1="-62.5616" x2="84.4707" y2="-62.5616" gradientTransform="matrix(0.9752 -0.2213 0.2213 0.9752 20.3382 121.4534)">
			<stop  offset="0" style="stop-color:#F9B231"/>
			<stop  offset="0.1727" style="stop-color:#F8A82D"/>
			<stop  offset="0.4618" style="stop-color:#F48F21"/>
			<stop  offset="0.8296" style="stop-color:#EE650F"/>
			<stop  offset="1" style="stop-color:#EB4F05"/>
		</linearGradient>
		<path class="st14" d="M78.83,29.47c-0.31-0.3-0.9-1.77-0.9-1.77s0.24,3.77,0.4,4.48c0.16,0.7,0.68,3.55,0.89,4.49
			c0.21,0.94,0.07,3.57-0.16,4.73c-0.23,1.16-0.77,1.53-1.15,1.99c-0.39,0.46-2.69,0.12-3.56-0.43c-0.61-0.38-1.84-1.16-2.53-1.59
			c0.78,0.77,1.3,0.91,2.03,1.72c0.74,0.82,1.12,1.11,1.96,2.09c0.84,0.98,1.03,1.25,2.71,3.22c1.68,1.96,2.19,2.59,4.02,4.4
			c1.83,1.81,2.57,2.63,4.61,4.26c2.04,1.64,2.95,2.11,3.9,2.76c0.95,0.65,2,1.21,2,1.21s0.11-0.34-0.04-0.98
			c-0.15-0.65-2.02-5.1-2.45-6.18c-0.43-1.08-0.71-2.31-1.77-4.79c-1.06-2.48-1.92-4.63-2.43-6.06c-0.51-1.43-1.76-5.59-2.46-7.29
			c-0.69-1.69-2.17-5.75-2.61-6.88c-0.44-1.13-0.78-1.8-1.12-2.77c-0.34-0.97-0.36-1.61-0.71-2.45c0,0-0.1,3.36,0.02,4.44
			C79.62,29.17,79.14,29.77,78.83,29.47z"/>
		
			<linearGradient id="SVGID_16_" gradientUnits="userSpaceOnUse" x1="33.0171" y1="12.6666" x2="144.346" y2="12.6666" gradientTransform="matrix(0.9752 -0.2213 0.2213 0.9752 20.3382 121.4534)">
			<stop  offset="0" style="stop-color:#E2000B"/>
			<stop  offset="0.4242" style="stop-color:#F39100"/>
			<stop  offset="0.5192" style="stop-color:#F39405"/>
			<stop  offset="0.6388" style="stop-color:#F59C15"/>
			<stop  offset="0.7718" style="stop-color:#F7AA2F"/>
			<stop  offset="0.9133" style="stop-color:#FABD52"/>
			<stop  offset="1" style="stop-color:#FCCB6C"/>
		</linearGradient>
		<path class="st15" d="M148.79,200.41c0,0,2.46-0.06,2.87-1.15c0.41-1.08,0.16-2.18-0.41-2.54c-0.58-0.37-3.32-5.18-4.78-7.98
			c-1.46-2.8-3.22-6.19-5.93-12.33c-2.71-6.14-3.01-6.73-3.41-7.79c-0.41-1.06-3.51-10.4-4.08-11.43c-0.56-1.02-0.69-2.31-0.69-2.31
			s0.7-1.97,1.7-4.84c1-2.86,2.46-5.83,3.63-7.25c1.16-1.42,4.44-5.13,6.35-6.88c1.91-1.75,3.84-2.68,6.13-4.19
			c2.29-1.51,5.84-3.3,5.84-3.3l2.12-0.81c0,0-2.89,0.32-9.17,4.22c-6.28,3.9-7.78,5.64-9.38,7.65c-1.6,2.01-3.56,4.27-4.53,6.54
			c-0.97,2.28-1.43,3.13-2.16,5.02c-0.72,1.89-0.98,2.94-0.98,2.94s-1.25-3.34-1.67-4.81c-0.41-1.47-0.63-2.41-1.59-4.83
			c-0.96-2.42-0.96-2.42-0.96-2.42s1.02-1.3,1.9-3.23c0.88-1.93,1.09-2.8,1.89-5.45c0.8-2.65,1.47-4.78,2.53-7
			c1.06-2.22,2.96-5.12,4.46-7.93c1.5-2.81,3.02-4.14,4.65-6.74c1.63-2.6,2.58-3.88,4.97-6.4c2.4-2.52,2.51-2.71,5.9-5.95
			c3.39-3.24,3.25-3.12,4.76-4.45c1.51-1.33,2.87-2.96,2.87-2.96s-3.42,3.08-5.19,4.72c-1.77,1.64-5.37,5.01-7.26,6.84
			c-1.89,1.83-6.19,7.58-8.4,10.55c-2.21,2.97-5.32,8.12-6.38,10.01c-1.05,1.89-2.06,4.34-2.92,6.76c-0.85,2.42-1.25,3.91-2.06,6.15
			c-0.81,2.24-0.75,2.15-1.42,3.21c-0.66,1.06-0.76,1-0.9,0.37c-0.14-0.63-1.95-4.58-3-7.39c-1.05-2.81-2.37-4.98-3.06-6.96
			c-0.7-1.98-1.2-3.1-1.2-3.1s-0.2-0.53,0.07-0.76c0.28-0.23,1.78-3.04,2.16-5.02c0.38-1.98,0.99-6.15,1.21-8.1
			c0.22-1.94,0.47-4.81,1.19-7.11c0.71-2.3,2.76-6.72,3.7-9.08c0.95-2.36,2.87-5.51,4.66-9.21c1.8-3.7,3.21-6.16,4.83-9.58
			c1.62-3.42,2.66-4.97,4.25-7.8c1.58-2.83,2.1-3.44,3.39-5.38c1.29-1.94,1.37-1.96,2.11-3.03c0.74-1.08,1.41-2.13,1.41-2.13
			s-1.71,2.28-3.25,4.2c-1.54,1.92-4.45,7.6-6.1,9.79c-1.64,2.18-4.03,8-5.15,9.98c-1.12,1.98-3.52,6.65-4.72,8.98
			c-1.2,2.33-2.44,5.58-3.6,7.74c-1.16,2.16-1.57,4.72-2.42,7.14c-0.85,2.42-0.57,5.48-1.04,7.4c-0.47,1.92-0.63,3.77-1,5.42
			c-0.37,1.65-0.19,1.36-0.9,2.92c-0.72,1.56-1.32,2.52-1.32,2.52s-1.88-3.2-3.16-6.28c-1.28-3.09-1.75-3.72-3.43-7.13
			c-1.68-3.41-2.27-4.92-2.62-5.75c-0.35-0.83-0.63-1.67-0.63-1.67s0.96-1.95,1.18-3.15c0.22-1.2,0.85-5.71,0.94-7.46
			c0.1-1.75,1.22-8.76,1.44-10.71c0.22-1.94,1.73-9.45,2.09-11.84c0.36-2.39,1.77-6.33,2.8-9.45c1.02-3.12,2.5-6.41,3.28-8.07
			c0.78-1.66,1.1-2.39,1.67-3.92c0.56-1.53,1.21-2.66,1.56-3.65c0.35-0.98,1.01-2.45,1.01-2.45s-1.71,3.02-2.59,5.28
			c-0.89,2.26-3.55,8.3-4.58,10.68c-1.02,2.37-2.73,8.28-3.34,11.05c-0.61,2.77-2.23,11.22-2.77,14.3c-0.53,3.09-0.7,6.34-1.14,8.74
			c-0.44,2.41-0.17,3.58-0.85,6.04c-0.68,2.46-0.44,2.41-0.91,3.25c-0.47,0.85-0.23,1.53-0.9,0.04c-0.67-1.49-2.52-4.95-3.62-8.32
			c-1.09-3.38-2.18-7.41-3.18-10.4c-1.01-2.98-1.3-3.91-1.3-3.91s1.08-1.4,1.4-2.54c0.32-1.14,1.65-4,2.47-6.9
			c0.82-2.9,0.93-3.51,1.54-6.28c0.61-2.77,0.78-5.28,0.83-5.05c0.05,0.23-0.76,3.55-1.58,6.12c-0.82,2.57-1.33,5.41-1.88,6.93
			c-0.56,1.53-0.88,2.67-1.65,4.33c-0.78,1.66-1.26,2.43-1.39,2.21c-0.13-0.22-1.27-3.42-1.96-4.99c-0.69-1.57-1.43-4.12-1.43-4.12
			s0.15-1.51,0.31-4.1c0.15-2.59,0.26-4.67,0.46-7.77c0.2-3.09,0.47-5.54,0.73-8.4c0.26-2.86,0.11-3.16,0.39-5.19
			c0.28-2.04,0.39-3.71,0.39-3.71s-0.53,3.5-0.92,6.14c-0.39,2.64-0.6,6.07-0.86,9.26c-0.27,3.19,0.08,4.02-0.2,6.38
			c-0.29,2.37-0.61,4.59-0.74,5.44c-0.14,0.85-0.28,1.3-0.65,0.39c-0.37-0.9-3.48-8.43-4.57-11.07c-1.09-2.64-1.53-3.85-1.53-3.85
			s0.79-1.25,1.78-3.37c1-2.12,1-2.12,1.34-4.26c0.34-2.14,0-2.88-0.17-3.67c-0.18-0.78-1.22-2.11-1.22-2.11s0.97,1.76,1.08,3.3
			c0.1,1.54,0,2.89-0.5,4.32c-0.5,1.43-0.63,1.95-1.35,3.11c-0.73,1.15-1.18,1.34-1.18,1.34s-1.32-2.91-1.74-4.05
			c-0.43-1.14-1.4-3.97-2.82-8.09c-1.43-4.12-1.48-4.36-2.34-6.31c-0.85-1.95-2.25-4.84-2.25-4.84s0.8,2.79,1.46,4.28
			c0.67,1.5,1.85,5.26,2.56,6.92c0.71,1.65,0.74,2.88,1.86,5.67c1.13,2.79,0.98,3.24,2.21,5.76c1.23,2.52,1.82,5.11,2.52,6.76
			c0.71,1.65,1.9,4.76,1.96,4.99c0.05,0.24-1.26-0.12-3.47-1.85c-2.2-1.72-3.89-2.99-5.83-5.02c-1.94-2.03-2.9-2.63-4.4-4.52
			c-1.5-1.88-3.33-3.77-3.33-3.77s-1.43-1.57-1.29-1.35c0.13,0.22,2.04,2.83,3.26,4.2c1.22,1.37,2.78,3.16,3.77,4.25
			c0.99,1.09,2.17,2.31,3.51,3.49c1.34,1.18,2.48,2.24,3.77,3.18c1.28,0.94,2.05,1.43,3.11,2.09c1.06,0.67,1.72,0.68,1.83,1.15
			c0.11,0.47,1.33,3.32,1.87,4.6c0.54,1.28,1.31,3.58,1.31,3.58s0.35,1.16,0.8,2.78c0.45,1.63,1.65,4.73,2.2,6.42
			c0.55,1.69,1.28,3.83,2.22,6.5c0.93,2.67,1.22,4.66,2.05,6.86c0.83,2.2,1.44,3.46,1.44,3.46s-4.52-3.58-6.9-6.09
			c-2.38-2.51-8.5-6.97-10.47-8.41c-1.97-1.45-8.59-5.55-10.54-6.5c-1.95-0.96-6.36-3.33-9.39-4.71c-3.03-1.37-6.44-3.31-7.82-3.99
			c-1.39-0.67-4.03-2.13-4.03-2.13s2.09,1.58,3.92,2.73c1.83,1.15,4.36,2.14,6.51,3.3c2.16,1.16,4.72,2.31,6.8,3.48
			c2.08,1.18,5.18,2.53,7.07,3.92c1.88,1.39,4.94,2.91,6.73,4.24c1.78,1.33,4.6,3.24,6.71,5.23c2.1,1.99,3.04,2.85,5.86,5.51
			c2.83,2.65,3.33,2.7,4.84,4.25c1.5,1.55,2.19,2.05,2.76,3.08c0.56,1.02,4.06,8.47,5.28,10.91c1.21,2.44,2.33,5.56,3.49,7.77
			c1.16,2.21,2.1,3.81,2.1,3.81s-2.34-0.13-4.77-2.13c-2.43-2-6.34-4-8.84-5.57c-2.5-1.58-8.03-3.45-10.19-4.61
			c-2.16-1.16-7.45-2.34-9.49-2.62c-2.04-0.28-6.44-1.5-8.96-2.08c-2.52-0.58-7.16-1.42-10.79-1.83c-3.63-0.41-5.96-1.2-8.15-1.78
			c-2.19-0.57-4-1.31-5.28-1.85c-1.28-0.54-2.8-1.1-2.8-1.1s4.2,2.18,6.37,3c2.17,0.83,6.26,1.46,8.68,1.98
			c2.43,0.52,5.98,0.95,8.23,1.43c2.25,0.48,5.87,1.55,7.81,1.77c1.95,0.22,4.87,1.12,7.49,1.76c2.62,0.64,4.78,1.47,6.95,2.3
			c2.17,0.82,4.33,1.65,5.79,2.31c1.47,0.66,3.56,1.91,4.89,2.68c1.33,0.77,2.61,1.71,4.44,2.87c1.82,1.15,1.86,1.31,4.15,2.68
			c2.29,1.38,2.29,1.38,3.66,1.97c1.37,0.59,1.58,0.79,1.86,1.31c0.28,0.51,1.92,4.09,2.79,6.12c0.87,2.03,1.27,4.16,2.54,6.84
			c1.27,2.68,1.88,4.27,1.88,4.27s-2.93-0.57-4.47-1.54c-1.54-0.97-5.62-3.01-9.23-4.74c-3.61-1.73-6.87-3.8-12.23-3.81
			c-5.36-0.02-9.8,0-11.99,0.17c-2.19,0.17-6.57,0.83-8.46,1.18c-1.9,0.35-7.94,2.38-8.65,2.87c0,0,3.86-1.12,6.76-1.78
			c2.9-0.66,9.04-1.56,11.38-1.76c2.34-0.2,6.51,0.01,8.34,0.08c1.83,0.08,4.33-0.16,6.46,0.51c2.13,0.67,5.11,1.47,7.03,2.69
			c1.92,1.21,3.26,1.32,5.65,2.75c2.38,1.44,2.93,1.31,5.35,2.9c2.42,1.59,4.44,2.12,4.44,2.12s1.14,2.13,2.15,5.11
			c1,2.98,0.6,2.66,1.64,5.06c1.04,2.4,1.17,3.36,1.17,3.36s-3.15-1.18-6.14-2.72c-2.99-1.55-4.5-1.7-7.58-2.56
			c-3.08-0.87-5.05-0.83-7.49-0.69c-2.44,0.14-5.49,0.84-6.22,0.92c-0.72,0.08-1.51,0.26-1.51,0.26s3.17,0.19,5.29-0.29
			c2.12-0.48,4.08-0.52,6.12-0.24c2.04,0.28,3.58,0.92,5.83,1.4c2.25,0.48,2.49,0.83,4.79,1.88c2.3,1.04,2.57,1.15,4.71,2.23
			c2.14,1.08,2.96,1.8,2.96,1.8s0.59,2.25,1.54,4.59c0.94,2.34,1.3,3.58,2.25,5.92c0.94,2.34,2.09,5.95,3.06,8.03
			c0.97,2.09,3.26,7.83,4.4,9.96c1.14,2.13,1.32,2.91,2.71,5.4c1.39,2.49,1.17,2.62,1.86,4.19c0.68,1.57-0.33,1.81,0.1,2.62"/>
	</g>
</g>
</svg>
