<?xml version="1.0" encoding="utf-8"?>
<!-- Generator: Adobe Illustrator 23.0.2, SVG Export Plug-In . SVG Version: 6.00 Build 0)  -->
<svg version="1.1" xmlns="http://www.w3.org/2000/svg" xmlns:xlink="http://www.w3.org/1999/xlink" x="0px" y="0px"
	 viewBox="0 0 250.55 224.05" style="enable-background:new 0 0 250.55 224.05;" xml:space="preserve">
<style type="text/css">
	.st0{fill:url(#SVGID_1_);}
	.st1{fill:url(#SVGID_2_);}
	.st2{fill:url(#SVGID_3_);}
	.st3{fill:url(#SVGID_4_);}
	.st4{fill:url(#SVGID_5_);}
	.st5{fill:url(#SVGID_6_);}
	.st6{fill:url(#SVGID_7_);}
	.st7{fill:url(#SVGID_8_);}
	.st8{fill:url(#SVGID_9_);}
	.st9{fill:url(#SVGID_10_);}
	.st10{fill:url(#SVGID_11_);}
	.st11{fill:url(#SVGID_12_);}
	.st12{fill:url(#SVGID_13_);}
</style>
<g id="Background">
</g>
<g id="Objects">
	<g>
		
			<linearGradient id="SVGID_1_" gradientUnits="userSpaceOnUse" x1="396.7686" y1="314.9089" x2="503.9234" y2="314.9089" gradientTransform="matrix(-0.6149 -0.7886 0.7886 -0.6149 155.7669 658.8608)">
			<stop  offset="0" style="stop-color:#EA5B00"/>
			<stop  offset="0.0359" style="stop-color:#E95201"/>
			<stop  offset="0.2045" style="stop-color:#E62F05"/>
			<stop  offset="0.3627" style="stop-color:#E41508"/>
			<stop  offset="0.5052" style="stop-color:#E2050A"/>
			<stop  offset="0.6182" style="stop-color:#E2000B"/>
			<stop  offset="0.694" style="stop-color:#DC010A"/>
			<stop  offset="0.793" style="stop-color:#CC0308"/>
			<stop  offset="0.9041" style="stop-color:#B10604"/>
			<stop  offset="0.9818" style="stop-color:#9A0900"/>
		</linearGradient>
		<path class="st0" d="M81.61,114.07c-0.73-1-0.44-3.17-0.95-4.37c-0.56-1.3-0.99-3.09-1.86-4.21c0.73,0.57,2.5,0.91,3.61,1.3
			c1.36,0.48,2.62,0.88,4.07,0.7c1.75-0.22,1.06-1.79,0.58-3.15c-0.39-1.12-1.09-2.58-2.02-3.37c1.39,0.34,2.4,0.96,2.39-0.84
			c-0.01-1.17-0.38-2.52-0.61-3.72c-0.51-2.6-0.94-5.26-1.35-7.85c0.43,1.29,6.37,6.31,7.81,4.77c0.67-0.72-0.29-3.72-0.43-4.6
			c-0.17-1.05-0.91-5.46-0.91-5.46c-0.09,0.02-0.23-0.2-0.12,0.09c1.57,0.78,3.6,4.28,4.07,0.4c0.28-2.31,0.59-4.53,0.13-6.78
			c0.5,0.23,1.46,1.71,2.05,1.69c0.59-0.02,1.26-1.55,1.53-2.08c0.76-1.51,1.11-3.14,1.55-4.77c0.95-3.55,1.46-6.94,1.56-10.62
			c1,2.76,2.22,5.17,3.02,8.13c0.79,2.93,2.26,5.48,3.85,8.11c1.18,1.95,1.92,3.97,2.73,6.15c0.43,1.13,0.74,2.46,1.63,1.24
			c0.54-0.74,0.73-1.91,0.96-2.78c1.03-3.89,1.45-12.88,1.45-12.88c0.14,1.07,1.06,2.98,1.97,4.1c1.16,1.44,2.46,2.88,3.75,0.96
			c0.96-1.43,1.24-3.27,1.81-4.9c0.63-1.81,1.22-3.41,0.98-5.32c0.28,1.16,1.82,2.08,2.83,2.47c1.54,0.59,1.81-0.64,2.52-1.91
			c1.51-2.69,2.65-5.65,3.56-8.56c0.27,0.81,0.95,2.41,1.97,1.7c0.76-0.53,1.14-2.4,1.56-3.25c1.16-2.37,2.31-4.65,3.26-7.09
			c-0.15,2.75,0.59,5.64,0.94,8.35c0.19,1.48,0.5,3.15,0.94,4.59c0.44,1.47,0.96,2.89,2.46,2.27c-0.84,2.8,0.43,6.09,0.32,8.92
			c0.89-0.37,2.04-0.01,2.92-0.36c0.29,1.45,0.1,3.09,0.32,4.55c0.24,1.6,0.89,3.07,1.17,4.5l0.59,0.07
			c-0.06,0.08-0.24,0.1-0.13,0.14c1.82-0.55,3.26-1.14,4.84-2.2c0.81,1.99-0.92,5.68-1.5,7.7c-0.42,1.45-1.87,5.93-0.44,7.14
			c1.39-0.56,2.93-0.89,4.23-1.54c1.39-0.7,2.5-1.66,3.8-2.58c2.48-1.75,4.63-3.57,6.02-6.25c0.08,1.89,0.35,3.61,0.88,5.45
			c0.52,1.81,0.64,3.7-0.22,5.45c0.87-0.45,1.91-0.18,2.74-0.69c-1.27,2.88-1.41,6.22-2.73,9.13c0,0,2.68,0.26,3.33,0.05
			c-0.76,1.33-2.18,2.05-2.72,3.66c-0.47,1.4-0.83,3.02-0.99,4.52c0.85-0.42,1.47,0.59,2.28,0.15c-0.64,1.61-0.9,3.1-1.3,4.85
			c-0.49,2.13-1.74,3.86-2.39,5.83c0.42,0.1,0.85,0.07,1.27,0.16c-0.71,0.86-1.5,1.53-2,2.61c-0.38,0.79-0.64,1.63-1.1,2.32
			c1.28,0.32,2.32,1.34,3.58,1.82c1.14,0.44,3.19,0.96,4.29,0.31c-3.81,3.02-5.59,7.32-8.79,10.76c0.58,0.74,1.29,1.21,1.98,1.7
			c-2.19,0.81-4.76,1.77-6.13,3.82c0.49,1.21,0.59,2.81,2.12,3.22c-2.31,1.06-4.6,3.16-7.04,3.78c0.24,0.25,0.55,0.5,0.84,0.71
			c-1.31,0.93-3.67,1.31-5.31,1.07c0.27,1.92,0.61,4.12,1.9,5.65c-2.11,0.36-4.4-0.32-6.49-0.74c-1.85-0.37-3.43-1.58-5.12-2.01
			c-0.19,0.7,0.06,1.46-0.19,2.12c-0.91-0.8-1.77-1.68-2.7-2.49c-0.69-0.6-2.18-1.71-2.39-2.52c-0.49,0.98-1.09,1.88-1.08,3.05
			c-1.43-1.54-2.71-3.38-3.44-5.22c-0.64-1.61-0.78-3.47-1.15-5.19c-0.44-2.05-0.53-4.19-1.99-5.89c-1.23-1.42-2.75-2.51-4.74-2.47
			l-0.75-0.29c-3.68-0.45-6.57,1.29-9.33,3.44c-1.43,1.12-2.99,2.2-4.6,2.85c-1.56,0.63-3.55,1.63-5.14,1.75
			c0.35-0.38,0.49-0.84,0.7-1.33c-1.72-0.19-3.61,0.75-5.41,0.25c0.33-0.22,0.54-0.51,0.64-0.88c-1.62,0.21-3.58-0.2-5.24-0.33
			c0.32-0.21,0.46-0.47,0.72-0.72c-1.91,0.03-4.52-1.89-5.91-2.94c0.99-0.86,1.08-2.34,2.13-3.27c-1.09-0.01-2.81-0.91-3.72-1.48
			c0.17-0.09,0.33-0.34,0.49-0.44c-1.47-2-4.7-2.81-5.85-5.08c1.52-0.39,2.68-1.73,4.09-2.32c-1.96-1.49-4.61-2.64-6.21-4.48
			c1.12-0.25,2.19-0.99,3.27-1.36c-0.44-0.81-1.22-1.48-1.77-2.3c-0.58-0.87-1.1-1.8-1.71-2.69c0.93-0.71,2.51-0.94,3.25-1.68"/>
		
			<linearGradient id="SVGID_2_" gradientUnits="userSpaceOnUse" x1="431.7871" y1="280.2718" x2="483.4545" y2="280.2718" gradientTransform="matrix(-0.6149 -0.7886 0.7886 -0.6149 155.7669 658.8608)">
			<stop  offset="0" style="stop-color:#EA5B00"/>
			<stop  offset="0.0359" style="stop-color:#E95201"/>
			<stop  offset="0.2045" style="stop-color:#E62F05"/>
			<stop  offset="0.3627" style="stop-color:#E41508"/>
			<stop  offset="0.5052" style="stop-color:#E2050A"/>
			<stop  offset="0.6182" style="stop-color:#E2000B"/>
			<stop  offset="0.694" style="stop-color:#DC010A"/>
			<stop  offset="0.793" style="stop-color:#CC0308"/>
			<stop  offset="0.9041" style="stop-color:#B10604"/>
			<stop  offset="0.9818" style="stop-color:#9A0900"/>
		</linearGradient>
		<path class="st1" d="M99.72,123.8c-0.72-0.76-4.76-4.08-5.2-4.13c-0.44-0.05-5-3.36-5-3.36s-3.73-3.43-4.13-3.78
			c-0.4-0.35-1.72-1.7-2.28-2.58c-0.56-0.89-1.67-2.13-2.2-2.65c-0.24-0.23-1.1-0.91-1.97-1.58c0.77,1.12,1.19,2.77,1.71,3.99
			c0.51,1.2,0.22,3.37,0.95,4.37l0.26,0.33c-0.74,0.74-2.32,0.97-3.25,1.68c0.61,0.89,1.13,1.82,1.71,2.69
			c0.55,0.82,1.33,1.49,1.77,2.3c-1.09,0.36-2.15,1.11-3.27,1.36c1.6,1.85,4.26,3,6.21,4.48c-1.42,0.59-2.57,1.92-4.09,2.32
			c1.15,2.27,4.38,3.08,5.85,5.08c-0.17,0.1-0.32,0.35-0.49,0.44c0.91,0.57,2.63,1.48,3.72,1.48c-1.04,0.93-1.14,2.4-2.13,3.27
			c1.38,1.05,4,2.97,5.91,2.94c-0.26,0.25-0.4,0.52-0.72,0.72c1.66,0.13,3.62,0.54,5.24,0.33c-0.1,0.37-0.31,0.66-0.64,0.88
			c1.8,0.51,3.69-0.43,5.41-0.25c-0.2,0.49-0.35,0.95-0.7,1.33c1.59-0.11,3.58-1.12,5.14-1.75c1.61-0.66,3.17-1.73,4.6-2.85
			c2.76-2.15,5.65-3.9,9.33-3.44l0.57,0.22c0.21-0.51,0.35-0.86,0.35-0.86s-2.62-0.99-3.67-1.49c-1.05-0.5-4.2-1.48-4.97-1.8
			c-0.78-0.32-4.01-1.76-4.82-2.45c-0.81-0.69-2.71-2.12-3.85-3.07C103.93,126.99,100.44,124.55,99.72,123.8z"/>
		
			<linearGradient id="SVGID_3_" gradientUnits="userSpaceOnUse" x1="432.253" y1="302.583" x2="503.8308" y2="302.583" gradientTransform="matrix(-0.6149 -0.7886 0.7886 -0.6149 155.7669 658.8608)">
			<stop  offset="0" style="stop-color:#EA5B00"/>
			<stop  offset="0.0359" style="stop-color:#E95201"/>
			<stop  offset="0.2045" style="stop-color:#E62F05"/>
			<stop  offset="0.3627" style="stop-color:#E41508"/>
			<stop  offset="0.5052" style="stop-color:#E2050A"/>
			<stop  offset="0.6182" style="stop-color:#E2000B"/>
			<stop  offset="0.694" style="stop-color:#DC010A"/>
			<stop  offset="0.793" style="stop-color:#CC0308"/>
			<stop  offset="0.9041" style="stop-color:#B10604"/>
			<stop  offset="0.9818" style="stop-color:#9A0900"/>
		</linearGradient>
		<path class="st2" d="M101.15,71.84c-0.44,1.63-0.79,3.27-1.55,4.77c-0.27,0.53-0.94,2.07-1.53,2.08
			c-0.59,0.02-1.55-1.46-2.05-1.69c0.45,2.25,0.15,4.47-0.13,6.78c-0.46,3.76-2.37,0.6-3.92-0.31c0.14,0.83,0.73,4.35,0.88,5.28
			c0.14,0.88,1.1,3.89,0.43,4.6c-1.44,1.53-7.39-3.49-7.81-4.77c0.41,2.6,0.84,5.26,1.35,7.85c0.23,1.19,0.6,2.55,0.61,3.72
			c0.02,1.8-1,1.17-2.39,0.84c0.93,0.79,1.62,2.25,2.02,3.37c0.48,1.36,1.16,2.93-0.58,3.15c-1.46,0.18-2.71-0.23-4.07-0.7
			c-1.07-0.37-2.77-0.71-3.54-1.25c0.17,0.15,0.32,0.27,0.43,0.36c0.68,0.53,1.66,1.62,2.25,2.21c0.59,0.59,1.43,1.66,2.32,2.81
			c0.9,1.15,2.57,2.62,3.15,3.36c0.58,0.74,2.22,1.83,2.96,2.45c0.74,0.61,3.74,2.76,4.71,3.33c0.97,0.57,3.38,2.65,4.17,3.48
			c0.79,0.84,3.56,3.04,3.83,3.22c0.28,0.18,4.98,3.51,5.47,3.79c0.48,0.28,3.34,2.42,4.2,2.67c0.86,0.25,5.92,2.51,7.29,2.91
			c1.36,0.39,2.41,0.89,2.41,0.89s-0.55-1.55-0.83-2.26c-0.28-0.7-2.91-5.26-3.6-6.31c-0.69-1.05-3.05-7.13-3.51-8.23
			c-0.46-1.1-1.49-4.78-1.85-7.28c-0.36-2.49-1.7-7.26-2.22-8.44c-0.52-1.18-1.97-6.25-2.25-8.81c-0.28-2.56-1.69-9.11-1.56-10.76
			c0.13-1.65-1.57-8.33-1.73-9.39c-0.17-1.06-0.98-5.84-1.05-7.11c-0.07-1.27-0.38-4.72-0.61-5.86c-0.05-0.27-0.1-0.71-0.14-1.24
			C102.6,64.98,102.09,68.33,101.15,71.84z"/>
		
			<linearGradient id="SVGID_4_" gradientUnits="userSpaceOnUse" x1="396.7686" y1="314.9231" x2="431.6747" y2="314.9231" gradientTransform="matrix(-0.6149 -0.7886 0.7886 -0.6149 155.7669 658.8608)">
			<stop  offset="0" style="stop-color:#EA5B00"/>
			<stop  offset="0.0359" style="stop-color:#E95201"/>
			<stop  offset="0.2045" style="stop-color:#E62F05"/>
			<stop  offset="0.3627" style="stop-color:#E41508"/>
			<stop  offset="0.5052" style="stop-color:#E2050A"/>
			<stop  offset="0.6182" style="stop-color:#E2000B"/>
			<stop  offset="0.694" style="stop-color:#DC010A"/>
			<stop  offset="0.793" style="stop-color:#CC0308"/>
			<stop  offset="0.9041" style="stop-color:#B10604"/>
			<stop  offset="0.9818" style="stop-color:#9A0900"/>
		</linearGradient>
		<path class="st3" d="M126.96,140.17c1.46,1.69,1.54,3.84,1.99,5.89c0.37,1.72,0.51,3.58,1.15,5.19c0.74,1.85,2.01,3.68,3.44,5.22
			c-0.01-1.17,0.59-2.07,1.08-3.05c0.21,0.81,1.7,1.92,2.39,2.52c0.93,0.81,1.79,1.69,2.7,2.49c0.25-0.66,0.01-1.42,0.19-2.12
			c1.69,0.43,3.27,1.64,5.12,2.01c2.09,0.42,4.38,1.1,6.49,0.74c-1.29-1.53-1.64-3.73-1.9-5.65c1.63,0.24,4-0.14,5.31-1.07
			c-0.29-0.2-0.6-0.46-0.84-0.71c2.44-0.62,4.73-2.72,7.04-3.78c-1.52-0.41-1.62-2.02-2.12-3.22c1.37-2.05,3.94-3.01,6.13-3.82
			c-0.7-0.49-1.41-0.97-1.98-1.7c3.1-3.34,4.88-7.47,8.45-10.47c-0.43,0.12-0.87,0.23-1.27,0.34c-1.31,0.36-5.57,1.83-6.65,2.15
			c-1.08,0.31-3.32,1.67-4.98,2.43c-1.65,0.76-4.73,2.24-6.49,2.68c-1.76,0.45-6.91,1.3-8.58,1.54c-1.66,0.24-5.54,0.36-7.33,0.43
			c-1.79,0.07-6.05-0.3-7.07-0.43c-1.02-0.13-5.25-0.8-6.15-0.54c-0.91,0.25-0.87,0.48-0.87,0.48
			C124.22,137.66,125.73,138.75,126.96,140.17z"/>
		
			<linearGradient id="SVGID_5_" gradientUnits="userSpaceOnUse" x1="408.3696" y1="329.0728" x2="447.2287" y2="329.0728" gradientTransform="matrix(-0.6149 -0.7886 0.7886 -0.6149 155.7669 658.8608)">
			<stop  offset="0" style="stop-color:#EA5B00"/>
			<stop  offset="0.0359" style="stop-color:#E95201"/>
			<stop  offset="0.2045" style="stop-color:#E62F05"/>
			<stop  offset="0.3627" style="stop-color:#E41508"/>
			<stop  offset="0.5052" style="stop-color:#E2050A"/>
			<stop  offset="0.6182" style="stop-color:#E2000B"/>
			<stop  offset="0.694" style="stop-color:#DC010A"/>
			<stop  offset="0.793" style="stop-color:#CC0308"/>
			<stop  offset="0.9041" style="stop-color:#B10604"/>
			<stop  offset="0.9818" style="stop-color:#9A0900"/>
		</linearGradient>
		<path class="st4" d="M166.32,85.2c-0.25,0.86-0.52,2.39-0.98,3.14c-0.47,0.76-1.26,2.96-1.7,3.57c-0.45,0.61-0.97,1.81-2.53,4.22
			c-1.56,2.4-2.06,3.46-3.77,5.84c-1.71,2.39-3.24,3.98-5.11,6.49c-1.87,2.52-3.48,4.17-6.22,7.1c-2.74,2.93-4.68,4.84-7.02,6.92
			c-2.34,2.08-5.99,5.2-7.71,6.54c-1.73,1.35-7.17,5.2-8,5.84c-0.82,0.64-0.7,1.47-0.7,1.47s0.64,0.82,1.6,0.87
			c0.96,0.04,3.13,0.46,5.05,0.55c1.92,0.09,3.36,0.42,4.7,0.43c1.33,0.02,4.75-0.01,6.31-0.04c1.56-0.03,6.05-0.88,7.23-0.89
			c1.19,0,5.81-1.36,7.28-1.84c1.47-0.49,4.61-1.88,5.64-2.42c1.03-0.54,3.24-1.6,3.7-2.01c0.46-0.41,3.33-0.83,4.1-1.03
			c0.47-0.12,1.82-0.55,2.88-0.89c0.28-0.25,0.56-0.5,0.85-0.73c-1.11,0.65-3.15,0.12-4.29-0.31c-1.25-0.48-2.3-1.5-3.58-1.82
			c0.46-0.69,0.72-1.53,1.1-2.32c0.51-1.08,1.3-1.75,2-2.61c-0.43-0.1-0.85-0.07-1.27-0.16c0.66-1.97,1.9-3.7,2.39-5.83
			c0.4-1.74,0.66-3.23,1.3-4.85c-0.81,0.43-1.43-0.57-2.28-0.15c0.17-1.5,0.52-3.12,0.99-4.52c0.54-1.61,1.97-2.33,2.72-3.66
			c-0.65,0.22-3.33-0.05-3.33-0.05c1.32-2.92,1.46-6.25,2.73-9.13c-0.83,0.5-1.87,0.24-2.74,0.69c0.86-1.75,0.74-3.65,0.22-5.45
			c-0.51-1.76-0.77-3.42-0.87-5.21C166.74,83.87,166.44,84.82,166.32,85.2z"/>
		
			<linearGradient id="SVGID_6_" gradientUnits="userSpaceOnUse" x1="432.4604" y1="329.1402" x2="458.3524" y2="329.1402" gradientTransform="matrix(-0.6149 -0.7886 0.7886 -0.6149 155.7669 658.8608)">
			<stop  offset="0" style="stop-color:#EA5B00"/>
			<stop  offset="0.0359" style="stop-color:#E95201"/>
			<stop  offset="0.2045" style="stop-color:#E62F05"/>
			<stop  offset="0.3627" style="stop-color:#E41508"/>
			<stop  offset="0.5052" style="stop-color:#E2050A"/>
			<stop  offset="0.6182" style="stop-color:#E2000B"/>
			<stop  offset="0.694" style="stop-color:#DC010A"/>
			<stop  offset="0.793" style="stop-color:#CC0308"/>
			<stop  offset="0.9041" style="stop-color:#B10604"/>
			<stop  offset="0.9818" style="stop-color:#9A0900"/>
		</linearGradient>
		<path class="st5" d="M154.93,78.3c-0.79,1.47-2.22,3.9-2.41,3.94c-0.24,0.05-3.12,5.33-3.57,5.95c-0.45,0.61-3.64,6.01-4.63,7.44
			c-0.99,1.44-4.12,6.91-4.91,7.93c-0.79,1.02-5.97,7.43-7.01,8.63c-1.04,1.21-4.15,4.16-4.64,4.55c-0.49,0.38-1.22,1.48-1.22,1.48
			s-0.91,3.75-1.1,4.69c-0.19,0.94-1.56,6.63-1.61,7.59c-0.04,0.96-1.24,5.86-1.24,5.86s2.47-2.59,4.67-4.17
			c2.2-1.58,7.99-6.36,9.83-8.06c1.84-1.7,5.6-4.5,8.44-7.64c2.84-3.14,5.36-6.16,6.42-7.52c1.06-1.35,1.94-1.91,4.11-5.06
			c2.17-3.15,1.94-3.1,3.93-5.97c1.99-2.87,1.86-3.04,3.64-6.01c1.78-2.97,1.66-2.61,2.27-4.54c0.61-1.93,0.66-2.37,1.09-4.02
			c0.02-0.08,0.04-0.16,0.06-0.24c-0.01-0.14-0.02-0.27-0.03-0.4c-1.39,2.68-3.54,4.5-6.02,6.25c-1.3,0.92-2.41,1.88-3.8,2.58
			c-1.29,0.65-2.84,0.98-4.23,1.54c-1.43-1.21,0.02-5.68,0.44-7.14C153.99,83.95,155.7,80.3,154.93,78.3z"/>
		
			<linearGradient id="SVGID_7_" gradientUnits="userSpaceOnUse" x1="444.2568" y1="333.2237" x2="468.1785" y2="333.2237" gradientTransform="matrix(-0.6149 -0.7886 0.7886 -0.6149 155.7669 658.8608)">
			<stop  offset="0" style="stop-color:#EA5B00"/>
			<stop  offset="0.0359" style="stop-color:#E95201"/>
			<stop  offset="0.2045" style="stop-color:#E62F05"/>
			<stop  offset="0.3627" style="stop-color:#E41508"/>
			<stop  offset="0.5052" style="stop-color:#E2050A"/>
			<stop  offset="0.6182" style="stop-color:#E2000B"/>
			<stop  offset="0.694" style="stop-color:#DC010A"/>
			<stop  offset="0.793" style="stop-color:#CC0308"/>
			<stop  offset="0.9041" style="stop-color:#B10604"/>
			<stop  offset="0.9818" style="stop-color:#9A0900"/>
		</linearGradient>
		<path class="st6" d="M147.81,71.63c-0.48,0.91-2.16,5.53-2.62,6.21c-0.46,0.68-0.96,2.92-1.59,3.81
			c-0.63,0.89-3.16,5.77-4.08,7.14c-0.91,1.37-3.41,4.77-4.63,6.26c-1.22,1.48-3.31,3.37-3.31,3.37s-1.46,5.24-1.92,6.52
			c-0.46,1.28-1.84,7.64-2.03,8.58c-0.19,0.94-0.5,4.32-0.5,4.32s1.96-2.29,3.12-3.33c1.17-1.04,4.16-4.83,5.79-6.63
			c1.63-1.8,3.03-4.08,4.53-6.04c1.51-1.97,3.37-5.67,4.37-7.11c0.99-1.43,3.2-4.87,4.7-7.36c1.5-2.49,1.48-3.39,2.88-5.14
			c0.91-1.15,1.8-2.67,2.45-3.8c-0.02-0.06-0.03-0.12-0.06-0.18c-1.58,1.06-3.02,1.65-4.84,2.2c-0.11-0.04,0.07-0.06,0.13-0.14
			l-0.59-0.07c-0.29-1.43-0.94-2.9-1.17-4.5c-0.22-1.47-0.03-3.11-0.32-4.55c-0.02,0.01-0.05,0.01-0.07,0.02
			C147.96,71.37,147.88,71.52,147.81,71.63z"/>
		
			<linearGradient id="SVGID_8_" gradientUnits="userSpaceOnUse" x1="456.8363" y1="341.8005" x2="476.894" y2="341.8005" gradientTransform="matrix(-0.6149 -0.7886 0.7886 -0.6149 155.7669 658.8608)">
			<stop  offset="0" style="stop-color:#EA5B00"/>
			<stop  offset="0.0359" style="stop-color:#E95201"/>
			<stop  offset="0.2045" style="stop-color:#E62F05"/>
			<stop  offset="0.3627" style="stop-color:#E41508"/>
			<stop  offset="0.5052" style="stop-color:#E2050A"/>
			<stop  offset="0.6182" style="stop-color:#E2000B"/>
			<stop  offset="0.694" style="stop-color:#DC010A"/>
			<stop  offset="0.793" style="stop-color:#CC0308"/>
			<stop  offset="0.9041" style="stop-color:#B10604"/>
			<stop  offset="0.9818" style="stop-color:#9A0900"/>
		</linearGradient>
		<path class="st7" d="M141.55,71.23c-0.78,1.54-2.44,4.15-3.73,5.55c-1.29,1.4-2.1,2.56-2.1,2.56s-0.37,4.78-1.12,6.69
			c-0.76,1.91-1.65,7.37-1.93,8.37c-0.27,1.01-1.09,4.02-1.09,4.02s0.08-0.06,2.39-2.52c2.31-2.46,3.62-4.67,5.06-6.72
			c1.44-2.05,2.74-4.11,3.64-6.01c0.9-1.89,1.85-4.06,2.52-5.32c0.67-1.26,0.92-2.12,1.93-4.22c0.42-0.89,0.76-1.54,1.05-2.09
			c-0.02-0.12-0.02-0.25-0.05-0.36c-0.89,0.35-2.03-0.01-2.92,0.36c0.11-2.83-1.16-6.12-0.32-8.92c-0.48,0.58-1.65,2.81-2.05,3.65
			C142.43,67.11,142.34,69.69,141.55,71.23z"/>
		
			<linearGradient id="SVGID_9_" gradientUnits="userSpaceOnUse" x1="469.336" y1="352.2667" x2="491.5605" y2="352.2667" gradientTransform="matrix(-0.6149 -0.7886 0.7886 -0.6149 155.7669 658.8608)">
			<stop  offset="0" style="stop-color:#EA5B00"/>
			<stop  offset="0.0359" style="stop-color:#E95201"/>
			<stop  offset="0.2045" style="stop-color:#E62F05"/>
			<stop  offset="0.3627" style="stop-color:#E41508"/>
			<stop  offset="0.5052" style="stop-color:#E2050A"/>
			<stop  offset="0.6182" style="stop-color:#E2000B"/>
			<stop  offset="0.694" style="stop-color:#DC010A"/>
			<stop  offset="0.793" style="stop-color:#CC0308"/>
			<stop  offset="0.9041" style="stop-color:#B10604"/>
			<stop  offset="0.9818" style="stop-color:#9A0900"/>
		</linearGradient>
		<path class="st8" d="M139.49,54.35c-0.09,0.73-0.64,5.78-1,7.52c-0.36,1.74-1.42,8.51-1.69,10.03c-0.26,1.53-1.07,7.44-1.07,7.44
			s1.1-1.13,2.51-2.88c1.4-1.76,2.72-3.97,3.32-5.23c0.6-1.26,0.87-2.27,1.12-3.65c0.25-1.38,0.63-2.07,1.28-3.11
			c0.24-0.38,0.53-0.84,0.82-1.27c0.04-0.2,0.06-0.4,0.12-0.59c-1.5,0.62-2.02-0.8-2.46-2.27c-0.44-1.44-0.75-3.12-0.94-4.59
			c-0.35-2.71-1.09-5.6-0.94-8.35c-0.13,0.34-0.27,0.66-0.41,0.99C139.94,49.65,139.57,53.68,139.49,54.35z"/>
		
			<linearGradient id="SVGID_10_" gradientUnits="userSpaceOnUse" x1="432.3915" y1="312.7815" x2="503.9234" y2="312.7815" gradientTransform="matrix(-0.6149 -0.7886 0.7886 -0.6149 155.7669 658.8608)">
			<stop  offset="0" style="stop-color:#EA5B00"/>
			<stop  offset="0.0359" style="stop-color:#E95201"/>
			<stop  offset="0.2045" style="stop-color:#E62F05"/>
			<stop  offset="0.3627" style="stop-color:#E41508"/>
			<stop  offset="0.5052" style="stop-color:#E2050A"/>
			<stop  offset="0.6182" style="stop-color:#E2000B"/>
			<stop  offset="0.694" style="stop-color:#DC010A"/>
			<stop  offset="0.793" style="stop-color:#CC0308"/>
			<stop  offset="0.9041" style="stop-color:#B10604"/>
			<stop  offset="0.9818" style="stop-color:#9A0900"/>
		</linearGradient>
		<path class="st9" d="M103.61,68.98c0.15,0.54,1.01,7.4,1.01,7.4l0.86,6.86l1.7,9.64c0,0,1.48,9.02,2.05,10.42
			c0.57,1.41,3.16,8.63,3.04,9.65c-0.13,1.02,1.52,6.35,2.43,8.54c0.92,2.19,1.97,5.07,2.92,6.97c0.95,1.9,3.27,5.38,3.6,6.31
			c0.33,0.93,0.72,2.61,1.36,1.58c0,0,0.23-1.9,0.78-3.91c0.55-2.01,0.85-3.83,1.5-6.72c0.65-2.89,0.88-5.31,1.18-5.94
			c0.3-0.63,0.49-1.57,0.49-1.57s-0.84-0.4-1.15-1.48c-0.31-1.08-1.78-4.82-2.22-6.06c-0.44-1.24-1.73-4.59-2.18-6.36
			c-0.45-1.76-1.79-4.15-1.83-6.24c-0.04-2.08-0.15-4.77-0.06-6.69c0.09-1.92-0.19-4.48-0.13-6.77c0.06-2.29,0.11-4.44-0.17-5.81
			c-0.27-1.37-0.73-2.31-1.03-3.61c-0.3-1.3-0.86-2.71-1.16-3.93c-0.12-0.48-0.22-0.94-0.3-1.38c-0.12,2.16-0.55,8.94-1.41,12.19
			c-0.23,0.87-0.43,2.04-0.96,2.78c-0.89,1.21-1.2-0.11-1.63-1.24c-0.82-2.18-1.56-4.2-2.73-6.15c-1.59-2.63-3.05-5.18-3.85-8.11
			c-0.8-2.97-2.02-5.37-3.02-8.13c-0.01,0.27-0.03,0.52-0.04,0.79c0.07,1.65,0.13,3.11,0.12,3.39
			C102.78,66.06,103.45,68.45,103.61,68.98z"/>
		
			<linearGradient id="SVGID_11_" gradientUnits="userSpaceOnUse" x1="444.7365" y1="325.6723" x2="489.2534" y2="325.6723" gradientTransform="matrix(-0.6149 -0.7886 0.7886 -0.6149 155.7669 658.8608)">
			<stop  offset="0" style="stop-color:#EA5B00"/>
			<stop  offset="0.0359" style="stop-color:#E95201"/>
			<stop  offset="0.2045" style="stop-color:#E62F05"/>
			<stop  offset="0.3627" style="stop-color:#E41508"/>
			<stop  offset="0.5052" style="stop-color:#E2050A"/>
			<stop  offset="0.6182" style="stop-color:#E2000B"/>
			<stop  offset="0.694" style="stop-color:#DC010A"/>
			<stop  offset="0.793" style="stop-color:#CC0308"/>
			<stop  offset="0.9041" style="stop-color:#B10604"/>
			<stop  offset="0.9818" style="stop-color:#9A0900"/>
		</linearGradient>
		<path class="st10" d="M126.57,88.6c-0.04-2.08-0.73-4.32-0.53-7.12c0.2-2.79,0.44-5.36,0.41-6.92c-0.03-1.56,0.15-3.02,0.35-4.63
			c0.12-0.94,0.43-2.43,0.67-3.51c-1-0.43-2.36-1.3-2.61-2.38c0.25,1.91-0.34,3.51-0.98,5.32c-0.57,1.62-0.85,3.46-1.81,4.9
			c-1.29,1.92-2.58,0.48-3.75-0.96c-0.91-1.12-1.83-3.03-1.97-4.1c0,0-0.01,0.17-0.02,0.46c0.21,1.34,0.51,3.03,0.65,3.44
			c0.22,0.62,1.27,4.16,1.37,5.14c0.1,0.98,0.96,4.27,0.81,5.44c-0.14,1.17-0.43,5.88-0.41,6.93c0.02,1.04,0.32,5.83,0.34,6.87
			c0.02,1.04,1.17,4.38,1.48,5.45c0.31,1.08,1.32,4.91,2.03,7c0.71,2.09,1.76,4.97,2.43,6.16c0.67,1.2,1.35,2.25,1.86,1.19
			c0.14-0.3,0.29-2.34,0.92-4.41c0.63-2.07,0.88-4.12,1.8-7.35c0.92-3.23,1.74-6.24,1.74-6.24s-0.69-0.38-0.92-1
			c-0.22-0.62-1.73-3.41-2.38-4.75C127.38,92.19,126.6,90.68,126.57,88.6z"/>
		
			<linearGradient id="SVGID_12_" gradientUnits="userSpaceOnUse" x1="456.3157" y1="344.3406" x2="491.4912" y2="344.3406" gradientTransform="matrix(-0.6149 -0.7886 0.7886 -0.6149 155.7669 658.8608)">
			<stop  offset="0" style="stop-color:#EA5B00"/>
			<stop  offset="0.0359" style="stop-color:#E95201"/>
			<stop  offset="0.2045" style="stop-color:#E62F05"/>
			<stop  offset="0.3627" style="stop-color:#E41508"/>
			<stop  offset="0.5052" style="stop-color:#E2050A"/>
			<stop  offset="0.6182" style="stop-color:#E2000B"/>
			<stop  offset="0.694" style="stop-color:#DC010A"/>
			<stop  offset="0.793" style="stop-color:#CC0308"/>
			<stop  offset="0.9041" style="stop-color:#B10604"/>
			<stop  offset="0.9818" style="stop-color:#9A0900"/>
		</linearGradient>
		<path class="st11" d="M133.67,90.59c0.35-1.59,1.44-7.47,1.65-8.55c0.21-1.09,1.51-10.43,1.7-11.37
			c0.19-0.94,1.48-10.8,1.59-11.68c0.11-0.88,1.11-6.54,1.21-7.42c0.07-0.56,0.37-2.48,0.66-4.04c-0.94,2.39-2.06,4.63-3.2,6.96
			c-0.42,0.85-0.79,2.72-1.56,3.25c-1.02,0.71-1.7-0.89-1.97-1.7c-0.91,2.92-2.05,5.88-3.56,8.56c-0.71,1.27-0.98,2.5-2.52,1.91
			c-0.21-0.08-0.44-0.19-0.68-0.31c-0.09,0.8-0.13,1.55-0.19,2.25c-0.12,1.4-0.07,1.92-0.16,3.83c-0.09,1.92-0.53,6.09-0.64,8.16
			c-0.11,2.07,0.07,4.83,0.24,5.89c0.17,1.06,0.56,4.45,1.1,5.48c0.54,1.03,1.71,3.55,2.36,4.9c0.65,1.34,1.61,2.57,1.61,2.57
			s0.56-1.49,0.73-2.28C132.23,96.2,133.32,92.18,133.67,90.59z"/>
		
			<linearGradient id="SVGID_13_" gradientUnits="userSpaceOnUse" x1="403.6083" y1="308.046" x2="498.6547" y2="308.046" gradientTransform="matrix(-0.6149 -0.7886 0.7886 -0.6149 155.7669 658.8608)">
			<stop  offset="0.0182" style="stop-color:#9A0900"/>
			<stop  offset="0.0959" style="stop-color:#B10604"/>
			<stop  offset="0.207" style="stop-color:#CC0308"/>
			<stop  offset="0.306" style="stop-color:#DC010A"/>
			<stop  offset="0.3818" style="stop-color:#E2000B"/>
			<stop  offset="0.4948" style="stop-color:#E2050A"/>
			<stop  offset="0.6373" style="stop-color:#E41508"/>
			<stop  offset="0.7955" style="stop-color:#E62F05"/>
			<stop  offset="0.9641" style="stop-color:#E95201"/>
			<stop  offset="1" style="stop-color:#EA5B00"/>
		</linearGradient>
		<path class="st12" d="M103.51,67.32c-0.5,2.5-0.19,4.85,0.36,7.33c0.67,3.03,0.82,6.07,1.32,9.13c0.46,2.82,0.78,5.72,1.2,8.59
			c-3.25-2.22-5.93-5.25-7.33-8.99c0-0.01-0.01,0-0.01,0.01c0.54,1.65,1.41,3.32,2.3,4.82c0.45,0.76,1.02,1.6,1.66,2.22
			c1.02,0.98,2.63,1.84,3.28,3.12c0.09,0.17,0.2,0.25,0.32,0.3c0.39,2.46,0.86,4.89,1.56,7.23c0.45,1.51,0.89,3.01,1.32,4.52
			c-2.85-1.91-5.4-3.76-7.57-6.62c-2.22-2.93-4.04-6.15-6.33-9.03c-0.04-0.04-0.1,0.01-0.07,0.05c2.15,2.94,3.93,6.28,5.91,9.36
			c2.26,3.52,5.19,5.4,8.49,7.79c1.11,3.97,2.16,7.95,3.27,11.94c-6.23-2.75-10.64-6.49-14.93-11.84c-3.31-4.13-6.19-8.6-9.67-12.58
			c-0.03-0.03-0.08,0.01-0.05,0.04c6.96,10.05,13.01,20.6,24.72,25.53c0.1,0.04,0.19,0.04,0.28,0.03
			c1.75,5.59,4.84,10.28,7.54,15.37c-2.08-0.99-4.39-1.55-6.52-2.41c-4.37-1.76-8.11-5.09-11.78-7.96
			c-6.52-5.09-15.67-9.39-20.22-16.51c-0.05-0.08-0.19,0-0.14,0.08c3.64,6.62,11.66,10.99,17.54,15.37c2.02,1.5,3.96,3.09,5.94,4.64
			c-6.69,1.76-13.17,3.32-19.99,0.93c-0.13-0.05-0.21,0.15-0.08,0.21c7.02,2.9,13.66,1.48,20.72-0.46c0.06,0.01,0.13,0,0.19-0.02
			c1.16,0.89,2.33,1.76,3.54,2.58c1.82,1.23,3.86,1.97,5.9,2.7c-3.34,0.1-6.75,1.28-9.9,2.12c-4.43,1.18-8.91,1.19-13.44,1.62
			c-0.09,0.01-0.06,0.13,0.02,0.13c4.02-0.1,8.07,0.07,12.03-0.73c4.44-0.9,8.82-2.6,13.42-2.31c0.03,0,0.06-0.01,0.09-0.01
			c1.04,0.4,2.05,0.85,3,1.42c-1,2.75-2.17,5.46-3.27,8.29c-2.06,5.3-4.41,10.23-6.98,15.3c-2.34,4.62-2.95,9.76-5.98,14.05
			c-0.26,0.12-0.46,0.35-0.5,0.72c-0.01,0.07-0.01,0.14-0.02,0.2c-0.09,0.92,1.16,1.5,1.72,0.69c2.6-3.75,3.83-8.09,5.22-12.39
			c1.68-5.2,4.83-9.9,6.76-15.04c1.39-3.72,3.11-7.42,4.35-11.22c0.18-0.06,0.33-0.21,0.39-0.39c2.5,0.34,4.9,0.66,7.27,0.88
			c0.01,0.07,0.03,0.14,0.08,0.21c3.9,5.94,9.36,13.01,15.89,16.1c0.01,0.01,0.02-0.02,0.01-0.02
			c-6.09-4.04-10.78-10.14-14.85-16.18c3.05,0.25,6.06,0.32,9.22,0.05c3.28,3.78,8.66,9.6,14.33,8.47c0.03-0.01,0.03-0.05-0.01-0.05
			c-5.63,0.26-9.85-4.62-13.21-8.52c0.77-0.08,1.54-0.18,2.33-0.3c3.07-0.49,6.19-0.85,9.16-1.74c3.9-1.17,7.17-3.35,10.79-5.11
			c0.02-0.01,0.01-0.03-0.01-0.02c-2.96,1.01-5.58,2.59-8.49,3.71c-3.73,1.43-7.63,1.8-11.56,2.35c-3.5,0.49-6.97,0.83-10.51,0.68
			c-3.48-0.15-6.93-1.08-10.37-1.6c0.02-0.08,0.04-0.17,0.06-0.25c4.18-2.99,8.14-6.09,11.94-9.34c0.02,0,0.03,0.02,0.05,0.02
			c5.37,0.76,10.3,0.01,15.27-2.09c4.39-1.85,10.76-4.92,13.49-8.96c0.02-0.03-0.02-0.07-0.05-0.04c-3.35,3.73-9.23,6.4-13.69,8.38
			c-4.57,2.02-9.23,2.54-14.12,1.87c4.72-4.11,9.19-8.5,13.46-13.34c0.34-0.38,0.66-0.78,0.99-1.17c0.06,0.02,0.12,0.02,0.2,0
			c0.64-0.16,1.18,0.11,1.81,0.09c1.23-0.05,2.57-0.18,3.74-0.57c2.8-0.93,5.76-1.71,7.89-3.88c0.01-0.01,0-0.04-0.02-0.03
			c-2.23,1.16-4.25,2.11-6.64,2.9c-1.68,0.55-4.5,1.45-6.34,0.74c2.89-3.44,5.52-7.03,7.94-10.84c2.25-3.55,5.79-7.84,6.34-12.13
			c0-0.03-0.04-0.04-0.05-0.01c-1.67,4.61-4.99,8.81-7.65,12.9c-2.66,4.09-5.7,7.83-8.94,11.46c-7.65,8.55-15.95,15.6-25.16,22.27
			c1.23-5.43,1.98-10.87,3.46-16.25c5.37-4.4,9.68-9.76,13.65-15.43c2.33-3.32,4.24-7.02,6.23-10.54c1.81-3.21,3.97-6.3,5.62-9.58
			c0.03-0.07-0.07-0.12-0.11-0.06c-8.12,11.44-14.15,24.48-24.91,33.8c1.18-4.47,2.12-9,3.19-13.5c0.3-1.25,0.63-2.49,0.98-3.73
			c0.06-0.01,0.12-0.04,0.18-0.09c3.4-2.85,5.92-6.64,8.14-10.45c1.87-3.21,4.22-6.78,5.09-10.42c0.03-0.13-0.2-0.19-0.24-0.06
			c-1.04,3.43-3.64,6.94-5.45,10.04c-2,3.42-4.35,6.86-7.31,9.52c1.05-3.65,2.15-7.28,2.79-11.05c0.35-2.08,0.72-4.17,1.09-6.27
			c0.07-0.04,0.12-0.1,0.16-0.2c0.26-0.78,1.13-1.49,1.67-2.09c1.08-1.22,1.91-2.65,2.79-4.01c1.52-2.34,1.77-5.36,2.29-8.03
			c0-0.02-0.03-0.03-0.04-0.01c-1.11,3.33-1.77,6.21-3.81,9.15c-0.65,0.94-1.83,2.01-2.7,3.1c1.39-8.04,2.71-16.18,3.33-24.21
			c0.01-0.08-0.12-0.12-0.14-0.04c-2.6,9.44-3.37,19.67-4.88,29.35c-0.82,5.29-2.25,10.29-3.74,15.39c-0.1,0.01-0.19,0.04-0.3,0.1
			c0.97-0.61-2.39-5.29-2.66-5.94c-1.26-2.95-1.34-6.03-1.48-9.18c-0.21-4.98,0.81-10.04,0.46-14.97c-0.01-0.13-0.21-0.12-0.22,0
			c-0.46,5.03-1.14,9.99-1.02,15.08c0.15,6.37,1.78,10.22,4.6,15.83c0.06,0.11,0.15,0.21,0.26,0.29
			c-1.54,5.31-2.49,10.79-3.98,16.12c-0.1,0.37-0.2,0.73-0.3,1.09c-1.83-2.66-2.77-6.33-3.92-9.25c-1.7-4.3-2.56-8.71-2.96-13.29
			c-0.52-6.01,0.97-13.45-1.61-19.14c-0.03-0.06-0.13-0.04-0.11,0.03c1.36,7.12,0.67,14.6,0.98,21.81c0.16,3.68,1.39,7.58,2.7,11.01
			c1.27,3.33,2.21,7.32,4.33,10.23c0.05,0.07,0.11,0.11,0.17,0.15c-0.92,3.36-1.76,6.71-2.29,10.19c-0.35,2.27-0.91,4.4-1.59,6.48
			c-2.83-4.84-5.54-9.53-7.43-14.89c-1.92-5.45-2.72-11.21-4.62-16.69c-2.11-6.08-2.39-12.33-3.78-18.56
			c-0.59-2.61-0.82-5.25-1.11-7.9c-0.37-3.36-1.52-6.21-1.4-9.69C103.74,67.21,103.54,67.18,103.51,67.32z"/>
	</g>
</g>
</svg>
